dosis_extra-bold.sfdir
StartChar: exclam
Encoding: 33 33 214
Width: 229
Flags: W
LayerCount: 2
Back
Fore
SplineSet
187 670 m 0,0,1
 187 625 187 625 185 572.5 c 128,-1,2
 183 520 183 520 180 465.5 c 128,-1,3
 177 411 177 411 175 358.5 c 128,-1,4
 173 306 173 306 173 261 c 0,5,6
 173 238 173 238 153 227.5 c 128,-1,7
 133 217 133 217 115 217 c 0,8,9
 91 217 91 217 73.5 227.5 c 128,-1,10
 56 238 56 238 56 261 c 0,11,12
 56 306 56 306 54 358.5 c 128,-1,13
 52 411 52 411 49 465.5 c 128,-1,14
 46 520 46 520 44 572.5 c 128,-1,15
 42 625 42 625 42 670 c 0,16,17
 42 699 42 699 63 715 c 128,-1,18
 84 731 84 731 115 731 c 0,19,20
 144 731 144 731 165.5 715 c 128,-1,21
 187 699 187 699 187 670 c 0,0,1
116 148 m 0,22,23
 147 148 147 148 169.5 125.5 c 128,-1,24
 192 103 192 103 192 71 c 0,25,26
 192 40 192 40 169.5 17 c 128,-1,27
 147 -6 147 -6 116 -6 c 0,28,29
 83 -6 83 -6 61 17 c 128,-1,30
 39 40 39 40 39 71 c 0,31,32
 39 103 39 103 61 125.5 c 128,-1,33
 83 148 83 148 116 148 c 0,22,23
EndSplineSet
EndChar
StartChar: quotedbl
Encoding: 34 34 331
Width: 315
Flags: W
LayerCount: 2
Back
Fore
SplineSet
77 768 m 256,0,1
 98 768 98 768 115 758 c 128,-1,2
 132 748 132 748 132 731 c 2,3,-1
 122 597 l 2,4,5
 122 583 122 583 111.5 571 c 128,-1,6
 101 559 101 559 77 559 c 256,7,8
 53 559 53 559 43 571 c 128,-1,9
 33 583 33 583 33 597 c 2,10,-1
 23 731 l 2,11,12
 23 748 23 748 39.5 758 c 128,-1,13
 56 768 56 768 77 768 c 256,0,1
237 768 m 256,14,15
 258 768 258 768 275 758 c 128,-1,16
 292 748 292 748 292 731 c 2,17,-1
 282 597 l 2,18,19
 282 583 282 583 271.5 571 c 128,-1,20
 261 559 261 559 237 559 c 256,21,22
 213 559 213 559 203 571 c 128,-1,23
 193 583 193 583 193 597 c 2,24,-1
 183 731 l 2,25,26
 183 748 183 748 199.5 758 c 128,-1,27
 216 768 216 768 237 768 c 256,14,15
EndSplineSet
EndChar
StartChar: numbersign
Encoding: 35 35 290
Width: 717
Flags: W
LayerCount: 2
Back
Fore
SplineSet
291 713 m 0,0,1
 317 713 317 713 339 700.5 c 128,-1,2
 361 688 361 688 361 656 c 1,3,-1
 340 545 l 1,4,-1
 443 545 l 1,5,-1
 469 681 l 2,6,7
 472 696 472 696 491.5 704.5 c 128,-1,8
 511 713 511 713 534 713 c 0,9,10
 560 713 560 713 582 700.5 c 128,-1,11
 604 688 604 688 605 656 c 1,12,-1
 583 545 l 1,13,-1
 653 545 l 2,14,15
 670 545 670 545 683 528.5 c 128,-1,16
 696 512 696 512 696 488 c 0,17,18
 696 462 696 462 682.5 446 c 128,-1,19
 669 430 669 430 652 430 c 2,20,-1
 562 430 l 1,21,-1
 540 322 l 1,22,-1
 610 322 l 2,23,24
 627 322 627 322 640.5 305.5 c 128,-1,25
 654 289 654 289 654 265 c 0,26,27
 654 239 654 239 640 223 c 128,-1,28
 626 207 626 207 609 207 c 2,29,-1
 518 207 l 1,30,-1
 490 62 l 2,31,32
 487 48 487 48 468 38 c 128,-1,33
 449 28 449 28 430 28 c 0,34,35
 418 28 418 28 404 31.5 c 128,-1,36
 390 35 390 35 379 42 c 128,-1,37
 368 49 368 49 360.5 60 c 128,-1,38
 353 71 353 71 353 85 c 2,39,-1
 376 207 l 1,40,-1
 275 207 l 1,41,-1
 247 62 l 2,42,43
 244 48 244 48 224.5 38 c 128,-1,44
 205 28 205 28 187 28 c 0,45,46
 175 28 175 28 161.5 31.5 c 128,-1,47
 148 35 148 35 136.5 42 c 128,-1,48
 125 49 125 49 118 60 c 128,-1,49
 111 71 111 71 111 85 c 2,50,-1
 133 207 l 1,51,-1
 63 207 l 2,52,53
 44 207 44 207 32.5 222 c 128,-1,54
 21 237 21 237 21 263 c 0,55,56
 21 288 21 288 33 305 c 128,-1,57
 45 322 45 322 64 322 c 2,58,-1
 156 322 l 1,59,-1
 177 430 l 1,60,-1
 106 430 l 2,61,62
 86 430 86 430 75 445 c 128,-1,63
 64 460 64 460 64 486 c 0,64,65
 64 511 64 511 75.5 528 c 128,-1,66
 87 545 87 545 107 545 c 2,67,-1
 200 545 l 1,68,-1
 226 681 l 2,69,70
 229 696 229 696 248.5 704.5 c 128,-1,71
 268 713 268 713 291 713 c 0,0,1
297 322 m 1,72,-1
 399 322 l 1,73,-1
 420 430 l 1,74,-1
 318 430 l 1,75,-1
 297 322 l 1,72,-1
EndSplineSet
EndChar
StartChar: dollar
Encoding: 36 36 190
Width: 541
Flags: W
LayerCount: 2
Back
Fore
SplineSet
242 0 m 1,0,1
 197 1 197 1 157.5 12.5 c 128,-1,2
 118 24 118 24 88 42 c 128,-1,3
 58 60 58 60 41 83 c 128,-1,4
 24 106 24 106 24 130 c 0,5,6
 24 143 24 143 29.5 157.5 c 128,-1,7
 35 172 35 172 44 184.5 c 128,-1,8
 53 197 53 197 65.5 205.5 c 128,-1,9
 78 214 78 214 92 214 c 0,10,11
 108 214 108 214 123 204.5 c 128,-1,12
 138 195 138 195 155 183 c 128,-1,13
 172 171 172 171 193 159 c 128,-1,14
 214 147 214 147 242 142 c 1,15,-1
 242 304 l 1,16,17
 207 317 207 317 171.5 333 c 128,-1,18
 136 349 136 349 107.5 372 c 128,-1,19
 79 395 79 395 60.5 428.5 c 128,-1,20
 42 462 42 462 42 510 c 256,21,22
 42 558 42 558 58.5 593.5 c 128,-1,23
 75 629 75 629 102.5 653.5 c 128,-1,24
 130 678 130 678 166 692.5 c 128,-1,25
 202 707 202 707 242 713 c 1,26,-1
 242 741 l 2,27,28
 242 752 242 752 252.5 760 c 128,-1,29
 263 768 263 768 280 768 c 0,30,31
 294 768 294 768 306 760 c 128,-1,32
 318 752 318 752 318 741 c 2,33,-1
 318 716 l 1,34,35
 341 715 341 715 372 711 c 128,-1,36
 403 707 403 707 430.5 697.5 c 128,-1,37
 458 688 458 688 477.5 671.5 c 128,-1,38
 497 655 497 655 497 629 c 0,39,40
 497 619 497 619 493.5 605 c 128,-1,41
 490 591 490 591 482.5 578 c 128,-1,42
 475 565 475 565 463 556 c 128,-1,43
 451 547 451 547 435 547 c 0,44,45
 423 547 423 547 412 552 c 128,-1,46
 401 557 401 557 388.5 563.5 c 128,-1,47
 376 570 376 570 359 576 c 128,-1,48
 342 582 342 582 318 584 c 1,49,-1
 318 438 l 1,50,51
 352 425 352 425 387 409 c 128,-1,52
 422 393 422 393 450.5 368 c 128,-1,53
 479 343 479 343 497 308 c 128,-1,54
 515 273 515 273 515 222 c 0,55,56
 515 175 515 175 500.5 138 c 128,-1,57
 486 101 486 101 460 73.5 c 128,-1,58
 434 46 434 46 398 28.5 c 128,-1,59
 362 11 362 11 318 4 c 1,60,-1
 318 -25 l 2,61,62
 318 -36 318 -36 306 -44 c 128,-1,63
 294 -52 294 -52 280 -52 c 0,64,65
 263 -52 263 -52 252.5 -44 c 128,-1,66
 242 -36 242 -36 242 -25 c 2,67,-1
 242 0 l 1,0,1
369 206 m 0,68,69
 369 231 369 231 352 247.5 c 128,-1,70
 335 264 335 264 308 277 c 1,71,-1
 308 143 l 1,72,73
 334 149 334 149 351.5 164 c 128,-1,74
 369 179 369 179 369 206 c 0,68,69
188 525 m 0,75,76
 188 503 188 503 205.5 488.5 c 128,-1,77
 223 474 223 474 252 462 c 1,78,-1
 252 581 l 1,79,80
 218 574 218 574 203 558.5 c 128,-1,81
 188 543 188 543 188 525 c 0,75,76
EndSplineSet
EndChar
StartChar: ampersand
Encoding: 38 38 142
Width: 655
Flags: W
LayerCount: 2
Back
Fore
SplineSet
468 252 m 1,0,1
 482 286 482 286 482.5 315.5 c 128,-1,2
 483 345 483 345 485.5 366 c 128,-1,3
 488 387 488 387 501 399 c 128,-1,4
 514 411 514 411 554 411 c 0,5,6
 595 411 595 411 607.5 392 c 128,-1,7
 620 373 620 373 620 340 c 0,8,9
 620 299 620 299 605.5 251 c 128,-1,10
 591 203 591 203 562 156 c 1,11,-1
 638 78 l 2,12,13
 643 72 643 72 645 65.5 c 128,-1,14
 647 59 647 59 647 53 c 0,15,16
 647 41 647 41 641 30 c 128,-1,17
 635 19 635 19 624.5 10 c 128,-1,18
 614 1 614 1 601 -4.5 c 128,-1,19
 588 -10 588 -10 575 -10 c 0,20,21
 565 -10 565 -10 556.5 -6.5 c 128,-1,22
 548 -3 548 -3 537 8 c 2,23,-1
 483 63 l 1,24,25
 443 30 443 30 392 10 c 128,-1,26
 341 -10 341 -10 278 -10 c 0,27,28
 219 -10 219 -10 171 8 c 128,-1,29
 123 26 123 26 89 57 c 128,-1,30
 55 88 55 88 36.5 128.5 c 128,-1,31
 18 169 18 169 18 213 c 0,32,33
 18 246 18 246 27.5 276.5 c 128,-1,34
 37 307 37 307 53.5 333.5 c 128,-1,35
 70 360 70 360 92 381.5 c 128,-1,36
 114 403 114 403 138 418 c 1,37,38
 110 449 110 449 91.5 482.5 c 128,-1,39
 73 516 73 516 73 563 c 0,40,41
 73 607 73 607 90 641.5 c 128,-1,42
 107 676 107 676 137 699.5 c 128,-1,43
 167 723 167 723 207.5 735.5 c 128,-1,44
 248 748 248 748 294 748 c 0,45,46
 341 748 341 748 380 736 c 128,-1,47
 419 724 419 724 446.5 705.5 c 128,-1,48
 474 687 474 687 489 665 c 128,-1,49
 504 643 504 643 504 623 c 0,50,51
 504 609 504 609 497.5 596.5 c 128,-1,52
 491 584 491 584 480.5 573.5 c 128,-1,53
 470 563 470 563 456.5 557 c 128,-1,54
 443 551 443 551 430 551 c 0,55,56
 411 551 411 551 398 562.5 c 128,-1,57
 385 574 385 574 371.5 587.5 c 128,-1,58
 358 601 358 601 340.5 612.5 c 128,-1,59
 323 624 323 624 295 624 c 0,60,61
 263 624 263 624 240 607 c 128,-1,62
 217 590 217 590 217 556 c 0,63,64
 217 535 217 535 228 513.5 c 128,-1,65
 239 492 239 492 255.5 472.5 c 128,-1,66
 272 453 272 453 290.5 434.5 c 128,-1,67
 309 416 309 416 324 401 c 2,68,-1
 468 252 l 1,0,1
295 125 m 0,69,70
 327 125 327 125 351 133.5 c 128,-1,71
 375 142 375 142 392 157 c 1,72,-1
 225 328 l 1,73,74
 203 309 203 309 189 283.5 c 128,-1,75
 175 258 175 258 175 226 c 0,76,77
 175 181 175 181 205.5 153 c 128,-1,78
 236 125 236 125 295 125 c 0,69,70
EndSplineSet
EndChar
StartChar: quotesingle
Encoding: 39 39 338
Width: 155
Flags: W
LayerCount: 2
Back
Fore
SplineSet
77 768 m 256,0,1
 98 768 98 768 115 758 c 128,-1,2
 132 748 132 748 132 731 c 2,3,-1
 122 597 l 2,4,5
 122 583 122 583 111.5 571 c 128,-1,6
 101 559 101 559 77 559 c 256,7,8
 53 559 53 559 43 571 c 128,-1,9
 33 583 33 583 33 597 c 2,10,-1
 23 731 l 2,11,12
 23 748 23 748 39.5 758 c 128,-1,13
 56 768 56 768 77 768 c 256,0,1
EndSplineSet
EndChar
StartChar: parenleft
Encoding: 40 40 316
Width: 358
Flags: W
LayerCount: 2
Back
Fore
SplineSet
263 -20 m 0,0,1
 226 -20 226 -20 187 -9.5 c 128,-1,2
 148 1 148 1 116 24.5 c 128,-1,3
 84 48 84 48 63.5 84.5 c 128,-1,4
 43 121 43 121 43 173 c 2,5,-1
 43 561 l 2,6,7
 43 609 43 609 64 647.5 c 128,-1,8
 85 686 85 686 117.5 713 c 128,-1,9
 150 740 150 740 189.5 754 c 128,-1,10
 229 768 229 768 267 768 c 0,11,12
 313 768 313 768 328.5 748.5 c 128,-1,13
 344 729 344 729 344 701 c 0,14,15
 344 670 344 670 331 651.5 c 128,-1,16
 318 633 318 633 297 633 c 0,17,18
 273 633 273 633 255 626.5 c 128,-1,19
 237 620 237 620 224.5 610 c 128,-1,20
 212 600 212 600 205.5 587 c 128,-1,21
 199 574 199 574 199 561 c 2,22,-1
 199 173 l 2,23,24
 199 155 199 155 208.5 143.5 c 128,-1,25
 218 132 218 132 232 126 c 128,-1,26
 246 120 246 120 263.5 117.5 c 128,-1,27
 281 115 281 115 297 115 c 0,28,29
 326 115 326 115 335 93.5 c 128,-1,30
 344 72 344 72 344 46 c 0,31,32
 344 31 344 31 341 19 c 128,-1,33
 338 7 338 7 329.5 -1.5 c 128,-1,34
 321 -10 321 -10 305 -15 c 128,-1,35
 289 -20 289 -20 263 -20 c 0,0,1
EndSplineSet
EndChar
StartChar: parenright
Encoding: 41 41 317
Width: 358
Flags: W
LayerCount: 2
Back
Fore
SplineSet
95 -20 m 0,0,1
 69 -20 69 -20 53 -15 c 128,-1,2
 37 -10 37 -10 28.5 -1.5 c 128,-1,3
 20 7 20 7 17 19 c 128,-1,4
 14 31 14 31 14 46 c 0,5,6
 14 72 14 72 23 93.5 c 128,-1,7
 32 115 32 115 61 115 c 0,8,9
 77 115 77 115 94.5 117.5 c 128,-1,10
 112 120 112 120 126 126 c 128,-1,11
 140 132 140 132 149.5 143.5 c 128,-1,12
 159 155 159 155 159 173 c 2,13,-1
 159 561 l 2,14,15
 159 574 159 574 152.5 587 c 128,-1,16
 146 600 146 600 133.5 610 c 128,-1,17
 121 620 121 620 103 626.5 c 128,-1,18
 85 633 85 633 61 633 c 0,19,20
 40 633 40 633 27 651.5 c 128,-1,21
 14 670 14 670 14 701 c 0,22,23
 14 715 14 715 17.5 727 c 128,-1,24
 21 739 21 739 29.5 748 c 128,-1,25
 38 757 38 757 53 762.5 c 128,-1,26
 68 768 68 768 91 768 c 0,27,28
 129 768 129 768 168.5 754 c 128,-1,29
 208 740 208 740 240.5 713 c 128,-1,30
 273 686 273 686 294 647.5 c 128,-1,31
 315 609 315 609 315 561 c 2,32,-1
 315 173 l 2,33,34
 315 121 315 121 294.5 84.5 c 128,-1,35
 274 48 274 48 242 24.5 c 128,-1,36
 210 1 210 1 171 -9.5 c 128,-1,37
 132 -20 132 -20 95 -20 c 0,0,1
EndSplineSet
EndChar
StartChar: asterisk
Encoding: 42 42 152
Width: 491
Flags: W
LayerCount: 2
Back
Fore
SplineSet
402 387 m 2,0,1
 410 377 410 377 410 358 c 0,2,3
 410 334 410 334 390.5 319 c 128,-1,4
 371 304 371 304 349 304 c 0,5,6
 341 304 341 304 330 307 c 128,-1,7
 319 310 319 310 311 323 c 2,8,-1
 246 423 l 1,9,-1
 180 322 l 2,10,11
 173 311 173 311 164.5 307.5 c 128,-1,12
 156 304 156 304 145 304 c 0,13,14
 136 304 136 304 125 307.5 c 128,-1,15
 114 311 114 311 104.5 317.5 c 128,-1,16
 95 324 95 324 88.5 334 c 128,-1,17
 82 344 82 344 82 356 c 0,18,19
 82 374 82 374 94 388 c 2,20,-1
 160 482 l 1,21,-1
 56 512 l 2,22,23
 39 516 39 516 30.5 529.5 c 128,-1,24
 22 543 22 543 22 563 c 256,25,26
 22 583 22 583 37.5 600.5 c 128,-1,27
 53 618 53 618 77 618 c 0,28,29
 79 618 79 618 83 617.5 c 128,-1,30
 87 617 87 617 92 615 c 2,31,-1
 197 581 l 1,32,-1
 192 683 l 2,33,34
 193 708 193 708 209 719.5 c 128,-1,35
 225 731 225 731 246 731 c 256,36,37
 267 731 267 731 282.5 719.5 c 128,-1,38
 298 708 298 708 299 683 c 2,39,-1
 295 579 l 1,40,-1
 401 615 l 2,41,42
 408 618 408 618 416 618 c 0,43,44
 439 618 439 618 453.5 598 c 128,-1,45
 468 578 468 578 468 556 c 0,46,47
 468 541 468 541 460 528.5 c 128,-1,48
 452 516 452 516 434 512 c 2,49,-1
 332 488 l 1,50,-1
 402 387 l 2,0,1
EndSplineSet
EndChar
StartChar: plus
Encoding: 43 43 324
Width: 455
Flags: W
LayerCount: 2
Back
Fore
SplineSet
228 33 m 0,0,1
 201 33 201 33 182.5 46 c 128,-1,2
 164 59 164 59 164 80 c 2,3,-1
 164 177 l 1,4,-1
 67 177 l 2,5,6
 46 177 46 177 33 194 c 128,-1,7
 20 211 20 211 20 240 c 0,8,9
 20 267 20 267 33 285.5 c 128,-1,10
 46 304 46 304 67 304 c 2,11,-1
 164 304 l 1,12,-1
 164 400 l 2,13,14
 164 418 164 418 182.5 433 c 128,-1,15
 201 448 201 448 228 448 c 0,16,17
 257 448 257 448 274 433 c 128,-1,18
 291 418 291 418 291 400 c 2,19,-1
 291 304 l 1,20,-1
 387 304 l 2,21,22
 405 304 405 304 420 285.5 c 128,-1,23
 435 267 435 267 435 240 c 0,24,25
 435 211 435 211 420 194 c 128,-1,26
 405 177 405 177 387 177 c 2,27,-1
 291 177 l 1,28,-1
 291 80 l 2,29,30
 291 59 291 59 274 46 c 128,-1,31
 257 33 257 33 228 33 c 0,0,1
EndSplineSet
EndChar
StartChar: period
Encoding: 46 46 320
Width: 199
Flags: W
LayerCount: 2
Back
Fore
SplineSet
100 148 m 0,0,1
 131 148 131 148 153.5 125.5 c 128,-1,2
 176 103 176 103 176 71 c 0,3,4
 176 40 176 40 153.5 17 c 128,-1,5
 131 -6 131 -6 100 -6 c 0,6,7
 67 -6 67 -6 45 17 c 128,-1,8
 23 40 23 40 23 71 c 0,9,10
 23 103 23 103 45 125.5 c 128,-1,11
 67 148 67 148 100 148 c 0,0,1
EndSplineSet
EndChar
StartChar: slash
Encoding: 47 47 363
Width: 491
Flags: W
LayerCount: 2
Back
Fore
SplineSet
415 772 m 0,0,1
 436 772 436 772 455 757.5 c 128,-1,2
 474 743 474 743 474 719 c 0,3,4
 474 708 474 708 470 700 c 2,5,-1
 118 -21 l 2,6,7
 113 -32 113 -32 100 -39 c 128,-1,8
 87 -46 87 -46 73 -46 c 0,9,10
 47 -46 47 -46 32 -29 c 128,-1,11
 17 -12 17 -12 17 7 c 0,12,13
 17 16 17 16 22 26 c 2,14,-1
 373 747 l 2,15,16
 379 760 379 760 390 766 c 128,-1,17
 401 772 401 772 415 772 c 0,0,1
EndSplineSet
EndChar
StartChar: zero
Encoding: 48 48 415
Width: 569
Flags: W
LayerCount: 2
Back
Fore
SplineSet
284 -6 m 256,0,1
 232 -6 232 -6 187.5 6.5 c 128,-1,2
 143 19 143 19 110 47.5 c 128,-1,3
 77 76 77 76 58 120.5 c 128,-1,4
 39 165 39 165 39 230 c 2,5,-1
 39 495 l 2,6,7
 39 559 39 559 58 604 c 128,-1,8
 77 649 77 649 110 677.5 c 128,-1,9
 143 706 143 706 187.5 718.5 c 128,-1,10
 232 731 232 731 284 731 c 256,11,12
 336 731 336 731 381 718.5 c 128,-1,13
 426 706 426 706 459 677.5 c 128,-1,14
 492 649 492 649 511 604 c 128,-1,15
 530 559 530 559 530 495 c 2,16,-1
 530 230 l 2,17,18
 530 165 530 165 511 120.5 c 128,-1,19
 492 76 492 76 459 47.5 c 128,-1,20
 426 19 426 19 381 6.5 c 128,-1,21
 336 -6 336 -6 284 -6 c 256,0,1
374 495 m 2,22,23
 374 547 374 547 350 571 c 128,-1,24
 326 595 326 595 284 595 c 256,25,26
 242 595 242 595 218.5 571 c 128,-1,27
 195 547 195 547 195 495 c 2,28,-1
 195 230 l 2,29,30
 195 178 195 178 218.5 154 c 128,-1,31
 242 130 242 130 284 130 c 256,32,33
 326 130 326 130 350 154 c 128,-1,34
 374 178 374 178 374 230 c 2,35,-1
 374 495 l 2,22,23
285 412 m 0,36,37
 308 412 308 412 321.5 398.5 c 128,-1,38
 335 385 335 385 335 362 c 256,39,40
 335 339 335 339 321.5 325 c 128,-1,41
 308 311 308 311 285 311 c 0,42,43
 261 311 261 311 247.5 325 c 128,-1,44
 234 339 234 339 234 362 c 256,45,46
 234 385 234 385 247.5 398.5 c 128,-1,47
 261 412 261 412 285 412 c 0,36,37
EndSplineSet
EndChar
StartChar: one
Encoding: 49 49 301
Width: 308
Flags: W
LayerCount: 2
Back
Fore
SplineSet
101 557 m 1,0,-1
 72 539 l 2,1,2
 60 531 60 531 47 531 c 0,3,4
 25 531 25 531 11.5 550.5 c 128,-1,5
 -2 570 -2 570 -2 593 c 0,6,7
 -2 609 -2 609 5 623 c 128,-1,8
 12 637 12 637 27 646 c 2,9,-1
 159 726 l 2,10,11
 170 733 170 733 188 733 c 0,12,13
 212 733 212 733 234.5 720 c 128,-1,14
 257 707 257 707 257 684 c 2,15,-1
 257 48 l 2,16,17
 257 24 257 24 232.5 12 c 128,-1,18
 208 0 208 0 179 0 c 256,19,20
 150 0 150 0 125.5 12 c 128,-1,21
 101 24 101 24 101 48 c 2,22,-1
 101 557 l 1,0,-1
EndSplineSet
Substitution2: "'lnum' Lining Figures in Latin lookup 8 subtable" one.lnum
Substitution2: "'aalt' Access All Alternates in Latin lookup 0 subtable" one.lnum
EndChar
StartChar: two
Encoding: 50 50 379
Width: 517
Flags: W
LayerCount: 2
Back
Fore
SplineSet
35 539 m 0,0,1
 35 585 35 585 54.5 620.5 c 128,-1,2
 74 656 74 656 105.5 680.5 c 128,-1,3
 137 705 137 705 177.5 718 c 128,-1,4
 218 731 218 731 261 731 c 256,5,6
 304 731 304 731 346 717.5 c 128,-1,7
 388 704 388 704 421 677.5 c 128,-1,8
 454 651 454 651 474 612.5 c 128,-1,9
 494 574 494 574 494 524 c 0,10,11
 494 470 494 470 471 427 c 128,-1,12
 448 384 448 384 414 349.5 c 128,-1,13
 380 315 380 315 339.5 287.5 c 128,-1,14
 299 260 299 260 265 235.5 c 128,-1,15
 231 211 231 211 208 189.5 c 128,-1,16
 185 168 185 168 185 145 c 2,17,-1
 185 136 l 1,18,-1
 447 136 l 2,19,20
 466 136 466 136 480 116 c 128,-1,21
 494 96 494 96 494 69 c 256,22,23
 494 42 494 42 480 21 c 128,-1,24
 466 0 466 0 447 0 c 2,25,-1
 91 0 l 2,26,27
 80 0 80 0 68.5 3.5 c 128,-1,28
 57 7 57 7 46.5 13 c 128,-1,29
 36 19 36 19 29.5 28 c 128,-1,30
 23 37 23 37 23 48 c 2,31,-1
 23 145 l 2,32,33
 23 184 23 184 46.5 218.5 c 128,-1,34
 70 253 70 253 105 283.5 c 128,-1,35
 140 314 140 314 180.5 343 c 128,-1,36
 221 372 221 372 256 400.5 c 128,-1,37
 291 429 291 429 314.5 458 c 128,-1,38
 338 487 338 487 338 519 c 0,39,40
 338 531 338 531 334 543.5 c 128,-1,41
 330 556 330 556 321 566.5 c 128,-1,42
 312 577 312 577 297.5 583.5 c 128,-1,43
 283 590 283 590 262 590 c 0,44,45
 232 590 232 590 209.5 573.5 c 128,-1,46
 187 557 187 557 187 515 c 0,47,48
 187 493 187 493 165 475.5 c 128,-1,49
 143 458 143 458 105 458 c 0,50,51
 75 458 75 458 55 475 c 128,-1,52
 35 492 35 492 35 539 c 0,0,1
EndSplineSet
EndChar
StartChar: three
Encoding: 51 51 372
Width: 534
Flags: W
LayerCount: 2
Back
Fore
SplineSet
259 130 m 0,0,1
 310 130 310 130 330.5 150.5 c 128,-1,2
 351 171 351 171 351 220 c 2,3,-1
 351 239 l 2,4,5
 351 264 351 264 343.5 279.5 c 128,-1,6
 336 295 336 295 323.5 304 c 128,-1,7
 311 313 311 313 293.5 316 c 128,-1,8
 276 319 276 319 255 319 c 0,9,10
 229 319 229 319 219.5 337.5 c 128,-1,11
 210 356 210 356 210 379 c 256,12,13
 210 402 210 402 219.5 420.5 c 128,-1,14
 229 439 229 439 255 439 c 0,15,16
 269 439 269 439 283 441 c 128,-1,17
 297 443 297 443 308 451.5 c 128,-1,18
 319 460 319 460 326 477.5 c 128,-1,19
 333 495 333 495 333 525 c 0,20,21
 333 568 333 568 311.5 582.5 c 128,-1,22
 290 597 290 597 259 597 c 0,23,24
 222 597 222 597 203.5 586 c 128,-1,25
 185 575 185 575 185 546 c 0,26,27
 185 520 185 520 170.5 504.5 c 128,-1,28
 156 489 156 489 112 489 c 0,29,30
 85 489 85 489 69 492 c 128,-1,31
 53 495 53 495 44.5 502.5 c 128,-1,32
 36 510 36 510 33.5 522 c 128,-1,33
 31 534 31 534 31 552 c 0,34,35
 31 581 31 581 42.5 612.5 c 128,-1,36
 54 644 54 644 80.5 670.5 c 128,-1,37
 107 697 107 697 150.5 714 c 128,-1,38
 194 731 194 731 259 731 c 0,39,40
 307 731 307 731 347.5 721.5 c 128,-1,41
 388 712 388 712 418 691 c 128,-1,42
 448 670 448 670 465 635.5 c 128,-1,43
 482 601 482 601 482 550 c 0,44,45
 482 523 482 523 477 497 c 128,-1,46
 472 471 472 471 462 449 c 128,-1,47
 452 427 452 427 438 411 c 128,-1,48
 424 395 424 395 405 386 c 1,49,50
 450 369 450 369 478.5 334.5 c 128,-1,51
 507 300 507 300 507 239 c 2,52,-1
 507 220 l 2,53,54
 507 158 507 158 487 115 c 128,-1,55
 467 72 467 72 433 45 c 128,-1,56
 399 18 399 18 352.5 6 c 128,-1,57
 306 -6 306 -6 254 -6 c 0,58,59
 189 -6 189 -6 144 11.5 c 128,-1,60
 99 29 99 29 70.5 57 c 128,-1,61
 42 85 42 85 29 118 c 128,-1,62
 16 151 16 151 16 183 c 0,63,64
 16 217 16 217 32 228.5 c 128,-1,65
 48 240 48 240 90 240 c 0,66,67
 138 240 138 240 154 228.5 c 128,-1,68
 170 217 170 217 170 188 c 0,69,70
 170 170 170 170 177.5 159 c 128,-1,71
 185 148 185 148 197.5 141.5 c 128,-1,72
 210 135 210 135 226 132.5 c 128,-1,73
 242 130 242 130 259 130 c 0,0,1
EndSplineSet
EndChar
StartChar: four
Encoding: 52 52 224
Width: 525
Flags: W
LayerCount: 2
Back
Fore
SplineSet
281 154 m 1,0,-1
 47 154 l 2,1,2
 25 154 25 154 10 168 c 128,-1,3
 -5 182 -5 182 -5 208 c 0,4,5
 -5 214 -5 214 -3.5 222 c 128,-1,6
 -2 230 -2 230 3 238 c 2,7,-1
 234 691 l 2,8,9
 245 713 245 713 262.5 722 c 128,-1,10
 280 731 280 731 299 731 c 0,11,12
 309 731 309 731 322.5 727 c 128,-1,13
 336 723 336 723 348 715 c 128,-1,14
 360 707 360 707 368.5 696 c 128,-1,15
 377 685 377 685 377 672 c 0,16,17
 377 665 377 665 372 653 c 2,18,-1
 195 298 l 1,19,-1
 281 298 l 1,20,-1
 281 368 l 2,21,22
 281 393 281 393 305.5 404 c 128,-1,23
 330 415 330 415 359 415 c 256,24,25
 388 415 388 415 412.5 404 c 128,-1,26
 437 393 437 393 437 368 c 2,27,-1
 437 298 l 1,28,-1
 480 298 l 2,29,30
 504 298 504 298 516 275.5 c 128,-1,31
 528 253 528 253 528 226 c 256,32,33
 528 199 528 199 513 176.5 c 128,-1,34
 498 154 498 154 480 154 c 2,35,-1
 437 154 l 1,36,-1
 437 48 l 2,37,38
 437 24 437 24 412.5 12 c 128,-1,39
 388 0 388 0 359 0 c 256,40,41
 330 0 330 0 305.5 12 c 128,-1,42
 281 24 281 24 281 48 c 2,43,-1
 281 154 l 1,0,-1
EndSplineSet
EndChar
StartChar: five
Encoding: 53 53 218
Width: 521
Flags: W
LayerCount: 2
Back
Fore
SplineSet
258 461 m 2,0,1
 310 461 310 461 354.5 449.5 c 128,-1,2
 399 438 399 438 432 412 c 128,-1,3
 465 386 465 386 484 344.5 c 128,-1,4
 503 303 503 303 503 243 c 2,5,-1
 503 224 l 2,6,7
 503 161 503 161 484 117.5 c 128,-1,8
 465 74 465 74 432 46.5 c 128,-1,9
 399 19 399 19 354.5 6.5 c 128,-1,10
 310 -6 310 -6 260 -6 c 0,11,12
 200 -6 200 -6 153.5 10 c 128,-1,13
 107 26 107 26 76 52 c 128,-1,14
 45 78 45 78 29 111.5 c 128,-1,15
 13 145 13 145 13 180 c 0,16,17
 13 221 13 221 33.5 235 c 128,-1,18
 54 249 54 249 91 249 c 0,19,20
 116 249 116 249 131.5 244.5 c 128,-1,21
 147 240 147 240 155.5 232 c 128,-1,22
 164 224 164 224 166.5 213.5 c 128,-1,23
 169 203 169 203 169 191 c 0,24,25
 169 161 169 161 194 145.5 c 128,-1,26
 219 130 219 130 256 130 c 0,27,28
 299 130 299 130 323 152.5 c 128,-1,29
 347 175 347 175 347 224 c 2,30,-1
 347 243 l 2,31,32
 347 293 347 293 323.5 317 c 128,-1,33
 300 341 300 341 258 341 c 2,34,-1
 106 341 l 2,35,36
 71 341 71 341 58.5 357 c 128,-1,37
 46 373 46 373 46 402 c 0,38,39
 46 410 46 410 46.5 416.5 c 128,-1,40
 47 423 47 423 48 431 c 2,41,-1
 75 683 l 2,42,43
 77 706 77 706 83.5 718.5 c 128,-1,44
 90 731 90 731 103 731 c 2,45,-1
 422 731 l 2,46,47
 445 731 445 731 456 710 c 128,-1,48
 467 689 467 689 467 663 c 256,49,50
 467 637 467 637 456 616 c 128,-1,51
 445 595 445 595 422 595 c 2,52,-1
 203 595 l 1,53,-1
 193 461 l 1,54,-1
 258 461 l 2,0,1
EndSplineSet
EndChar
StartChar: six
Encoding: 54 54 360
Width: 562
Flags: W
LayerCount: 2
Back
Fore
SplineSet
320 449 m 0,0,1
 363 449 363 449 401 438.5 c 128,-1,2
 439 428 439 428 467.5 404 c 128,-1,3
 496 380 496 380 513 339.5 c 128,-1,4
 530 299 530 299 530 239 c 2,5,-1
 530 230 l 2,6,7
 530 165 530 165 511 120.5 c 128,-1,8
 492 76 492 76 459 47.5 c 128,-1,9
 426 19 426 19 381.5 6.5 c 128,-1,10
 337 -6 337 -6 285 -6 c 256,11,12
 233 -6 233 -6 188 6.5 c 128,-1,13
 143 19 143 19 110 47.5 c 128,-1,14
 77 76 77 76 58 120.5 c 128,-1,15
 39 165 39 165 39 230 c 2,16,-1
 39 495 l 2,17,18
 39 559 39 559 58.5 604 c 128,-1,19
 78 649 78 649 112.5 677.5 c 128,-1,20
 147 706 147 706 193.5 718.5 c 128,-1,21
 240 731 240 731 294 731 c 0,22,23
 357 731 357 731 402 713.5 c 128,-1,24
 447 696 447 696 475.5 668.5 c 128,-1,25
 504 641 504 641 517 607.5 c 128,-1,26
 530 574 530 574 530 543 c 0,27,28
 530 507 530 507 512.5 493.5 c 128,-1,29
 495 480 495 480 457 480 c 0,30,31
 441 480 441 480 426.5 482.5 c 128,-1,32
 412 485 412 485 400.5 491.5 c 128,-1,33
 389 498 389 498 382.5 509 c 128,-1,34
 376 520 376 520 376 537 c 0,35,36
 376 566 376 566 350 580.5 c 128,-1,37
 324 595 324 595 289 595 c 0,38,39
 244 595 244 595 219.5 571 c 128,-1,40
 195 547 195 547 195 495 c 2,41,-1
 195 405 l 1,42,43
 219 431 219 431 251.5 440 c 128,-1,44
 284 449 284 449 320 449 c 0,0,1
195 219 m 2,45,46
 195 167 195 167 219 143.5 c 128,-1,47
 243 120 243 120 285 120 c 256,48,49
 327 120 327 120 350.5 143.5 c 128,-1,50
 374 167 374 167 374 219 c 2,51,-1
 374 228 l 2,52,53
 374 283 374 283 350.5 306 c 128,-1,54
 327 329 327 329 284 329 c 0,55,56
 243 329 243 329 219 308 c 128,-1,57
 195 287 195 287 195 237 c 2,58,-1
 195 219 l 2,45,46
EndSplineSet
EndChar
StartChar: seven
Encoding: 55 55 356
Width: 512
Flags: W
LayerCount: 2
Back
Fore
SplineSet
503 558 m 2,0,1
 503 538 503 538 493 512 c 128,-1,2
 483 486 483 486 471 463 c 2,3,-1
 237 15 l 2,4,5
 226 -6 226 -6 193 -6 c 0,6,7
 175 -6 175 -6 157 0 c 128,-1,8
 139 6 139 6 125 16.5 c 128,-1,9
 111 27 111 27 102.5 41.5 c 128,-1,10
 94 56 94 56 94 73 c 0,11,12
 94 86 94 86 101 99 c 2,13,-1
 347 525 l 1,14,-1
 347 595 l 1,15,-1
 168 595 l 1,16,-1
 168 528 l 2,17,18
 168 508 168 508 144 494 c 128,-1,19
 120 480 120 480 89 480 c 0,20,21
 57 480 57 480 34.5 494 c 128,-1,22
 12 508 12 508 12 528 c 2,23,-1
 12 683 l 2,24,25
 12 701 12 701 33 716 c 128,-1,26
 54 731 54 731 80 731 c 2,27,-1
 435 731 l 2,28,29
 446 731 446 731 458 727 c 128,-1,30
 470 723 470 723 480 716 c 128,-1,31
 490 709 490 709 496.5 700.5 c 128,-1,32
 503 692 503 692 503 683 c 2,33,-1
 503 558 l 2,0,1
EndSplineSet
EndChar
StartChar: eight
Encoding: 56 56 202
Width: 545
Flags: W
LayerCount: 2
Back
Fore
SplineSet
273 731 m 256,0,1
 321 731 321 731 362 721 c 128,-1,2
 403 711 403 711 432 689 c 128,-1,3
 461 667 461 667 477.5 633.5 c 128,-1,4
 494 600 494 600 494 553 c 0,5,6
 494 490 494 490 467 452.5 c 128,-1,7
 440 415 440 415 395 400 c 1,8,9
 451 381 451 381 484.5 335.5 c 128,-1,10
 518 290 518 290 518 212 c 2,11,-1
 518 200 l 2,12,13
 518 144 518 144 499 105 c 128,-1,14
 480 66 480 66 447 41 c 128,-1,15
 414 16 414 16 369.5 5 c 128,-1,16
 325 -6 325 -6 273 -6 c 256,17,18
 221 -6 221 -6 176 5 c 128,-1,19
 131 16 131 16 98 41 c 128,-1,20
 65 66 65 66 46 105 c 128,-1,21
 27 144 27 144 27 200 c 2,22,-1
 27 212 l 2,23,24
 27 290 27 290 61 335.5 c 128,-1,25
 95 381 95 381 151 400 c 1,26,27
 106 415 106 415 79 452.5 c 128,-1,28
 52 490 52 490 52 553 c 0,29,30
 52 600 52 600 68.5 633.5 c 128,-1,31
 85 667 85 667 114 689 c 128,-1,32
 143 711 143 711 184 721 c 128,-1,33
 225 731 225 731 273 731 c 256,0,1
362 241 m 2,34,35
 362 290 362 290 338.5 313 c 128,-1,36
 315 336 315 336 273 336 c 256,37,38
 231 336 231 336 207 313 c 128,-1,39
 183 290 183 290 183 241 c 2,40,-1
 183 219 l 2,41,42
 183 167 183 167 207 143 c 128,-1,43
 231 119 231 119 273 119 c 0,44,45
 316 119 316 119 339 143.5 c 128,-1,46
 362 168 362 168 362 219 c 2,47,-1
 362 241 l 2,34,35
273 606 m 256,48,49
 239 606 239 606 220.5 588.5 c 128,-1,50
 202 571 202 571 202 533 c 0,51,52
 202 494 202 494 220.5 477.5 c 128,-1,53
 239 461 239 461 273 461 c 256,54,55
 307 461 307 461 325.5 477.5 c 128,-1,56
 344 494 344 494 344 533 c 0,57,58
 344 571 344 571 325.5 588.5 c 128,-1,59
 307 606 307 606 273 606 c 256,48,49
EndSplineSet
EndChar
StartChar: nine
Encoding: 57 57 285
Width: 563
Flags: W
LayerCount: 2
Back
Fore
SplineSet
243 276 m 0,0,1
 200 276 200 276 162 286.5 c 128,-1,2
 124 297 124 297 95.5 321 c 128,-1,3
 67 345 67 345 50 385.5 c 128,-1,4
 33 426 33 426 33 486 c 2,5,-1
 33 495 l 2,6,7
 33 559 33 559 52 604 c 128,-1,8
 71 649 71 649 104 677.5 c 128,-1,9
 137 706 137 706 181.5 718.5 c 128,-1,10
 226 731 226 731 278 731 c 256,11,12
 330 731 330 731 375 718.5 c 128,-1,13
 420 706 420 706 453 677.5 c 128,-1,14
 486 649 486 649 505 604 c 128,-1,15
 524 559 524 559 524 495 c 2,16,-1
 524 230 l 2,17,18
 524 165 524 165 504.5 120.5 c 128,-1,19
 485 76 485 76 450.5 47.5 c 128,-1,20
 416 19 416 19 369.5 6.5 c 128,-1,21
 323 -6 323 -6 269 -6 c 0,22,23
 206 -6 206 -6 161 11.5 c 128,-1,24
 116 29 116 29 87.5 56.5 c 128,-1,25
 59 84 59 84 46 117.5 c 128,-1,26
 33 151 33 151 33 182 c 0,27,28
 33 218 33 218 50.5 231.5 c 128,-1,29
 68 245 68 245 106 245 c 0,30,31
 122 245 122 245 136.5 242.5 c 128,-1,32
 151 240 151 240 162.5 233.5 c 128,-1,33
 174 227 174 227 180.5 216 c 128,-1,34
 187 205 187 205 187 188 c 0,35,36
 187 159 187 159 213 144.5 c 128,-1,37
 239 130 239 130 274 130 c 0,38,39
 319 130 319 130 343.5 154 c 128,-1,40
 368 178 368 178 368 230 c 2,41,-1
 368 320 l 1,42,43
 344 294 344 294 311.5 285 c 128,-1,44
 279 276 279 276 243 276 c 0,0,1
368 506 m 2,45,46
 368 558 368 558 344 581.5 c 128,-1,47
 320 605 320 605 278 605 c 256,48,49
 236 605 236 605 212.5 581.5 c 128,-1,50
 189 558 189 558 189 506 c 2,51,-1
 189 497 l 2,52,53
 189 442 189 442 212.5 419 c 128,-1,54
 236 396 236 396 279 396 c 0,55,56
 320 396 320 396 344 417 c 128,-1,57
 368 438 368 438 368 488 c 2,58,-1
 368 506 l 2,45,46
EndSplineSet
EndChar
StartChar: colon
Encoding: 58 58 177
Width: 225
Flags: W
LayerCount: 2
Back
Fore
SplineSet
113 148 m 0,0,1
 144 148 144 148 166.5 125.5 c 128,-1,2
 189 103 189 103 189 71 c 0,3,4
 189 40 189 40 166.5 17 c 128,-1,5
 144 -6 144 -6 113 -6 c 0,6,7
 80 -6 80 -6 58 17 c 128,-1,8
 36 40 36 40 36 71 c 0,9,10
 36 103 36 103 58 125.5 c 128,-1,11
 80 148 80 148 113 148 c 0,0,1
113 422 m 0,12,13
 144 422 144 422 166.5 399.5 c 128,-1,14
 189 377 189 377 189 345 c 0,15,16
 189 314 189 314 166.5 291 c 128,-1,17
 144 268 144 268 113 268 c 0,18,19
 80 268 80 268 58 291 c 128,-1,20
 36 314 36 314 36 345 c 0,21,22
 36 377 36 377 58 399.5 c 128,-1,23
 80 422 80 422 113 422 c 0,12,13
EndSplineSet
EndChar
StartChar: semicolon
Encoding: 59 59 355
Width: 225
Flags: W
LayerCount: 2
Back
Fore
SplineSet
109 148 m 256,0,1
 141 148 141 148 163.5 125.5 c 128,-1,2
 186 103 186 103 186 72 c 0,3,4
 186 67 186 67 184.5 61 c 128,-1,5
 183 55 183 55 177 39 c 128,-1,6
 171 23 171 23 158.5 -7 c 128,-1,7
 146 -37 146 -37 124 -88 c 0,8,9
 119 -99 119 -99 110.5 -102.5 c 128,-1,10
 102 -106 102 -106 94 -106 c 0,11,12
 78 -106 78 -106 61 -96 c 128,-1,13
 44 -86 44 -86 44 -67 c 0,14,15
 44 -59 44 -59 48 -51 c 2,16,-1
 73 3 l 1,17,18
 55 14 55 14 44 31.5 c 128,-1,19
 33 49 33 49 33 71 c 0,20,21
 33 103 33 103 55 125.5 c 128,-1,22
 77 148 77 148 109 148 c 256,0,1
116 422 m 0,23,24
 147 422 147 422 169.5 399.5 c 128,-1,25
 192 377 192 377 192 345 c 0,26,27
 192 314 192 314 169.5 291 c 128,-1,28
 147 268 147 268 116 268 c 0,29,30
 83 268 83 268 61 291 c 128,-1,31
 39 314 39 314 39 345 c 0,32,33
 39 377 39 377 61 399.5 c 128,-1,34
 83 422 83 422 116 422 c 0,23,24
EndSplineSet
EndChar
StartChar: less
Encoding: 60 60 269
Width: 427
Flags: W
LayerCount: 2
Back
Fore
SplineSet
19 277 m 256,0,1
 19 290 19 290 26 306 c 128,-1,2
 33 322 33 322 50 333 c 2,3,-1
 304 498 l 2,4,5
 310 503 310 503 323 503 c 0,6,7
 334 503 334 503 346 497.5 c 128,-1,8
 358 492 358 492 368 482 c 128,-1,9
 378 472 378 472 384.5 458.5 c 128,-1,10
 391 445 391 445 391 430 c 0,11,12
 391 402 391 402 373 391 c 2,13,-1
 197 277 l 1,14,-1
 373 163 l 2,15,16
 391 152 391 152 391 124 c 0,17,18
 391 109 391 109 384.5 95.5 c 128,-1,19
 378 82 378 82 368 72 c 128,-1,20
 358 62 358 62 346 56.5 c 128,-1,21
 334 51 334 51 323 51 c 0,22,23
 310 51 310 51 304 56 c 2,24,-1
 50 221 l 2,25,26
 33 232 33 232 26 248 c 128,-1,27
 19 264 19 264 19 277 c 256,0,1
EndSplineSet
EndChar
StartChar: equal
Encoding: 61 61 211
Width: 448
Flags: W
LayerCount: 2
Back
Fore
SplineSet
47 135 m 0,0,1
 47 162 47 162 60 180.5 c 128,-1,2
 73 199 73 199 94 199 c 2,3,-1
 354 199 l 2,4,5
 372 199 372 199 387 180.5 c 128,-1,6
 402 162 402 162 402 135 c 0,7,8
 402 106 402 106 387 89 c 128,-1,9
 372 72 372 72 354 72 c 2,10,-1
 94 72 l 2,11,12
 73 72 73 72 60 89 c 128,-1,13
 47 106 47 106 47 135 c 0,0,1
47 338 m 0,14,15
 47 365 47 365 60 383.5 c 128,-1,16
 73 402 73 402 94 402 c 2,17,-1
 354 402 l 2,18,19
 372 402 372 402 387 383.5 c 128,-1,20
 402 365 402 365 402 338 c 0,21,22
 402 309 402 309 387 292 c 128,-1,23
 372 275 372 275 354 275 c 2,24,-1
 94 275 l 2,25,26
 73 275 73 275 60 292 c 128,-1,27
 47 309 47 309 47 338 c 0,14,15
EndSplineSet
EndChar
StartChar: greater
Encoding: 62 62 236
Width: 427
Flags: W
LayerCount: 2
Back
Fore
SplineSet
408 277 m 256,0,1
 408 264 408 264 401 248 c 128,-1,2
 394 232 394 232 377 221 c 2,3,-1
 123 56 l 2,4,5
 117 51 117 51 104 51 c 0,6,7
 93 51 93 51 81 56.5 c 128,-1,8
 69 62 69 62 59 72 c 128,-1,9
 49 82 49 82 42.5 95.5 c 128,-1,10
 36 109 36 109 36 124 c 0,11,12
 36 152 36 152 54 163 c 2,13,-1
 230 277 l 1,14,-1
 54 391 l 2,15,16
 36 402 36 402 36 430 c 0,17,18
 36 445 36 445 42.5 458.5 c 128,-1,19
 49 472 49 472 59 482 c 128,-1,20
 69 492 69 492 81 497.5 c 128,-1,21
 93 503 93 503 104 503 c 0,22,23
 117 503 117 503 123 498 c 2,24,-1
 377 333 l 2,25,26
 394 322 394 322 401 306 c 128,-1,27
 408 290 408 290 408 277 c 256,0,1
EndSplineSet
EndChar
StartChar: question
Encoding: 63 63 329
Width: 453
Flags: W
LayerCount: 2
Back
Fore
SplineSet
430 566 m 256,0,1
 430 531 430 531 416.5 501 c 128,-1,2
 403 471 403 471 384.5 447.5 c 128,-1,3
 366 424 366 424 347 407.5 c 128,-1,4
 328 391 328 391 318 383 c 0,5,6
 297 367 297 367 286 352.5 c 128,-1,7
 275 338 275 338 269.5 323.5 c 128,-1,8
 264 309 264 309 263 293 c 128,-1,9
 262 277 262 277 262 258 c 0,10,11
 262 244 262 244 251 230.5 c 128,-1,12
 240 217 240 217 203 217 c 0,13,14
 172 217 172 217 160 231 c 128,-1,15
 148 245 148 245 148 284 c 0,16,17
 148 316 148 316 154.5 340.5 c 128,-1,18
 161 365 161 365 170.5 383 c 128,-1,19
 180 401 180 401 192 414 c 128,-1,20
 204 427 204 427 215 436 c 0,21,22
 227 446 227 446 242.5 457.5 c 128,-1,23
 258 469 258 469 271.5 482.5 c 128,-1,24
 285 496 285 496 294.5 512.5 c 128,-1,25
 304 529 304 529 304 549 c 0,26,27
 304 584 304 584 278 600.5 c 128,-1,28
 252 617 252 617 214 617 c 256,29,30
 176 617 176 617 157.5 605 c 128,-1,31
 139 593 139 593 128.5 578.5 c 128,-1,32
 118 564 118 564 109 552 c 128,-1,33
 100 540 100 540 80 540 c 0,34,35
 70 540 70 540 59.5 543.5 c 128,-1,36
 49 547 49 547 40 554 c 128,-1,37
 31 561 31 561 25.5 571.5 c 128,-1,38
 20 582 20 582 20 597 c 0,39,40
 20 617 20 617 32 640.5 c 128,-1,41
 44 664 44 664 68 684 c 128,-1,42
 92 704 92 704 129 717.5 c 128,-1,43
 166 731 166 731 217 731 c 0,44,45
 265 731 265 731 304.5 718.5 c 128,-1,46
 344 706 344 706 371.5 684 c 128,-1,47
 399 662 399 662 414.5 631.5 c 128,-1,48
 430 601 430 601 430 566 c 256,0,1
204 148 m 256,49,50
 236 148 236 148 258.5 125.5 c 128,-1,51
 281 103 281 103 281 71 c 0,52,53
 281 56 281 56 275 42 c 128,-1,54
 269 28 269 28 258.5 17.5 c 128,-1,55
 248 7 248 7 234 0.5 c 128,-1,56
 220 -6 220 -6 204 -6 c 0,57,58
 172 -6 172 -6 150 17 c 128,-1,59
 128 40 128 40 128 71 c 0,60,61
 128 103 128 103 150 125.5 c 128,-1,62
 172 148 172 148 204 148 c 256,49,50
EndSplineSet
EndChar
StartChar: at
Encoding: 64 64 153
Width: 753
Flags: W
LayerCount: 2
Back
Fore
SplineSet
234 358 m 0,0,1
 234 373 234 373 247 386.5 c 128,-1,2
 260 400 260 400 281.5 410 c 128,-1,3
 303 420 303 420 329.5 426 c 128,-1,4
 356 432 356 432 383 432 c 0,5,6
 415 432 415 432 445.5 423.5 c 128,-1,7
 476 415 476 415 499.5 398 c 128,-1,8
 523 381 523 381 537.5 355.5 c 128,-1,9
 552 330 552 330 552 296 c 2,10,-1
 552 125 l 1,11,12
 557 97 557 97 563 87.5 c 128,-1,13
 569 78 569 78 580 78 c 0,14,15
 599 78 599 78 609.5 93 c 128,-1,16
 620 108 620 108 625.5 130 c 128,-1,17
 631 152 631 152 632.5 175 c 128,-1,18
 634 198 634 198 634 215 c 0,19,20
 634 350 634 350 575.5 420.5 c 128,-1,21
 517 491 517 491 389 491 c 0,22,23
 314 491 314 491 264.5 468 c 128,-1,24
 215 445 215 445 185.5 406 c 128,-1,25
 156 367 156 367 144 315.5 c 128,-1,26
 132 264 132 264 132 207 c 0,27,28
 132 154 132 154 142.5 105.5 c 128,-1,29
 153 57 153 57 179 20.5 c 128,-1,30
 205 -16 205 -16 249 -37.5 c 128,-1,31
 293 -59 293 -59 359 -59 c 0,32,33
 388 -59 388 -59 408.5 -55.5 c 128,-1,34
 429 -52 429 -52 444 -47.5 c 128,-1,35
 459 -43 459 -43 469 -39 c 128,-1,36
 479 -35 479 -35 488 -35 c 256,37,38
 497 -35 497 -35 504 -40 c 128,-1,39
 511 -45 511 -45 515.5 -51.5 c 128,-1,40
 520 -58 520 -58 522.5 -65.5 c 128,-1,41
 525 -73 525 -73 525 -79 c 0,42,43
 525 -97 525 -97 504.5 -109.5 c 128,-1,44
 484 -122 484 -122 454.5 -129.5 c 128,-1,45
 425 -137 425 -137 393.5 -140 c 128,-1,46
 362 -143 362 -143 340 -143 c 0,47,48
 281 -143 281 -143 226 -121.5 c 128,-1,49
 171 -100 171 -100 128.5 -56.5 c 128,-1,50
 86 -13 86 -13 60.5 52.5 c 128,-1,51
 35 118 35 118 35 206 c 0,52,53
 35 284 35 284 56.5 351.5 c 128,-1,54
 78 419 78 419 122 468.5 c 128,-1,55
 166 518 166 518 232.5 546.5 c 128,-1,56
 299 575 299 575 388 575 c 0,57,58
 469 575 469 575 532.5 551.5 c 128,-1,59
 596 528 596 528 640 484 c 128,-1,60
 684 440 684 440 707 378 c 128,-1,61
 730 316 730 316 730 240 c 0,62,63
 730 191 730 191 720.5 148 c 128,-1,64
 711 105 711 105 691 73 c 128,-1,65
 671 41 671 41 641 22.5 c 128,-1,66
 611 4 611 4 571 4 c 0,67,68
 526 4 526 4 497.5 25.5 c 128,-1,69
 469 47 469 47 463 80 c 1,70,71
 439 48 439 48 408.5 27.5 c 128,-1,72
 378 7 378 7 337 7 c 0,73,74
 315 7 315 7 292.5 14 c 128,-1,75
 270 21 270 21 252 35.5 c 128,-1,76
 234 50 234 50 223 72.5 c 128,-1,77
 212 95 212 95 212 125 c 0,78,79
 212 161 212 161 227.5 185 c 128,-1,80
 243 209 243 209 270.5 224 c 128,-1,81
 298 239 298 239 335 245.5 c 128,-1,82
 372 252 372 252 415 252 c 2,83,-1
 442 252 l 1,84,-1
 442 265 l 2,85,86
 442 329 442 329 368 329 c 0,87,88
 346 329 346 329 330 324.5 c 128,-1,89
 314 320 314 320 303 315 c 128,-1,90
 292 310 292 310 284 305.5 c 128,-1,91
 276 301 276 301 269 301 c 0,92,93
 261 301 261 301 255 307 c 128,-1,94
 249 313 249 313 244 322 c 128,-1,95
 239 331 239 331 236.5 341 c 128,-1,96
 234 351 234 351 234 358 c 0,0,1
448 190 m 1,97,-1
 430 190 l 2,98,99
 334 190 334 190 334 127 c 0,100,101
 334 86 334 86 368 86 c 0,102,103
 382 86 382 86 396 93 c 128,-1,104
 410 100 410 100 421.5 111.5 c 128,-1,105
 433 123 433 123 440.5 137.5 c 128,-1,106
 448 152 448 152 448 168 c 2,107,-1
 448 190 l 1,97,-1
EndSplineSet
EndChar
StartChar: A
Encoding: 65 65 1
Width: 589
Flags: W
LayerCount: 2
Back
Fore
SplineSet
104 0 m 0,0,1
 88 0 88 0 70.5 5 c 128,-1,2
 53 10 53 10 38 18.5 c 128,-1,3
 23 27 23 27 13.5 38.5 c 128,-1,4
 4 50 4 50 4 64 c 0,5,6
 4 67 4 67 6 75 c 2,7,-1
 192 685 l 2,8,9
 200 711 200 711 229.5 724 c 128,-1,10
 259 737 259 737 294 737 c 256,11,12
 329 737 329 737 358.5 724 c 128,-1,13
 388 711 388 711 396 685 c 2,14,-1
 583 75 l 2,15,16
 585 67 585 67 585 64 c 0,17,18
 585 50 585 50 575.5 38.5 c 128,-1,19
 566 27 566 27 551 18.5 c 128,-1,20
 536 10 536 10 518.5 5 c 128,-1,21
 501 0 501 0 485 0 c 0,22,23
 466 0 466 0 452.5 6.5 c 128,-1,24
 439 13 439 13 434 29 c 2,25,-1
 400 154 l 1,26,-1
 189 154 l 1,27,-1
 155 29 l 2,28,29
 150 13 150 13 136.5 6.5 c 128,-1,30
 123 0 123 0 104 0 c 0,0,1
367 274 m 1,31,-1
 294 542 l 1,32,-1
 221 274 l 1,33,-1
 367 274 l 1,31,-1
EndSplineSet
EndChar
StartChar: B
Encoding: 66 66 13
Width: 572
Flags: W
LayerCount: 2
Back
Fore
SplineSet
54 683 m 2,0,1
 54 707 54 707 75 719 c 128,-1,2
 96 731 96 731 122 731 c 2,3,-1
 327 731 l 2,4,5
 364 731 364 731 400 723 c 128,-1,6
 436 715 436 715 464.5 695 c 128,-1,7
 493 675 493 675 510 640.5 c 128,-1,8
 527 606 527 606 527 553 c 0,9,10
 527 492 527 492 504.5 452.5 c 128,-1,11
 482 413 482 413 442 396 c 1,12,13
 465 387 465 387 484 375 c 128,-1,14
 503 363 503 363 516.5 344.5 c 128,-1,15
 530 326 530 326 537.5 299.5 c 128,-1,16
 545 273 545 273 545 236 c 2,17,-1
 545 215 l 2,18,19
 545 156 545 156 529.5 115 c 128,-1,20
 514 74 514 74 487 48.5 c 128,-1,21
 460 23 460 23 423 11.5 c 128,-1,22
 386 0 386 0 344 0 c 2,23,-1
 122 0 l 2,24,25
 90 0 90 0 72 14 c 128,-1,26
 54 28 54 28 54 47 c 2,27,-1
 54 683 l 2,0,1
309 136 m 2,28,29
 347 136 347 136 368 158 c 128,-1,30
 389 180 389 180 389 228 c 2,31,-1
 389 244 l 2,32,33
 389 295 389 295 368 315.5 c 128,-1,34
 347 336 347 336 309 336 c 2,35,-1
 209 336 l 1,36,-1
 209 136 l 1,37,-1
 309 136 l 2,28,29
209 456 m 1,38,-1
 314 456 l 2,39,40
 343 456 343 456 357 477.5 c 128,-1,41
 371 499 371 499 371 525 c 256,42,43
 371 551 371 551 357 573 c 128,-1,44
 343 595 343 595 314 595 c 2,45,-1
 209 595 l 1,46,-1
 209 456 l 1,38,-1
EndSplineSet
EndChar
StartChar: C
Encoding: 67 67 14
Width: 562
Flags: W
LayerCount: 2
Back
Fore
SplineSet
381 505 m 0,0,1
 381 515 381 515 379 530 c 128,-1,2
 377 545 377 545 368 559.5 c 128,-1,3
 359 574 359 574 341.5 584.5 c 128,-1,4
 324 595 324 595 292 595 c 0,5,6
 249 595 249 595 225.5 570.5 c 128,-1,7
 202 546 202 546 202 495 c 2,8,-1
 202 230 l 2,9,10
 202 179 202 179 225.5 154.5 c 128,-1,11
 249 130 249 130 293 130 c 0,12,13
 323 130 323 130 340 140 c 128,-1,14
 357 150 357 150 366 165 c 128,-1,15
 375 180 375 180 377.5 197.5 c 128,-1,16
 380 215 380 215 381 230 c 0,17,18
 383 258 383 258 405.5 267.5 c 128,-1,19
 428 277 428 277 458 277 c 0,20,21
 499 277 499 277 518 262.5 c 128,-1,22
 537 248 537 248 537 203 c 0,23,24
 537 153 537 153 518 114 c 128,-1,25
 499 75 499 75 465 48.5 c 128,-1,26
 431 22 431 22 385.5 8 c 128,-1,27
 340 -6 340 -6 286 -6 c 0,28,29
 237 -6 237 -6 193.5 6.5 c 128,-1,30
 150 19 150 19 117 47.5 c 128,-1,31
 84 76 84 76 65 120.5 c 128,-1,32
 46 165 46 165 46 230 c 2,33,-1
 46 495 l 2,34,35
 46 559 46 559 65 604 c 128,-1,36
 84 649 84 649 117 677.5 c 128,-1,37
 150 706 150 706 193.5 718.5 c 128,-1,38
 237 731 237 731 286 731 c 0,39,40
 340 731 340 731 385.5 718 c 128,-1,41
 431 705 431 705 465 679.5 c 128,-1,42
 499 654 499 654 518 617 c 128,-1,43
 537 580 537 580 537 532 c 0,44,45
 537 487 537 487 518 472.5 c 128,-1,46
 499 458 499 458 459 458 c 0,47,48
 427 458 427 458 405 468 c 128,-1,49
 383 478 383 478 381 505 c 0,0,1
EndSplineSet
EndChar
StartChar: D
Encoding: 68 68 21
Width: 590
Flags: W
LayerCount: 2
Back
Fore
SplineSet
299 731 m 2,0,1
 351 731 351 731 396 718.5 c 128,-1,2
 441 706 441 706 474 677.5 c 128,-1,3
 507 649 507 649 526 604 c 128,-1,4
 545 559 545 559 545 495 c 2,5,-1
 545 236 l 2,6,7
 545 171 545 171 526 126.5 c 128,-1,8
 507 82 507 82 474 53.5 c 128,-1,9
 441 25 441 25 396 12.5 c 128,-1,10
 351 0 351 0 299 0 c 2,11,-1
 122 0 l 2,12,13
 91 0 91 0 72.5 14 c 128,-1,14
 54 28 54 28 54 47 c 2,15,-1
 54 684 l 2,16,17
 54 703 54 703 72.5 717 c 128,-1,18
 91 731 91 731 122 731 c 2,19,-1
 299 731 l 2,0,1
210 595 m 1,20,-1
 210 136 l 1,21,-1
 299 136 l 2,22,23
 341 136 341 136 365 160.5 c 128,-1,24
 389 185 389 185 389 236 c 2,25,-1
 389 495 l 2,26,27
 389 546 389 546 365 570.5 c 128,-1,28
 341 595 341 595 299 595 c 2,29,-1
 210 595 l 1,20,-1
EndSplineSet
EndChar
StartChar: E
Encoding: 69 69 25
Width: 539
Flags: W
LayerCount: 2
Back
Fore
SplineSet
210 426 m 1,0,-1
 360 426 l 2,1,2
 383 426 383 426 395 407.5 c 128,-1,3
 407 389 407 389 407 365 c 0,4,5
 407 345 407 345 396 325.5 c 128,-1,6
 385 306 385 306 360 306 c 2,7,-1
 210 306 l 1,8,-1
 210 136 l 1,9,-1
 478 136 l 2,10,11
 501 136 501 136 513 115.5 c 128,-1,12
 525 95 525 95 525 67 c 0,13,14
 525 43 525 43 514 21.5 c 128,-1,15
 503 0 503 0 478 0 c 2,16,-1
 122 0 l 2,17,18
 96 0 96 0 75 12 c 128,-1,19
 54 24 54 24 54 48 c 2,20,-1
 54 683 l 2,21,22
 54 707 54 707 75 719 c 128,-1,23
 96 731 96 731 122 731 c 2,24,-1
 478 731 l 2,25,26
 503 731 503 731 514 709.5 c 128,-1,27
 525 688 525 688 525 664 c 0,28,29
 525 636 525 636 513 615.5 c 128,-1,30
 501 595 501 595 478 595 c 2,31,-1
 210 595 l 1,32,-1
 210 426 l 1,0,-1
EndSplineSet
EndChar
StartChar: F
Encoding: 70 70 38
Width: 515
Flags: W
LayerCount: 2
Back
Fore
SplineSet
54 683 m 2,0,1
 54 707 54 707 75 719 c 128,-1,2
 96 731 96 731 122 731 c 2,3,-1
 469 731 l 2,4,5
 494 731 494 731 505 709.5 c 128,-1,6
 516 688 516 688 516 664 c 0,7,8
 516 636 516 636 504 615.5 c 128,-1,9
 492 595 492 595 469 595 c 2,10,-1
 210 595 l 1,11,-1
 210 426 l 1,12,-1
 361 426 l 2,13,14
 384 426 384 426 396 407.5 c 128,-1,15
 408 389 408 389 408 365 c 0,16,17
 408 345 408 345 397 325.5 c 128,-1,18
 386 306 386 306 361 306 c 2,19,-1
 210 306 l 1,20,-1
 210 48 l 2,21,22
 210 24 210 24 185.5 12 c 128,-1,23
 161 0 161 0 132 0 c 256,24,25
 103 0 103 0 78.5 12 c 128,-1,26
 54 24 54 24 54 48 c 2,27,-1
 54 683 l 2,0,1
EndSplineSet
EndChar
StartChar: G
Encoding: 71 71 39
Width: 573
Flags: W
LayerCount: 2
Back
Fore
SplineSet
381 505 m 0,0,1
 381 518 381 518 379 534 c 128,-1,2
 377 550 377 550 368 563.5 c 128,-1,3
 359 577 359 577 341.5 586 c 128,-1,4
 324 595 324 595 292 595 c 0,5,6
 249 595 249 595 225.5 570.5 c 128,-1,7
 202 546 202 546 202 495 c 2,8,-1
 202 230 l 2,9,10
 202 179 202 179 225.5 154.5 c 128,-1,11
 249 130 249 130 291 130 c 256,12,13
 333 130 333 130 357 154.5 c 128,-1,14
 381 179 381 179 381 230 c 2,15,-1
 381 264 l 1,16,-1
 322 264 l 2,17,18
 299 264 299 264 287 282.5 c 128,-1,19
 275 301 275 301 275 324 c 0,20,21
 275 346 275 346 287 365 c 128,-1,22
 299 384 299 384 322 384 c 2,23,-1
 490 384 l 2,24,25
 513 384 513 384 525 369.5 c 128,-1,26
 537 355 537 355 537 335 c 2,27,-1
 537 230 l 2,28,29
 537 165 537 165 518 120.5 c 128,-1,30
 499 76 499 76 466 47.5 c 128,-1,31
 433 19 433 19 388 6.5 c 128,-1,32
 343 -6 343 -6 291 -6 c 256,33,34
 239 -6 239 -6 194.5 6.5 c 128,-1,35
 150 19 150 19 117 47.5 c 128,-1,36
 84 76 84 76 65 120.5 c 128,-1,37
 46 165 46 165 46 230 c 2,38,-1
 46 495 l 2,39,40
 46 559 46 559 65 604 c 128,-1,41
 84 649 84 649 117 677.5 c 128,-1,42
 150 706 150 706 193.5 718.5 c 128,-1,43
 237 731 237 731 286 731 c 0,44,45
 340 731 340 731 385.5 718 c 128,-1,46
 431 705 431 705 465 679.5 c 128,-1,47
 499 654 499 654 518 617 c 128,-1,48
 537 580 537 580 537 532 c 0,49,50
 537 487 537 487 518 472.5 c 128,-1,51
 499 458 499 458 459 458 c 0,52,53
 427 458 427 458 404.5 468 c 128,-1,54
 382 478 382 478 381 505 c 0,0,1
EndSplineSet
EndChar
StartChar: H
Encoding: 72 72 44
Width: 619
Flags: W
LayerCount: 2
Back
Fore
SplineSet
409 319 m 1,0,-1
 210 319 l 1,1,-1
 210 48 l 2,2,3
 210 24 210 24 185.5 12 c 128,-1,4
 161 0 161 0 132 0 c 256,5,6
 103 0 103 0 78.5 12 c 128,-1,7
 54 24 54 24 54 48 c 2,8,-1
 54 684 l 2,9,10
 54 709 54 709 78.5 720 c 128,-1,11
 103 731 103 731 132 731 c 256,12,13
 161 731 161 731 185.5 720 c 128,-1,14
 210 709 210 709 210 684 c 2,15,-1
 210 439 l 1,16,-1
 409 439 l 1,17,-1
 409 684 l 2,18,19
 409 709 409 709 433.5 720 c 128,-1,20
 458 731 458 731 487 731 c 256,21,22
 516 731 516 731 540.5 720 c 128,-1,23
 565 709 565 709 565 684 c 2,24,-1
 565 48 l 2,25,26
 565 24 565 24 540.5 12 c 128,-1,27
 516 0 516 0 487 0 c 256,28,29
 458 0 458 0 433.5 12 c 128,-1,30
 409 24 409 24 409 48 c 2,31,-1
 409 319 l 1,0,-1
EndSplineSet
EndChar
StartChar: I
Encoding: 73 73 47
Width: 264
Flags: W
LayerCount: 2
Back
Fore
SplineSet
54 684 m 2,0,1
 54 709 54 709 78.5 720 c 128,-1,2
 103 731 103 731 132 731 c 256,3,4
 161 731 161 731 185.5 720 c 128,-1,5
 210 709 210 709 210 684 c 2,6,-1
 210 48 l 2,7,8
 210 24 210 24 185.5 12 c 128,-1,9
 161 0 161 0 132 0 c 256,10,11
 103 0 103 0 78.5 12 c 128,-1,12
 54 24 54 24 54 48 c 2,13,-1
 54 684 l 2,0,1
EndSplineSet
EndChar
StartChar: J
Encoding: 74 74 58
Width: 548
Flags: W
LayerCount: 2
Back
Fore
SplineSet
254 595 m 2,0,1
 231 595 231 595 219 615.5 c 128,-1,2
 207 636 207 636 207 664 c 0,3,4
 207 688 207 688 218 709.5 c 128,-1,5
 229 731 229 731 254 731 c 2,6,-1
 429 731 l 2,7,8
 455 731 455 731 476 719 c 128,-1,9
 497 707 497 707 497 683 c 2,10,-1
 497 230 l 2,11,12
 497 165 497 165 478 120.5 c 128,-1,13
 459 76 459 76 426 47.5 c 128,-1,14
 393 19 393 19 349.5 6.5 c 128,-1,15
 306 -6 306 -6 257 -6 c 0,16,17
 203 -6 203 -6 157.5 8 c 128,-1,18
 112 22 112 22 78 48.5 c 128,-1,19
 44 75 44 75 25 114 c 128,-1,20
 6 153 6 153 6 203 c 0,21,22
 6 248 6 248 25 262.5 c 128,-1,23
 44 277 44 277 85 277 c 0,24,25
 115 277 115 277 137.5 267.5 c 128,-1,26
 160 258 160 258 162 230 c 0,27,28
 163 215 163 215 165.5 197.5 c 128,-1,29
 168 180 168 180 177 165 c 128,-1,30
 186 150 186 150 203 140 c 128,-1,31
 220 130 220 130 250 130 c 0,32,33
 294 130 294 130 317.5 154.5 c 128,-1,34
 341 179 341 179 341 230 c 2,35,-1
 341 595 l 1,36,-1
 254 595 l 2,0,1
EndSplineSet
EndChar
StartChar: K
Encoding: 75 75 60
Width: 566
Flags: W
LayerCount: 2
Back
Fore
SplineSet
54 684 m 2,0,1
 54 709 54 709 78.5 720 c 128,-1,2
 103 731 103 731 132 731 c 256,3,4
 161 731 161 731 185.5 720 c 128,-1,5
 210 709 210 709 210 684 c 2,6,-1
 210 444 l 1,7,-1
 397 709 l 2,8,9
 412 731 412 731 438 731 c 0,10,11
 453 731 453 731 469 724 c 128,-1,12
 485 717 485 717 498.5 705.5 c 128,-1,13
 512 694 512 694 521 680 c 128,-1,14
 530 666 530 666 530 651 c 0,15,16
 530 645 530 645 528 637 c 128,-1,17
 526 629 526 629 520 621 c 2,18,-1
 356 415 l 1,19,-1
 563 98 l 2,20,21
 571 85 571 85 571 72 c 0,22,23
 571 57 571 57 562.5 43 c 128,-1,24
 554 29 554 29 540.5 18 c 128,-1,25
 527 7 527 7 510.5 0.5 c 128,-1,26
 494 -6 494 -6 477 -6 c 0,27,28
 461 -6 461 -6 447 0.5 c 128,-1,29
 433 7 433 7 423 23 c 2,30,-1
 252 283 l 1,31,-1
 210 229 l 1,32,-1
 210 48 l 2,33,34
 210 24 210 24 185.5 12 c 128,-1,35
 161 0 161 0 132 0 c 256,36,37
 103 0 103 0 78.5 12 c 128,-1,38
 54 24 54 24 54 48 c 2,39,-1
 54 684 l 2,0,1
EndSplineSet
EndChar
StartChar: L
Encoding: 76 76 62
Width: 492
Flags: W
LayerCount: 2
Back
Fore
SplineSet
122 0 m 2,0,1
 96 0 96 0 75 12 c 128,-1,2
 54 24 54 24 54 48 c 2,3,-1
 54 684 l 2,4,5
 54 709 54 709 78.5 720 c 128,-1,6
 103 731 103 731 132 731 c 256,7,8
 161 731 161 731 185.5 720 c 128,-1,9
 210 709 210 709 210 684 c 2,10,-1
 210 136 l 1,11,-1
 438 136 l 2,12,13
 461 136 461 136 472 115 c 128,-1,14
 483 94 483 94 483 68 c 256,15,16
 483 42 483 42 472 21 c 128,-1,17
 461 0 461 0 438 0 c 2,18,-1
 122 0 l 2,0,1
EndSplineSet
EndChar
StartChar: M
Encoding: 77 77 68
Width: 712
Flags: W
LayerCount: 2
Back
Fore
SplineSet
406 259 m 2,0,1
 396 242 396 242 382 236 c 128,-1,2
 368 230 368 230 354 230 c 256,3,4
 340 230 340 230 327 236 c 128,-1,5
 314 242 314 242 305 259 c 2,6,-1
 210 433 l 1,7,-1
 210 48 l 2,8,9
 210 24 210 24 185.5 12 c 128,-1,10
 161 0 161 0 132 0 c 256,11,12
 103 0 103 0 78.5 12 c 128,-1,13
 54 24 54 24 54 48 c 2,14,-1
 54 653 l 2,15,16
 54 674 54 674 60.5 689 c 128,-1,17
 67 704 67 704 78 713.5 c 128,-1,18
 89 723 89 723 103 727 c 128,-1,19
 117 731 117 731 132 731 c 0,20,21
 153 731 153 731 169 729 c 128,-1,22
 185 727 185 727 198.5 719 c 128,-1,23
 212 711 212 711 225 695.5 c 128,-1,24
 238 680 238 680 253 653 c 2,25,-1
 356 473 l 1,26,-1
 459 653 l 2,27,28
 474 680 474 680 487 695.5 c 128,-1,29
 500 711 500 711 513.5 719 c 128,-1,30
 527 727 527 727 543 729 c 128,-1,31
 559 731 559 731 580 731 c 0,32,33
 610 731 610 731 634 713.5 c 128,-1,34
 658 696 658 696 658 653 c 2,35,-1
 658 48 l 2,36,37
 658 24 658 24 633.5 12 c 128,-1,38
 609 0 609 0 580 0 c 256,39,40
 551 0 551 0 526.5 12 c 128,-1,41
 502 24 502 24 502 48 c 2,42,-1
 502 423 l 1,43,-1
 406 259 l 2,0,1
EndSplineSet
EndChar
StartChar: N
Encoding: 78 78 69
Width: 619
Flags: W
LayerCount: 2
Back
Fore
SplineSet
487 0 m 0,0,1
 460 0 460 0 437 8 c 128,-1,2
 414 16 414 16 400 42 c 2,3,-1
 210 388 l 1,4,-1
 210 48 l 2,5,6
 210 24 210 24 185.5 12 c 128,-1,7
 161 0 161 0 132 0 c 256,8,9
 103 0 103 0 78.5 12 c 128,-1,10
 54 24 54 24 54 48 c 2,11,-1
 54 683 l 2,12,13
 54 708 54 708 78.5 719.5 c 128,-1,14
 103 731 103 731 132 731 c 0,15,16
 153 731 153 731 168 729 c 128,-1,17
 183 727 183 727 196 719.5 c 128,-1,18
 209 712 209 712 221 696 c 128,-1,19
 233 680 233 680 247 653 c 2,20,-1
 409 344 l 1,21,-1
 409 684 l 2,22,23
 409 709 409 709 433.5 720 c 128,-1,24
 458 731 458 731 487 731 c 256,25,26
 516 731 516 731 540.5 720 c 128,-1,27
 565 709 565 709 565 684 c 2,28,-1
 565 48 l 2,29,30
 565 24 565 24 540.5 12 c 128,-1,31
 516 0 516 0 487 0 c 0,0,1
EndSplineSet
EndChar
StartChar: O
Encoding: 79 79 74
Width: 583
Flags: W
LayerCount: 2
Back
Fore
SplineSet
291 -6 m 256,0,1
 239 -6 239 -6 194.5 6.5 c 128,-1,2
 150 19 150 19 117 47.5 c 128,-1,3
 84 76 84 76 65 120.5 c 128,-1,4
 46 165 46 165 46 230 c 2,5,-1
 46 495 l 2,6,7
 46 559 46 559 65 604 c 128,-1,8
 84 649 84 649 117 677.5 c 128,-1,9
 150 706 150 706 194.5 718.5 c 128,-1,10
 239 731 239 731 291 731 c 256,11,12
 343 731 343 731 388 718.5 c 128,-1,13
 433 706 433 706 466 677.5 c 128,-1,14
 499 649 499 649 518 604 c 128,-1,15
 537 559 537 559 537 495 c 2,16,-1
 537 230 l 2,17,18
 537 165 537 165 518 120.5 c 128,-1,19
 499 76 499 76 466 47.5 c 128,-1,20
 433 19 433 19 388 6.5 c 128,-1,21
 343 -6 343 -6 291 -6 c 256,0,1
381 495 m 2,22,23
 381 547 381 547 357 571 c 128,-1,24
 333 595 333 595 291 595 c 256,25,26
 249 595 249 595 225.5 571 c 128,-1,27
 202 547 202 547 202 495 c 2,28,-1
 202 230 l 2,29,30
 202 178 202 178 225.5 154 c 128,-1,31
 249 130 249 130 291 130 c 256,32,33
 333 130 333 130 357 154 c 128,-1,34
 381 178 381 178 381 230 c 2,35,-1
 381 495 l 2,22,23
EndSplineSet
EndChar
StartChar: P
Encoding: 80 80 87
Width: 569
Flags: W
LayerCount: 2
Back
Fore
SplineSet
54 684 m 2,0,1
 54 703 54 703 70 717 c 128,-1,2
 86 731 86 731 112 731 c 2,3,-1
 319 731 l 2,4,5
 368 731 368 731 411.5 718.5 c 128,-1,6
 455 706 455 706 486.5 679 c 128,-1,7
 518 652 518 652 536.5 608 c 128,-1,8
 555 564 555 564 555 501 c 2,9,-1
 555 496 l 2,10,11
 555 433 555 433 536 389 c 128,-1,12
 517 345 517 345 484 317 c 128,-1,13
 451 289 451 289 406 276.5 c 128,-1,14
 361 264 361 264 309 264 c 2,15,-1
 210 264 l 1,16,-1
 210 48 l 2,17,18
 210 24 210 24 185.5 12 c 128,-1,19
 161 0 161 0 132 0 c 256,20,21
 103 0 103 0 78.5 12 c 128,-1,22
 54 24 54 24 54 48 c 2,23,-1
 54 684 l 2,0,1
210 595 m 1,24,-1
 210 384 l 1,25,-1
 309 384 l 2,26,27
 351 384 351 384 375 408.5 c 128,-1,28
 399 433 399 433 399 484 c 2,29,-1
 399 495 l 2,30,31
 399 546 399 546 375 570.5 c 128,-1,32
 351 595 351 595 309 595 c 2,33,-1
 210 595 l 1,24,-1
EndSplineSet
EndChar
StartChar: Q
Encoding: 81 81 88
Width: 583
Flags: W
LayerCount: 2
Back
Fore
SplineSet
291 -109 m 256,0,1
 273 -109 273 -109 258 -97 c 128,-1,2
 243 -85 243 -85 243 -61 c 2,3,-1
 243 -3 l 1,4,5
 200 2 200 2 164 18 c 128,-1,6
 128 34 128 34 101.5 62 c 128,-1,7
 75 90 75 90 60.5 131.5 c 128,-1,8
 46 173 46 173 46 230 c 2,9,-1
 46 495 l 2,10,11
 46 560 46 560 65 605 c 128,-1,12
 84 650 84 650 117 678 c 128,-1,13
 150 706 150 706 194.5 718.5 c 128,-1,14
 239 731 239 731 291 731 c 256,15,16
 343 731 343 731 388 718.5 c 128,-1,17
 433 706 433 706 466 678 c 128,-1,18
 499 650 499 650 518 605 c 128,-1,19
 537 560 537 560 537 495 c 2,20,-1
 537 230 l 2,21,22
 537 173 537 173 522 131.5 c 128,-1,23
 507 90 507 90 480.5 62 c 128,-1,24
 454 34 454 34 418 18 c 128,-1,25
 382 2 382 2 339 -3 c 1,26,-1
 339 -61 l 2,27,28
 339 -85 339 -85 324 -97 c 128,-1,29
 309 -109 309 -109 291 -109 c 256,0,1
381 495 m 2,30,31
 381 546 381 546 357 570.5 c 128,-1,32
 333 595 333 595 291 595 c 256,33,34
 249 595 249 595 225.5 570.5 c 128,-1,35
 202 546 202 546 202 495 c 2,36,-1
 202 230 l 2,37,38
 202 163 202 163 243 140 c 1,39,-1
 243 184 l 2,40,41
 243 209 243 209 258 220 c 128,-1,42
 273 231 273 231 291 231 c 256,43,44
 309 231 309 231 324 220 c 128,-1,45
 339 209 339 209 339 184 c 2,46,-1
 339 140 l 1,47,48
 359 151 359 151 370 173 c 128,-1,49
 381 195 381 195 381 230 c 2,50,-1
 381 495 l 2,30,31
EndSplineSet
EndChar
StartChar: R
Encoding: 82 82 89
Width: 584
Flags: W
LayerCount: 2
Back
Fore
SplineSet
54 684 m 2,0,1
 54 703 54 703 67 717 c 128,-1,2
 80 731 80 731 102 731 c 2,3,-1
 309 731 l 2,4,5
 360 731 360 731 405 720.5 c 128,-1,6
 450 710 450 710 483.5 685 c 128,-1,7
 517 660 517 660 536 619 c 128,-1,8
 555 578 555 578 555 517 c 0,9,10
 555 433 555 433 520.5 383.5 c 128,-1,11
 486 334 486 334 434 314 c 1,12,-1
 556 93 l 2,13,14
 561 85 561 85 561 75 c 0,15,16
 561 60 561 60 552 45.5 c 128,-1,17
 543 31 543 31 529 19.5 c 128,-1,18
 515 8 515 8 497.5 1 c 128,-1,19
 480 -6 480 -6 463 -6 c 0,20,21
 448 -6 448 -6 434.5 0.5 c 128,-1,22
 421 7 421 7 413 23 c 2,23,-1
 276 289 l 1,24,-1
 210 289 l 1,25,-1
 210 48 l 2,26,27
 210 24 210 24 185.5 12 c 128,-1,28
 161 0 161 0 132 0 c 256,29,30
 103 0 103 0 78.5 12 c 128,-1,31
 54 24 54 24 54 48 c 2,32,-1
 54 684 l 2,0,1
210 595 m 1,33,-1
 210 409 l 1,34,-1
 309 409 l 2,35,36
 351 409 351 409 375 429 c 128,-1,37
 399 449 399 449 399 502 c 256,38,39
 399 555 399 555 375 575 c 128,-1,40
 351 595 351 595 309 595 c 2,41,-1
 210 595 l 1,33,-1
EndSplineSet
EndChar
StartChar: T
Encoding: 84 84 99
Width: 542
Flags: W
LayerCount: 2
Back
Fore
SplineSet
487 731 m 2,0,1
 512 731 512 731 523 709 c 128,-1,2
 534 687 534 687 534 662 c 0,3,4
 534 633 534 633 522 612 c 128,-1,5
 510 591 510 591 487 591 c 2,6,-1
 349 591 l 1,7,-1
 349 48 l 2,8,9
 349 24 349 24 324.5 12 c 128,-1,10
 300 0 300 0 271 0 c 256,11,12
 242 0 242 0 217.5 12 c 128,-1,13
 193 24 193 24 193 48 c 2,14,-1
 193 591 l 1,15,-1
 55 591 l 2,16,17
 32 591 32 591 20 612 c 128,-1,18
 8 633 8 633 8 662 c 0,19,20
 8 687 8 687 19 709 c 128,-1,21
 30 731 30 731 55 731 c 2,22,-1
 487 731 l 2,0,1
EndSplineSet
EndChar
StartChar: U
Encoding: 85 85 104
Width: 606
Flags: W
LayerCount: 2
Back
Fore
SplineSet
399 684 m 2,0,1
 399 709 399 709 423 720 c 128,-1,2
 447 731 447 731 477 731 c 0,3,4
 491 731 491 731 505 728.5 c 128,-1,5
 519 726 519 726 530 720 c 128,-1,6
 541 714 541 714 548 705 c 128,-1,7
 555 696 555 696 555 684 c 2,8,-1
 555 230 l 2,9,10
 555 165 555 165 535.5 120.5 c 128,-1,11
 516 76 516 76 482 47.5 c 128,-1,12
 448 19 448 19 402 6.5 c 128,-1,13
 356 -6 356 -6 303 -6 c 256,14,15
 250 -6 250 -6 204 6.5 c 128,-1,16
 158 19 158 19 124 47.5 c 128,-1,17
 90 76 90 76 70.5 120.5 c 128,-1,18
 51 165 51 165 51 230 c 2,19,-1
 51 684 l 2,20,21
 51 709 51 709 75 720 c 128,-1,22
 99 731 99 731 129 731 c 0,23,24
 143 731 143 731 157 728.5 c 128,-1,25
 171 726 171 726 182 720 c 128,-1,26
 193 714 193 714 200 705 c 128,-1,27
 207 696 207 696 207 684 c 2,28,-1
 207 230 l 2,29,30
 207 179 207 179 232.5 154.5 c 128,-1,31
 258 130 258 130 303 130 c 256,32,33
 348 130 348 130 373.5 154.5 c 128,-1,34
 399 179 399 179 399 230 c 2,35,-1
 399 684 l 2,0,1
EndSplineSet
EndChar
StartChar: V
Encoding: 86 86 115
Width: 589
Flags: W
LayerCount: 2
Back
Fore
SplineSet
6 656 m 2,0,1
 4 664 4 664 4 667 c 0,2,3
 4 681 4 681 13.5 692.5 c 128,-1,4
 23 704 23 704 38 712.5 c 128,-1,5
 53 721 53 721 70.5 726 c 128,-1,6
 88 731 88 731 104 731 c 0,7,8
 123 731 123 731 136.5 724.5 c 128,-1,9
 150 718 150 718 155 702 c 2,10,-1
 295 189 l 1,11,-1
 434 702 l 2,12,13
 439 718 439 718 452.5 724.5 c 128,-1,14
 466 731 466 731 485 731 c 0,15,16
 501 731 501 731 518.5 726 c 128,-1,17
 536 721 536 721 551 712.5 c 128,-1,18
 566 704 566 704 575.5 692.5 c 128,-1,19
 585 681 585 681 585 667 c 0,20,21
 585 664 585 664 583 656 c 2,22,-1
 397 46 l 2,23,24
 389 20 389 20 359.5 7 c 128,-1,25
 330 -6 330 -6 295 -6 c 256,26,27
 260 -6 260 -6 230.5 7 c 128,-1,28
 201 20 201 20 193 46 c 2,29,-1
 6 656 l 2,0,1
EndSplineSet
EndChar
StartChar: X
Encoding: 88 88 121
Width: 590
Flags: W
LayerCount: 2
Back
Fore
SplineSet
295 258 m 1,0,-1
 149 10 l 2,1,2
 144 2 144 2 134 -2 c 128,-1,3
 124 -6 124 -6 112 -6 c 0,4,5
 96 -6 96 -6 77.5 0 c 128,-1,6
 59 6 59 6 43.5 16.5 c 128,-1,7
 28 27 28 27 18 41 c 128,-1,8
 8 55 8 55 8 71 c 0,9,10
 8 84 8 84 17 99 c 2,11,-1
 190 366 l 1,12,-1
 24 632 l 2,13,14
 14 648 14 648 14 663 c 0,15,16
 14 679 14 679 23.5 692.5 c 128,-1,17
 33 706 33 706 48 716 c 128,-1,18
 63 726 63 726 80.5 731.5 c 128,-1,19
 98 737 98 737 115 737 c 0,20,21
 148 737 148 737 162 711 c 2,22,-1
 295 479 l 1,23,-1
 428 711 l 2,24,25
 442 737 442 737 475 737 c 0,26,27
 491 737 491 737 509 731.5 c 128,-1,28
 527 726 527 726 542 716 c 128,-1,29
 557 706 557 706 566.5 692.5 c 128,-1,30
 576 679 576 679 576 663 c 0,31,32
 576 648 576 648 566 632 c 2,33,-1
 400 366 l 1,34,-1
 573 99 l 2,35,36
 582 84 582 84 582 71 c 0,37,38
 582 55 582 55 572 41 c 128,-1,39
 562 27 562 27 546.5 16.5 c 128,-1,40
 531 6 531 6 512.5 0 c 128,-1,41
 494 -6 494 -6 478 -6 c 0,42,43
 466 -6 466 -6 456 -2 c 128,-1,44
 446 2 446 2 441 10 c 2,45,-1
 295 258 l 1,0,-1
EndSplineSet
EndChar
StartChar: Y
Encoding: 89 89 122
Width: 590
Flags: W
LayerCount: 2
Back
Fore
SplineSet
217 299 m 2,0,1
 217 307 217 307 213 313 c 2,2,-1
 6 656 l 2,3,4
 4 660 4 660 4 667 c 0,5,6
 4 681 4 681 14.5 692.5 c 128,-1,7
 25 704 25 704 41 712.5 c 128,-1,8
 57 721 57 721 75.5 726 c 128,-1,9
 94 731 94 731 110 731 c 0,10,11
 129 731 129 731 138 723.5 c 128,-1,12
 147 716 147 716 155 702 c 2,13,-1
 295 445 l 1,14,-1
 434 702 l 2,15,16
 442 716 442 716 451 723.5 c 128,-1,17
 460 731 460 731 479 731 c 0,18,19
 495 731 495 731 513.5 726 c 128,-1,20
 532 721 532 721 548 712.5 c 128,-1,21
 564 704 564 704 574.5 692.5 c 128,-1,22
 585 681 585 681 585 667 c 0,23,24
 585 660 585 660 583 656 c 2,25,-1
 377 313 l 2,26,27
 373 307 373 307 373 299 c 2,28,-1
 373 48 l 2,29,30
 373 24 373 24 348.5 12 c 128,-1,31
 324 0 324 0 295 0 c 256,32,33
 266 0 266 0 241.5 12 c 128,-1,34
 217 24 217 24 217 48 c 2,35,-1
 217 299 l 2,0,1
EndSplineSet
EndChar
StartChar: Z
Encoding: 90 90 127
Width: 536
Flags: W
LayerCount: 2
Back
Fore
SplineSet
208 136 m 1,0,-1
 480 136 l 2,1,2
 503 136 503 136 515 114 c 128,-1,3
 527 92 527 92 527 68 c 256,4,5
 527 44 527 44 515 22 c 128,-1,6
 503 0 503 0 480 0 c 2,7,-1
 54 0 l 2,8,9
 30 0 30 0 19.5 11.5 c 128,-1,10
 9 23 9 23 9 41 c 0,11,12
 9 67 9 67 26 96 c 2,13,-1
 308 595 l 1,14,-1
 76 595 l 2,15,16
 53 595 53 595 41 615.5 c 128,-1,17
 29 636 29 636 29 663 c 0,18,19
 29 688 29 688 40 709.5 c 128,-1,20
 51 731 51 731 76 731 c 2,21,-1
 462 731 l 2,22,23
 485 731 485 731 496 719.5 c 128,-1,24
 507 708 507 708 507 690 c 0,25,26
 507 666 507 666 490 635 c 2,27,-1
 208 136 l 1,0,-1
EndSplineSet
EndChar
StartChar: bracketleft
Encoding: 91 91 161
Width: 355
Flags: W
LayerCount: 2
Back
Fore
SplineSet
206 115 m 1,0,-1
 294 115 l 2,1,2
 317 115 317 115 329 94.5 c 128,-1,3
 341 74 341 74 341 46 c 0,4,5
 341 22 341 22 330 0.5 c 128,-1,6
 319 -21 319 -21 294 -21 c 2,7,-1
 118 -21 l 2,8,9
 92 -21 92 -21 71 -9 c 128,-1,10
 50 3 50 3 50 27 c 2,11,-1
 50 720 l 2,12,13
 50 744 50 744 71 756 c 128,-1,14
 92 768 92 768 118 768 c 2,15,-1
 294 768 l 2,16,17
 319 768 319 768 330 746.5 c 128,-1,18
 341 725 341 725 341 701 c 0,19,20
 341 673 341 673 329 652.5 c 128,-1,21
 317 632 317 632 294 632 c 2,22,-1
 206 632 l 1,23,-1
 206 115 l 1,0,-1
EndSplineSet
EndChar
StartChar: backslash
Encoding: 92 92 157
Width: 382
Flags: W
LayerCount: 2
Back
Fore
SplineSet
21 689 m 2,0,1
 18 696 18 696 18 704 c 0,2,3
 18 724 18 724 35 739.5 c 128,-1,4
 52 755 52 755 76 755 c 0,5,6
 90 755 90 755 102.5 748 c 128,-1,7
 115 741 115 741 121 725 c 2,8,-1
 361 67 l 2,9,10
 363 62 363 62 363 53 c 0,11,12
 363 33 363 33 346.5 16 c 128,-1,13
 330 -1 330 -1 307 -1 c 0,14,15
 291 -1 291 -1 278.5 8 c 128,-1,16
 266 17 266 17 261 31 c 2,17,-1
 21 689 l 2,0,1
EndSplineSet
EndChar
StartChar: bracketright
Encoding: 93 93 162
Width: 355
Flags: W
LayerCount: 2
Back
Fore
SplineSet
149 632 m 1,0,-1
 61 632 l 2,1,2
 38 632 38 632 26 652.5 c 128,-1,3
 14 673 14 673 14 701 c 0,4,5
 14 725 14 725 25 746.5 c 128,-1,6
 36 768 36 768 61 768 c 2,7,-1
 237 768 l 2,8,9
 263 768 263 768 284 756 c 128,-1,10
 305 744 305 744 305 720 c 2,11,-1
 305 27 l 2,12,13
 305 3 305 3 284 -9 c 128,-1,14
 263 -21 263 -21 237 -21 c 2,15,-1
 61 -21 l 2,16,17
 36 -21 36 -21 25 0.5 c 128,-1,18
 14 22 14 22 14 46 c 0,19,20
 14 74 14 74 26 94.5 c 128,-1,21
 38 115 38 115 61 115 c 2,22,-1
 149 115 l 1,23,-1
 149 632 l 1,0,-1
EndSplineSet
EndChar
StartChar: asciicircum
Encoding: 94 94 150
Width: 292
Flags: W
LayerCount: 2
Back
Fore
SplineSet
42 572 m 2,0,1
 36 569 36 569 31 569 c 0,2,3
 17 569 17 569 8.5 583.5 c 128,-1,4
 0 598 0 598 0 615 c 0,5,6
 0 628 0 628 5.5 639.5 c 128,-1,7
 11 651 11 651 25 659 c 2,8,-1
 129 715 l 2,9,10
 139 720 139 720 146 720 c 256,11,12
 153 720 153 720 163 715 c 2,13,-1
 267 659 l 2,14,15
 281 651 281 651 286.5 639.5 c 128,-1,16
 292 628 292 628 292 615 c 0,17,18
 292 598 292 598 283.5 583.5 c 128,-1,19
 275 569 275 569 261 569 c 0,20,21
 256 569 256 569 250 572 c 2,22,-1
 146 628 l 1,23,-1
 42 572 l 2,0,1
EndSplineSet
EndChar
StartChar: underscore
Encoding: 95 95 392
Width: 306
Flags: W
LayerCount: 2
Back
Fore
SplineSet
-54 -64 m 0,0,1
 -54 -37 -54 -37 -41 -18.5 c 128,-1,2
 -28 0 -28 0 -7 0 c 2,3,-1
 313 0 l 2,4,5
 331 0 331 0 346 -18.5 c 128,-1,6
 361 -37 361 -37 361 -64 c 0,7,8
 361 -93 361 -93 346 -110 c 128,-1,9
 331 -127 331 -127 313 -127 c 2,10,-1
 -7 -127 l 2,11,12
 -28 -127 -28 -127 -41 -110 c 128,-1,13
 -54 -93 -54 -93 -54 -64 c 0,0,1
EndSplineSet
EndChar
StartChar: grave
Encoding: 96 96 235
Width: 221
Flags: W
LayerCount: 2
Back
Fore
SplineSet
20 628 m 2,0,1
 9 633 9 633 4.5 642 c 128,-1,2
 0 651 0 651 0 662 c 0,3,4
 0 672 0 672 3.5 682 c 128,-1,5
 7 692 7 692 13.5 700.5 c 128,-1,6
 20 709 20 709 28.5 714.5 c 128,-1,7
 37 720 37 720 47 720 c 0,8,9
 53 720 53 720 61 717 c 2,10,-1
 201 652 l 2,11,12
 221 642 221 642 221 617 c 0,13,14
 221 597 221 597 208 578 c 128,-1,15
 195 559 195 559 175 559 c 0,16,17
 170 559 170 559 160 563 c 2,18,-1
 20 628 l 2,0,1
EndSplineSet
EndChar
StartChar: a
Encoding: 97 97 131
Width: 484
Flags: W
LayerCount: 2
Back
Fore
SplineSet
215 482 m 0,0,1
 276 482 276 482 319.5 465.5 c 128,-1,2
 363 449 363 449 390.5 422 c 128,-1,3
 418 395 418 395 430.5 359.5 c 128,-1,4
 443 324 443 324 443 286 c 2,5,-1
 443 48 l 2,6,7
 443 28 443 28 421.5 14 c 128,-1,8
 400 0 400 0 367 0 c 0,9,10
 338 0 338 0 318 14 c 128,-1,11
 298 28 298 28 298 48 c 2,12,-1
 298 70 l 1,13,14
 271 38 271 38 234.5 14 c 128,-1,15
 198 -10 198 -10 146 -10 c 0,16,17
 120 -10 120 -10 97 -2 c 128,-1,18
 74 6 74 6 56.5 22.5 c 128,-1,19
 39 39 39 39 28.5 64 c 128,-1,20
 18 89 18 89 18 123 c 0,21,22
 18 167 18 167 35 196 c 128,-1,23
 52 225 52 225 83 242.5 c 128,-1,24
 114 260 114 260 157 267 c 128,-1,25
 200 274 200 274 252 274 c 2,26,-1
 288 274 l 1,27,-1
 288 284 l 2,28,29
 288 297 288 297 284.5 310 c 128,-1,30
 281 323 281 323 272 333.5 c 128,-1,31
 263 344 263 344 248.5 351 c 128,-1,32
 234 358 234 358 213 358 c 0,33,34
 182 358 182 358 164 353 c 128,-1,35
 146 348 146 348 134 341.5 c 128,-1,36
 122 335 122 335 114 330 c 128,-1,37
 106 325 106 325 96 325 c 0,38,39
 83 325 83 325 73.5 332 c 128,-1,40
 64 339 64 339 57.5 350 c 128,-1,41
 51 361 51 361 47.5 374.5 c 128,-1,42
 44 388 44 388 44 402 c 0,43,44
 44 420 44 420 60.5 434.5 c 128,-1,45
 77 449 77 449 102 459.5 c 128,-1,46
 127 470 127 470 157 476 c 128,-1,47
 187 482 187 482 215 482 c 0,0,1
288 199 m 1,48,-1
 284 199 l 2,49,50
 263 199 263 199 243 197.5 c 128,-1,51
 223 196 223 196 207.5 190 c 128,-1,52
 192 184 192 184 183 173.5 c 128,-1,53
 174 163 174 163 174 145 c 0,54,55
 174 123 174 123 185 113 c 128,-1,56
 196 103 196 103 213 103 c 0,57,58
 225 103 225 103 238 110 c 128,-1,59
 251 117 251 117 262 129.5 c 128,-1,60
 273 142 273 142 280.5 159 c 128,-1,61
 288 176 288 176 288 195 c 2,62,-1
 288 199 l 1,48,-1
EndSplineSet
Substitution2: "'ss01' Style Set 1 in Latin lookup 3 subtable" a.ss01
Substitution2: "'salt' Stylistic Alternatives in Latin lookup 2 subtable" a.ss01
Substitution2: "'aalt' Access All Alternates in Latin lookup 0 subtable" a.ss01
EndChar
StartChar: b
Encoding: 98 98 155
Width: 533
Flags: W
LayerCount: 2
Back
Fore
SplineSet
122 748 m 256,0,1
 155 748 155 748 178 735 c 128,-1,2
 201 722 201 722 201 701 c 2,3,-1
 201 406 l 1,4,5
 217 435 217 435 249.5 458.5 c 128,-1,6
 282 482 282 482 328 482 c 0,7,8
 365 482 365 482 397 465.5 c 128,-1,9
 429 449 429 449 453 420.5 c 128,-1,10
 477 392 477 392 491 353.5 c 128,-1,11
 505 315 505 315 505 272 c 2,12,-1
 505 202 l 2,13,14
 505 160 505 160 491 122 c 128,-1,15
 477 84 477 84 453 54.5 c 128,-1,16
 429 25 429 25 397.5 7.5 c 128,-1,17
 366 -10 366 -10 331 -10 c 0,18,19
 307 -10 307 -10 285 -3.5 c 128,-1,20
 263 3 263 3 244.5 14.5 c 128,-1,21
 226 26 226 26 212 40.5 c 128,-1,22
 198 55 198 55 191 70 c 1,23,-1
 191 48 l 2,24,25
 191 30 191 30 171 15 c 128,-1,26
 151 0 151 0 122 0 c 0,27,28
 89 0 89 0 67.5 15 c 128,-1,29
 46 30 46 30 46 48 c 2,30,-1
 46 701 l 2,31,32
 46 722 46 722 67.5 735 c 128,-1,33
 89 748 89 748 122 748 c 256,0,1
350 272 m 2,34,35
 350 301 350 301 329 324 c 128,-1,36
 308 347 308 347 277 347 c 0,37,38
 263 347 263 347 249.5 342 c 128,-1,39
 236 337 236 337 225.5 327 c 128,-1,40
 215 317 215 317 208 303.5 c 128,-1,41
 201 290 201 290 201 272 c 2,42,-1
 201 189 l 2,43,44
 201 183 201 183 207 172 c 128,-1,45
 213 161 213 161 223.5 150.5 c 128,-1,46
 234 140 234 140 248 132.5 c 128,-1,47
 262 125 262 125 278 125 c 0,48,49
 293 125 293 125 306 131.5 c 128,-1,50
 319 138 319 138 329 149 c 128,-1,51
 339 160 339 160 344.5 173.5 c 128,-1,52
 350 187 350 187 350 202 c 2,53,-1
 350 272 l 2,34,35
EndSplineSet
Substitution2: "'ss02' Style Set 2 in Latin lookup 4 subtable" b.ss02
Substitution2: "'salt' Stylistic Alternatives in Latin lookup 2 subtable" b.ss02
Substitution2: "'aalt' Access All Alternates in Latin lookup 0 subtable" b.ss02
EndChar
StartChar: c
Encoding: 99 99 166
Width: 442
Flags: W
LayerCount: 2
Back
Fore
SplineSet
255 -10 m 0,0,1
 195 -10 195 -10 152.5 6 c 128,-1,2
 110 22 110 22 82 50.5 c 128,-1,3
 54 79 54 79 41 118 c 128,-1,4
 28 157 28 157 28 202 c 2,5,-1
 28 270 l 2,6,7
 28 315 28 315 41 353.5 c 128,-1,8
 54 392 54 392 81.5 420.5 c 128,-1,9
 109 449 109 449 151.5 465.5 c 128,-1,10
 194 482 194 482 253 482 c 0,11,12
 290 482 290 482 321 475 c 128,-1,13
 352 468 352 468 374.5 457 c 128,-1,14
 397 446 397 446 409.5 430.5 c 128,-1,15
 422 415 422 415 422 399 c 0,16,17
 422 388 422 388 417.5 375 c 128,-1,18
 413 362 413 362 405.5 350.5 c 128,-1,19
 398 339 398 339 386.5 331 c 128,-1,20
 375 323 375 323 362 323 c 0,21,22
 353 323 353 323 344.5 326.5 c 128,-1,23
 336 330 336 330 325.5 334.5 c 128,-1,24
 315 339 315 339 300.5 343 c 128,-1,25
 286 347 286 347 266 347 c 0,26,27
 221 347 221 347 202 327 c 128,-1,28
 183 307 183 307 183 270 c 2,29,-1
 183 202 l 2,30,31
 183 165 183 165 202 145 c 128,-1,32
 221 125 221 125 267 125 c 0,33,34
 287 125 287 125 300.5 129 c 128,-1,35
 314 133 314 133 324.5 138.5 c 128,-1,36
 335 144 335 144 343.5 148 c 128,-1,37
 352 152 352 152 362 152 c 0,38,39
 378 152 378 152 390 144.5 c 128,-1,40
 402 137 402 137 410.5 126 c 128,-1,41
 419 115 419 115 423.5 102 c 128,-1,42
 428 89 428 89 428 78 c 0,43,44
 428 61 428 61 414.5 45 c 128,-1,45
 401 29 401 29 378 17 c 128,-1,46
 355 5 355 5 323 -2.5 c 128,-1,47
 291 -10 291 -10 255 -10 c 0,0,1
EndSplineSet
EndChar
StartChar: d
Encoding: 100 100 182
Width: 533
Flags: W
LayerCount: 2
Back
Fore
SplineSet
411 748 m 256,0,1
 444 748 444 748 465.5 735 c 128,-1,2
 487 722 487 722 487 701 c 2,3,-1
 487 48 l 2,4,5
 487 30 487 30 465.5 15 c 128,-1,6
 444 0 444 0 411 0 c 0,7,8
 382 0 382 0 362 15 c 128,-1,9
 342 30 342 30 342 48 c 2,10,-1
 342 70 l 1,11,12
 334 55 334 55 320.5 40.5 c 128,-1,13
 307 26 307 26 288.5 14.5 c 128,-1,14
 270 3 270 3 248 -3.5 c 128,-1,15
 226 -10 226 -10 202 -10 c 0,16,17
 167 -10 167 -10 135.5 7.5 c 128,-1,18
 104 25 104 25 80 54.5 c 128,-1,19
 56 84 56 84 42 122 c 128,-1,20
 28 160 28 160 28 202 c 2,21,-1
 28 272 l 2,22,23
 28 315 28 315 42 353.5 c 128,-1,24
 56 392 56 392 80 420.5 c 128,-1,25
 104 449 104 449 136 465.5 c 128,-1,26
 168 482 168 482 205 482 c 0,27,28
 251 482 251 482 283.5 458.5 c 128,-1,29
 316 435 316 435 332 406 c 1,30,-1
 332 701 l 2,31,32
 332 722 332 722 355 735 c 128,-1,33
 378 748 378 748 411 748 c 256,0,1
183 202 m 2,34,35
 183 187 183 187 188.5 173.5 c 128,-1,36
 194 160 194 160 204 149 c 128,-1,37
 214 138 214 138 227 131.5 c 128,-1,38
 240 125 240 125 255 125 c 0,39,40
 271 125 271 125 285 132.5 c 128,-1,41
 299 140 299 140 309.5 150.5 c 128,-1,42
 320 161 320 161 326 172 c 128,-1,43
 332 183 332 183 332 189 c 2,44,-1
 332 272 l 2,45,46
 332 290 332 290 325 303.5 c 128,-1,47
 318 317 318 317 307.5 327 c 128,-1,48
 297 337 297 337 283 342 c 128,-1,49
 269 347 269 347 256 347 c 0,50,51
 225 347 225 347 204 324 c 128,-1,52
 183 301 183 301 183 272 c 2,53,-1
 183 202 l 2,34,35
EndSplineSet
EndChar
StartChar: f
Encoding: 102 102 216
Width: 354
Flags: W
LayerCount: 2
Back
Fore
SplineSet
201 476 m 1,0,-1
 314 476 l 2,1,2
 333 476 333 476 342.5 458.5 c 128,-1,3
 352 441 352 441 352 421 c 0,4,5
 352 400 352 400 342.5 383 c 128,-1,6
 333 366 333 366 314 366 c 2,7,-1
 201 366 l 1,8,-1
 201 47 l 2,9,10
 201 26 201 26 177.5 13 c 128,-1,11
 154 0 154 0 122 0 c 256,12,13
 90 0 90 0 68 13 c 128,-1,14
 46 26 46 26 46 47 c 2,15,-1
 46 547 l 2,16,17
 46 590 46 590 60 627 c 128,-1,18
 74 664 74 664 98 691 c 128,-1,19
 122 718 122 718 154 733 c 128,-1,20
 186 748 186 748 222 748 c 2,21,-1
 294 748 l 2,22,23
 323 748 323 748 337.5 727.5 c 128,-1,24
 352 707 352 707 352 683 c 0,25,26
 352 658 352 658 337.5 638 c 128,-1,27
 323 618 323 618 294 618 c 2,28,-1
 256 618 l 2,29,30
 232 618 232 618 216.5 605 c 128,-1,31
 201 592 201 592 201 564 c 2,32,-1
 201 476 l 1,0,-1
EndSplineSet
EndChar
StartChar: h
Encoding: 104 104 242
Width: 535
Flags: W
LayerCount: 2
Back
Fore
SplineSet
201 48 m 2,0,1
 201 30 201 30 178 15 c 128,-1,2
 155 0 155 0 123 0 c 0,3,4
 89 0 89 0 67.5 15 c 128,-1,5
 46 30 46 30 46 48 c 2,6,-1
 46 701 l 2,7,8
 46 722 46 722 67.5 735 c 128,-1,9
 89 748 89 748 123 748 c 0,10,11
 155 748 155 748 178 735 c 128,-1,12
 201 722 201 722 201 701 c 2,13,-1
 201 406 l 1,14,15
 215 435 215 435 246.5 458.5 c 128,-1,16
 278 482 278 482 325 482 c 0,17,18
 359 482 359 482 390 465.5 c 128,-1,19
 421 449 421 449 444 420.5 c 128,-1,20
 467 392 467 392 481 353.5 c 128,-1,21
 495 315 495 315 495 272 c 2,22,-1
 495 48 l 2,23,24
 495 24 495 24 470.5 12 c 128,-1,25
 446 0 446 0 417 0 c 0,26,27
 403 0 403 0 389.5 3 c 128,-1,28
 376 6 376 6 365 12 c 128,-1,29
 354 18 354 18 347 27 c 128,-1,30
 340 36 340 36 340 48 c 2,31,-1
 340 272 l 2,32,33
 340 286 340 286 334 299.5 c 128,-1,34
 328 313 328 313 318.5 323.5 c 128,-1,35
 309 334 309 334 296 340.5 c 128,-1,36
 283 347 283 347 268 347 c 0,37,38
 243 347 243 347 222 327 c 128,-1,39
 201 307 201 307 201 272 c 2,40,-1
 201 48 l 2,0,1
EndSplineSet
EndChar
StartChar: i
Encoding: 105 105 247
Width: 244
Flags: W
LayerCount: 2
Back
Fore
SplineSet
122 476 m 0,0,1
 154 476 154 476 177 463 c 128,-1,2
 200 450 200 450 200 429 c 2,3,-1
 200 48 l 2,4,5
 200 30 200 30 177 15 c 128,-1,6
 154 0 154 0 122 0 c 0,7,8
 88 0 88 0 66.5 15 c 128,-1,9
 45 30 45 30 45 48 c 2,10,-1
 45 429 l 2,11,12
 45 450 45 450 66.5 463 c 128,-1,13
 88 476 88 476 122 476 c 0,0,1
122 711 m 0,14,15
 156 711 156 711 179.5 690 c 128,-1,16
 203 669 203 669 203 640 c 256,17,18
 203 611 203 611 179.5 589.5 c 128,-1,19
 156 568 156 568 122 568 c 0,20,21
 87 568 87 568 63.5 589.5 c 128,-1,22
 40 611 40 611 40 640 c 256,23,24
 40 669 40 669 63.5 690 c 128,-1,25
 87 711 87 711 122 711 c 0,14,15
EndSplineSet
EndChar
StartChar: j
Encoding: 106 106 259
Width: 245
Flags: W
LayerCount: 2
Back
Fore
SplineSet
122 711 m 0,0,1
 156 711 156 711 179.5 690 c 128,-1,2
 203 669 203 669 203 640 c 256,3,4
 203 611 203 611 179.5 589.5 c 128,-1,5
 156 568 156 568 122 568 c 0,6,7
 87 568 87 568 63.5 589.5 c 128,-1,8
 40 611 40 611 40 640 c 256,9,10
 40 669 40 669 63.5 690 c 128,-1,11
 87 711 87 711 122 711 c 0,0,1
121 476 m 256,12,13
 154 476 154 476 177 463 c 128,-1,14
 200 450 200 450 200 429 c 2,15,-1
 200 -28 l 2,16,17
 200 -70 200 -70 189.5 -104.5 c 128,-1,18
 179 -139 179 -139 158.5 -164 c 128,-1,19
 138 -189 138 -189 108.5 -203 c 128,-1,20
 79 -217 79 -217 41 -217 c 0,21,22
 16 -217 16 -217 0.5 -211.5 c 128,-1,23
 -15 -206 -15 -206 -24 -197 c 128,-1,24
 -33 -188 -33 -188 -36.5 -177 c 128,-1,25
 -40 -166 -40 -166 -40 -154 c 0,26,27
 -40 -123 -40 -123 -23 -105 c 128,-1,28
 -6 -87 -6 -87 18 -87 c 0,29,30
 36 -87 36 -87 40.5 -70.5 c 128,-1,31
 45 -54 45 -54 45 -28 c 2,32,-1
 45 429 l 2,33,34
 45 450 45 450 66.5 463 c 128,-1,35
 88 476 88 476 121 476 c 256,12,13
EndSplineSet
EndChar
StartChar: k
Encoding: 107 107 261
Width: 509
Flags: W
LayerCount: 2
Back
Fore
SplineSet
354 283 m 1,0,-1
 491 91 l 2,1,2
 499 78 499 78 499 67 c 0,3,4
 499 53 499 53 490.5 39.5 c 128,-1,5
 482 26 482 26 468.5 15 c 128,-1,6
 455 4 455 4 439.5 -3 c 128,-1,7
 424 -10 424 -10 410 -10 c 0,8,9
 386 -10 386 -10 373 9 c 2,10,-1
 252 188 l 1,11,-1
 201 141 l 1,12,-1
 201 48 l 2,13,14
 201 30 201 30 178 15 c 128,-1,15
 155 0 155 0 122 0 c 256,16,17
 89 0 89 0 67.5 15 c 128,-1,18
 46 30 46 30 46 48 c 2,19,-1
 46 701 l 2,20,21
 46 722 46 722 67.5 735 c 128,-1,22
 89 748 89 748 122 748 c 256,23,24
 155 748 155 748 178 735 c 128,-1,25
 201 722 201 722 201 701 c 2,26,-1
 201 309 l 1,27,-1
 367 470 l 2,28,29
 379 482 379 482 397 482 c 0,30,31
 410 482 410 482 423 475 c 128,-1,32
 436 468 436 468 447 457.5 c 128,-1,33
 458 447 458 447 465 433.5 c 128,-1,34
 472 420 472 420 472 408 c 0,35,36
 472 393 472 393 460 381 c 2,37,-1
 354 283 l 1,0,-1
EndSplineSet
EndChar
StartChar: l
Encoding: 108 108 264
Width: 263
Flags: W
LayerCount: 2
Back
Fore
SplineSet
131 748 m 0,0,1
 163 748 163 748 186 735 c 128,-1,2
 209 722 209 722 209 701 c 2,3,-1
 209 48 l 2,4,5
 209 30 209 30 186 15 c 128,-1,6
 163 0 163 0 131 0 c 0,7,8
 97 0 97 0 75.5 15 c 128,-1,9
 54 30 54 30 54 48 c 2,10,-1
 54 701 l 2,11,12
 54 722 54 722 75.5 735 c 128,-1,13
 97 748 97 748 131 748 c 0,0,1
EndSplineSet
EndChar
StartChar: m
Encoding: 109 109 274
Width: 813
Flags: W
LayerCount: 2
Back
Fore
SplineSet
331 271 m 2,0,1
 331 309 331 309 310 328 c 128,-1,2
 289 347 289 347 263 347 c 0,3,4
 239 347 239 347 219.5 328.5 c 128,-1,5
 200 310 200 310 200 272 c 2,6,-1
 200 48 l 2,7,8
 200 30 200 30 177 15 c 128,-1,9
 154 0 154 0 122 0 c 0,10,11
 88 0 88 0 66.5 15 c 128,-1,12
 45 30 45 30 45 48 c 2,13,-1
 45 429 l 2,14,15
 45 450 45 450 66.5 463 c 128,-1,16
 88 476 88 476 122 476 c 0,17,18
 150 476 150 476 170 463 c 128,-1,19
 190 450 190 450 190 429 c 2,20,-1
 190 406 l 1,21,22
 207 435 207 435 239.5 458.5 c 128,-1,23
 272 482 272 482 322 482 c 0,24,25
 363 482 363 482 394 454.5 c 128,-1,26
 425 427 425 427 440 382 c 1,27,28
 466 433 466 433 506.5 457.5 c 128,-1,29
 547 482 547 482 590 482 c 0,30,31
 625 482 625 482 658 468 c 128,-1,32
 691 454 691 454 716.5 427 c 128,-1,33
 742 400 742 400 757 361 c 128,-1,34
 772 322 772 322 772 272 c 2,35,-1
 772 48 l 2,36,37
 772 30 772 30 749 15 c 128,-1,38
 726 0 726 0 694 0 c 0,39,40
 663 0 663 0 640 15 c 128,-1,41
 617 30 617 30 617 48 c 2,42,-1
 617 272 l 2,43,44
 617 310 617 310 596.5 329 c 128,-1,45
 576 348 576 348 550 348 c 0,46,47
 526 348 526 348 506 329 c 128,-1,48
 486 310 486 310 486 272 c 2,49,-1
 486 47 l 2,50,51
 486 22 486 22 461.5 11 c 128,-1,52
 437 0 437 0 408 0 c 0,53,54
 394 0 394 0 380.5 2.5 c 128,-1,55
 367 5 367 5 356 11 c 128,-1,56
 345 17 345 17 338 26 c 128,-1,57
 331 35 331 35 331 47 c 2,58,-1
 331 271 l 2,0,1
EndSplineSet
Substitution2: "'ss04' Style Set 4 in Latin lookup 6 subtable" m.ss04
Substitution2: "'salt' Stylistic Alternatives in Latin lookup 2 subtable" m.ss04
Substitution2: "'aalt' Access All Alternates in Latin lookup 0 subtable" m.ss04
EndChar
StartChar: n
Encoding: 110 110 280
Width: 534
Flags: W
LayerCount: 2
Back
Fore
SplineSet
200 48 m 2,0,1
 200 30 200 30 177 15 c 128,-1,2
 154 0 154 0 122 0 c 0,3,4
 88 0 88 0 66.5 15 c 128,-1,5
 45 30 45 30 45 48 c 2,6,-1
 45 429 l 2,7,8
 45 450 45 450 66.5 463 c 128,-1,9
 88 476 88 476 122 476 c 0,10,11
 150 476 150 476 170 463 c 128,-1,12
 190 450 190 450 190 429 c 2,13,-1
 190 406 l 1,14,15
 204 435 204 435 239 458.5 c 128,-1,16
 274 482 274 482 324 482 c 0,17,18
 358 482 358 482 389 465.5 c 128,-1,19
 420 449 420 449 443 420.5 c 128,-1,20
 466 392 466 392 480 353.5 c 128,-1,21
 494 315 494 315 494 272 c 2,22,-1
 494 48 l 2,23,24
 494 24 494 24 469.5 12 c 128,-1,25
 445 0 445 0 416 0 c 0,26,27
 402 0 402 0 388.5 3 c 128,-1,28
 375 6 375 6 364 12 c 128,-1,29
 353 18 353 18 346 27 c 128,-1,30
 339 36 339 36 339 48 c 2,31,-1
 339 272 l 2,32,33
 339 286 339 286 333.5 299.5 c 128,-1,34
 328 313 328 313 318 323.5 c 128,-1,35
 308 334 308 334 295 340.5 c 128,-1,36
 282 347 282 347 267 347 c 0,37,38
 242 347 242 347 221 327 c 128,-1,39
 200 307 200 307 200 272 c 2,40,-1
 200 48 l 2,0,1
EndSplineSet
Substitution2: "'ss04' Style Set 4 in Latin lookup 6 subtable" n.ss04
Substitution2: "'salt' Stylistic Alternatives in Latin lookup 2 subtable" n.ss04
Substitution2: "'aalt' Access All Alternates in Latin lookup 0 subtable" n.ss04
EndChar
StartChar: q
Encoding: 113 113 327
Width: 533
Flags: W
LayerCount: 2
Back
Fore
SplineSet
413 476 m 256,0,1
 444 476 444 476 465.5 463 c 128,-1,2
 487 450 487 450 487 429 c 2,3,-1
 487 -169 l 2,4,5
 487 -187 487 -187 465.5 -202 c 128,-1,6
 444 -217 444 -217 411 -217 c 256,7,8
 378 -217 378 -217 355 -202 c 128,-1,9
 332 -187 332 -187 332 -169 c 2,10,-1
 332 70 l 1,11,12
 325 55 325 55 312 40.5 c 128,-1,13
 299 26 299 26 282 14.5 c 128,-1,14
 265 3 265 3 244.5 -3.5 c 128,-1,15
 224 -10 224 -10 202 -10 c 0,16,17
 167 -10 167 -10 135.5 7.5 c 128,-1,18
 104 25 104 25 80 54.5 c 128,-1,19
 56 84 56 84 42 122 c 128,-1,20
 28 160 28 160 28 202 c 2,21,-1
 28 272 l 2,22,23
 28 315 28 315 42 353.5 c 128,-1,24
 56 392 56 392 80 420.5 c 128,-1,25
 104 449 104 449 136.5 465.5 c 128,-1,26
 169 482 169 482 207 482 c 0,27,28
 254 482 254 482 289.5 458.5 c 128,-1,29
 325 435 325 435 342 406 c 1,30,-1
 342 429 l 2,31,32
 342 450 342 450 362 463 c 128,-1,33
 382 476 382 476 413 476 c 256,0,1
183 202 m 2,34,35
 183 187 183 187 189 173.5 c 128,-1,36
 195 160 195 160 205.5 149 c 128,-1,37
 216 138 216 138 229 131.5 c 128,-1,38
 242 125 242 125 257 125 c 0,39,40
 273 125 273 125 287 132.5 c 128,-1,41
 301 140 301 140 311 150.5 c 128,-1,42
 321 161 321 161 326.5 172 c 128,-1,43
 332 183 332 183 332 189 c 2,44,-1
 332 272 l 2,45,46
 332 307 332 307 309 327 c 128,-1,47
 286 347 286 347 259 347 c 0,48,49
 227 347 227 347 205 324 c 128,-1,50
 183 301 183 301 183 272 c 2,51,-1
 183 202 l 2,34,35
EndSplineSet
Substitution2: "'ss02' Style Set 2 in Latin lookup 4 subtable" q.ss02
Substitution2: "'salt' Stylistic Alternatives in Latin lookup 2 subtable" q.ss02
Substitution2: "'aalt' Access All Alternates in Latin lookup 0 subtable" q.ss02
EndChar
StartChar: r
Encoding: 114 114 339
Width: 394
Flags: W
LayerCount: 2
Back
Fore
SplineSet
309 347 m 2,0,1
 288 347 288 347 268.5 336.5 c 128,-1,2
 249 326 249 326 234 306.5 c 128,-1,3
 219 287 219 287 209.5 259.5 c 128,-1,4
 200 232 200 232 200 198 c 2,5,-1
 200 48 l 2,6,7
 200 30 200 30 177 15 c 128,-1,8
 154 0 154 0 121 0 c 256,9,10
 88 0 88 0 66.5 15 c 128,-1,11
 45 30 45 30 45 48 c 2,12,-1
 45 429 l 2,13,14
 45 450 45 450 66.5 463 c 128,-1,15
 88 476 88 476 121 476 c 0,16,17
 150 476 150 476 170 463 c 128,-1,18
 190 450 190 450 190 429 c 2,19,-1
 190 392 l 1,20,21
 197 408 197 408 209.5 424.5 c 128,-1,22
 222 441 222 441 238 453.5 c 128,-1,23
 254 466 254 466 272 474 c 128,-1,24
 290 482 290 482 309 482 c 2,25,-1
 338 482 l 2,26,27
 360 482 360 482 376.5 462 c 128,-1,28
 393 442 393 442 393 415 c 0,29,30
 393 387 393 387 376.5 367 c 128,-1,31
 360 347 360 347 338 347 c 2,32,-1
 309 347 l 2,0,1
EndSplineSet
Substitution2: "'ss04' Style Set 4 in Latin lookup 6 subtable" r.ss04
Substitution2: "'salt' Stylistic Alternatives in Latin lookup 2 subtable" r.ss04
Substitution2: "'aalt' Access All Alternates in Latin lookup 0 subtable" r.ss04
EndChar
StartChar: t
Encoding: 116 116 367
Width: 364
Flags: W
LayerCount: 2
Back
Fore
SplineSet
198 169 m 2,0,1
 198 147 198 147 207 138.5 c 128,-1,2
 216 130 216 130 239 130 c 2,3,-1
 282 130 l 2,4,5
 316 130 316 130 332 109.5 c 128,-1,6
 348 89 348 89 348 65 c 0,7,8
 348 40 348 40 332 20 c 128,-1,9
 316 0 316 0 282 0 c 2,10,-1
 239 0 l 2,11,12
 143 0 143 0 93 40 c 128,-1,13
 43 80 43 80 43 169 c 2,14,-1
 43 636 l 2,15,16
 43 646 43 646 50 655 c 128,-1,17
 57 664 57 664 68 670 c 128,-1,18
 79 676 79 676 92.5 679.5 c 128,-1,19
 106 683 106 683 120 683 c 0,20,21
 135 683 135 683 149 679.5 c 128,-1,22
 163 676 163 676 174 670 c 128,-1,23
 185 664 185 664 191.5 655 c 128,-1,24
 198 646 198 646 198 636 c 2,25,-1
 198 476 l 1,26,-1
 311 476 l 2,27,28
 330 476 330 476 339.5 458.5 c 128,-1,29
 349 441 349 441 349 421 c 0,30,31
 349 400 349 400 339.5 383 c 128,-1,32
 330 366 330 366 311 366 c 2,33,-1
 198 366 l 1,34,-1
 198 169 l 2,0,1
EndSplineSet
EndChar
StartChar: u
Encoding: 117 117 383
Width: 535
Flags: W
LayerCount: 2
Back
Fore
SplineSet
268 -10 m 0,0,1
 221 -10 221 -10 179.5 7 c 128,-1,2
 138 24 138 24 107 53 c 128,-1,3
 76 82 76 82 58 120 c 128,-1,4
 40 158 40 158 40 200 c 2,5,-1
 40 428 l 2,6,7
 40 446 40 446 63 461 c 128,-1,8
 86 476 86 476 118 476 c 0,9,10
 149 476 149 476 172 461 c 128,-1,11
 195 446 195 446 195 428 c 2,12,-1
 195 200 l 2,13,14
 195 186 195 186 201 172.5 c 128,-1,15
 207 159 207 159 216.5 148.5 c 128,-1,16
 226 138 226 138 239.5 131.5 c 128,-1,17
 253 125 253 125 268 125 c 256,18,19
 283 125 283 125 296 131.5 c 128,-1,20
 309 138 309 138 319 148.5 c 128,-1,21
 329 159 329 159 334.5 172.5 c 128,-1,22
 340 186 340 186 340 200 c 2,23,-1
 340 429 l 2,24,25
 340 448 340 448 363 462 c 128,-1,26
 386 476 386 476 418 476 c 0,27,28
 452 476 452 476 473.5 462 c 128,-1,29
 495 448 495 448 495 429 c 2,30,-1
 495 200 l 2,31,32
 495 158 495 158 477 120 c 128,-1,33
 459 82 459 82 428 53 c 128,-1,34
 397 24 397 24 355.5 7 c 128,-1,35
 314 -10 314 -10 268 -10 c 0,0,1
EndSplineSet
Substitution2: "'ss05' Style Set 5 in Latin lookup 7 subtable" u.ss04
Substitution2: "'salt' Stylistic Alternatives in Latin lookup 2 subtable" u.ss04
Substitution2: "'aalt' Access All Alternates in Latin lookup 0 subtable" u.ss04
EndChar
StartChar: v
Encoding: 118 118 398
Width: 503
Flags: W
LayerCount: 2
Back
Fore
SplineSet
6 399 m 2,0,1
 4 403 4 403 2.5 408.5 c 128,-1,2
 1 414 1 414 1 418 c 0,3,4
 1 431 1 431 12 443 c 128,-1,5
 23 455 23 455 38.5 464 c 128,-1,6
 54 473 54 473 72.5 478 c 128,-1,7
 91 483 91 483 106 483 c 0,8,9
 120 483 120 483 132 477.5 c 128,-1,10
 144 472 144 472 149 458 c 2,11,-1
 252 197 l 1,12,-1
 355 458 l 2,13,14
 360 472 360 472 371.5 477.5 c 128,-1,15
 383 483 383 483 397 483 c 0,16,17
 409 483 409 483 427 477.5 c 128,-1,18
 445 472 445 472 461.5 463 c 128,-1,19
 478 454 478 454 490 442 c 128,-1,20
 502 430 502 430 502 417 c 0,21,22
 502 408 502 408 498 399 c 2,23,-1
 322 14 l 2,24,25
 316 0 316 0 295.5 -6.5 c 128,-1,26
 275 -13 275 -13 252 -13 c 256,27,28
 229 -13 229 -13 208.5 -6.5 c 128,-1,29
 188 0 188 0 182 14 c 2,30,-1
 6 399 l 2,0,1
EndSplineSet
EndChar
StartChar: w
Encoding: 119 119 399
Width: 702
Flags: W
LayerCount: 2
Back
Fore
SplineSet
541 14 m 2,0,1
 535 -1 535 -1 518 -7 c 128,-1,2
 501 -13 501 -13 481 -13 c 0,3,4
 458 -13 458 -13 440 -6 c 128,-1,5
 422 1 422 1 417 14 c 2,6,-1
 351 188 l 1,7,-1
 285 14 l 2,8,9
 280 1 280 1 261.5 -6 c 128,-1,10
 243 -13 243 -13 220 -13 c 0,11,12
 201 -13 201 -13 184 -7 c 128,-1,13
 167 -1 167 -1 161 14 c 2,14,-1
 7 399 l 2,15,16
 4 407 4 407 3 411 c 128,-1,17
 2 415 2 415 2 420 c 0,18,19
 2 433 2 433 12.5 444.5 c 128,-1,20
 23 456 23 456 38 464.5 c 128,-1,21
 53 473 53 473 71 477.5 c 128,-1,22
 89 482 89 482 104 482 c 256,23,24
 119 482 119 482 130.5 476.5 c 128,-1,25
 142 471 142 471 147 458 c 2,26,-1
 236 204 l 1,27,-1
 300 419 l 2,28,29
 306 439 306 439 320 444 c 128,-1,30
 334 449 334 449 351 449 c 256,31,32
 368 449 368 449 382 444 c 128,-1,33
 396 439 396 439 402 419 c 2,34,-1
 466 204 l 1,35,-1
 555 458 l 2,36,37
 563 482 563 482 597 482 c 0,38,39
 611 482 611 482 629 477.5 c 128,-1,40
 647 473 647 473 662.5 464.5 c 128,-1,41
 678 456 678 456 688.5 444 c 128,-1,42
 699 432 699 432 699 418 c 0,43,44
 699 407 699 407 695 399 c 2,45,-1
 541 14 l 2,0,1
EndSplineSet
EndChar
StartChar: x
Encoding: 120 120 404
Width: 493
Flags: W
LayerCount: 2
Back
Fore
SplineSet
18 67 m 0,0,1
 18 74 18 74 20.5 81 c 128,-1,2
 23 88 23 88 27 93 c 2,3,-1
 140 243 l 1,4,-1
 38 379 l 2,5,6
 35 383 35 383 31.5 389.5 c 128,-1,7
 28 396 28 396 28 404 c 0,8,9
 28 417 28 417 39 431 c 128,-1,10
 50 445 50 445 65.5 456 c 128,-1,11
 81 467 81 467 99.5 474.5 c 128,-1,12
 118 482 118 482 133 482 c 0,13,14
 138 482 138 482 148.5 479.5 c 128,-1,15
 159 477 159 477 166 466 c 2,16,-1
 246 335 l 1,17,-1
 327 465 l 2,18,19
 333 475 333 475 343.5 478.5 c 128,-1,20
 354 482 354 482 362 482 c 0,21,22
 375 482 375 482 393 474.5 c 128,-1,23
 411 467 411 467 427 456 c 128,-1,24
 443 445 443 445 454 431 c 128,-1,25
 465 417 465 417 465 404 c 0,26,27
 465 393 465 393 455 379 c 2,28,-1
 352 242 l 1,29,-1
 466 93 l 2,30,31
 469 89 469 89 472 82 c 128,-1,32
 475 75 475 75 475 67 c 0,33,34
 475 55 475 55 465 41 c 128,-1,35
 455 27 455 27 439.5 16 c 128,-1,36
 424 5 424 5 406 -2.5 c 128,-1,37
 388 -10 388 -10 373 -10 c 0,38,39
 364 -10 364 -10 354 -6.5 c 128,-1,40
 344 -3 344 -3 338 6 c 2,41,-1
 246 144 l 1,42,-1
 155 6 l 2,43,44
 149 -2 149 -2 137.5 -6 c 128,-1,45
 126 -10 126 -10 118 -10 c 0,46,47
 106 -10 106 -10 89 -3 c 128,-1,48
 72 4 72 4 56 15 c 128,-1,49
 40 26 40 26 29 39.5 c 128,-1,50
 18 53 18 53 18 67 c 0,0,1
EndSplineSet
EndChar
StartChar: y
Encoding: 121 121 405
Width: 496
Flags: W
LayerCount: 2
Back
Fore
SplineSet
6 389 m 2,0,1
 1 399 1 399 1 409 c 0,2,3
 1 424 1 424 12 437.5 c 128,-1,4
 23 451 23 451 38.5 461 c 128,-1,5
 54 471 54 471 72.5 477 c 128,-1,6
 91 483 91 483 106 483 c 0,7,8
 120 483 120 483 132 477.5 c 128,-1,9
 144 472 144 472 149 458 c 2,10,-1
 262 187 l 1,11,-1
 345 458 l 2,12,13
 350 472 350 472 361.5 477.5 c 128,-1,14
 373 483 373 483 385 483 c 0,15,16
 398 483 398 483 416.5 477 c 128,-1,17
 435 471 435 471 452 460.5 c 128,-1,18
 469 450 469 450 480.5 436 c 128,-1,19
 492 422 492 422 492 406 c 0,20,21
 492 396 492 396 488 389 c 2,22,-1
 346 35 l 2,23,24
 327 -12 327 -12 310.5 -57.5 c 128,-1,25
 294 -103 294 -103 266.5 -138.5 c 128,-1,26
 239 -174 239 -174 193.5 -195.5 c 128,-1,27
 148 -217 148 -217 72 -217 c 0,28,29
 57 -217 57 -217 44 -215 c 128,-1,30
 31 -213 31 -213 21.5 -206 c 128,-1,31
 12 -199 12 -199 6.5 -186 c 128,-1,32
 1 -173 1 -173 1 -151 c 0,33,34
 1 -125 1 -125 9.5 -106 c 128,-1,35
 18 -87 18 -87 39 -87 c 0,36,37
 52 -87 52 -87 76 -84.5 c 128,-1,38
 100 -82 100 -82 123.5 -70 c 128,-1,39
 147 -58 147 -58 164 -32 c 128,-1,40
 181 -6 181 -6 181 41 c 1,41,-1
 6 389 l 2,0,1
EndSplineSet
EndChar
StartChar: z
Encoding: 122 122 411
Width: 448
Flags: W
LayerCount: 2
Back
Fore
SplineSet
390 125 m 2,0,1
 408 125 408 125 421 106.5 c 128,-1,2
 434 88 434 88 434 62 c 0,3,4
 434 37 434 37 422 18.5 c 128,-1,5
 410 0 410 0 390 0 c 2,6,-1
 69 0 l 2,7,8
 40 0 40 0 29 17.5 c 128,-1,9
 18 35 18 35 18 54 c 256,10,11
 18 73 18 73 26.5 89 c 128,-1,12
 35 105 35 105 45 118 c 2,13,-1
 222 351 l 1,14,-1
 69 351 l 2,15,16
 51 351 51 351 38 369.5 c 128,-1,17
 25 388 25 388 25 414 c 0,18,19
 25 439 25 439 37 457.5 c 128,-1,20
 49 476 49 476 69 476 c 2,21,-1
 368 476 l 2,22,23
 387 476 387 476 401.5 463.5 c 128,-1,24
 416 451 416 451 416 425 c 0,25,26
 416 391 416 391 391 358 c 2,27,-1
 213 125 l 1,28,-1
 390 125 l 2,0,1
EndSplineSet
EndChar
StartChar: braceleft
Encoding: 123 123 159
Width: 380
Flags: W
LayerCount: 2
Back
Fore
SplineSet
17 387 m 0,0,1
 17 413 17 413 26.5 423.5 c 128,-1,2
 36 434 36 434 47 439 c 128,-1,3
 58 444 58 444 67.5 449 c 128,-1,4
 77 454 77 454 77 469 c 0,5,6
 77 477 77 477 74.5 492.5 c 128,-1,7
 72 508 72 508 69.5 526.5 c 128,-1,8
 67 545 67 545 64.5 563 c 128,-1,9
 62 581 62 581 62 593 c 0,10,11
 62 627 62 627 81.5 658.5 c 128,-1,12
 101 690 101 690 132 714.5 c 128,-1,13
 163 739 163 739 202 753.5 c 128,-1,14
 241 768 241 768 281 768 c 0,15,16
 307 768 307 768 324 762 c 128,-1,17
 341 756 341 756 350.5 746 c 128,-1,18
 360 736 360 736 364 724 c 128,-1,19
 368 712 368 712 368 700 c 0,20,21
 368 678 368 678 356.5 657.5 c 128,-1,22
 345 637 345 637 321 637 c 0,23,24
 310 637 310 637 292.5 634.5 c 128,-1,25
 275 632 275 632 258.5 625 c 128,-1,26
 242 618 242 618 230 605 c 128,-1,27
 218 592 218 592 218 572 c 0,28,29
 218 563 218 563 220.5 546 c 128,-1,30
 223 529 223 529 225.5 510.5 c 128,-1,31
 228 492 228 492 230.5 475 c 128,-1,32
 233 458 233 458 233 449 c 0,33,34
 233 438 233 438 229 427 c 128,-1,35
 225 416 225 416 219.5 407 c 128,-1,36
 214 398 214 398 207.5 391.5 c 128,-1,37
 201 385 201 385 197 384 c 1,38,39
 208 381 208 381 220.5 362 c 128,-1,40
 233 343 233 343 233 320 c 0,41,42
 233 311 233 311 230.5 288 c 128,-1,43
 228 265 228 265 225.5 240 c 128,-1,44
 223 215 223 215 220.5 193 c 128,-1,45
 218 171 218 171 218 164 c 0,46,47
 218 148 218 148 229 137.5 c 128,-1,48
 240 127 240 127 256 121 c 128,-1,49
 272 115 272 115 290 113 c 128,-1,50
 308 111 308 111 321 111 c 0,51,52
 335 111 335 111 344 104.5 c 128,-1,53
 353 98 353 98 358.5 88 c 128,-1,54
 364 78 364 78 366 66.5 c 128,-1,55
 368 55 368 55 368 46 c 0,56,57
 368 -20 368 -20 279 -20 c 0,58,59
 240 -20 240 -20 201 -8 c 128,-1,60
 162 4 162 4 131 26 c 128,-1,61
 100 48 100 48 81 78 c 128,-1,62
 62 108 62 108 62 144 c 0,63,64
 62 157 62 157 64.5 180 c 128,-1,65
 67 203 67 203 69.5 227 c 128,-1,66
 72 251 72 251 74.5 272 c 128,-1,67
 77 293 77 293 77 301 c 0,68,69
 77 317 77 317 67.5 322.5 c 128,-1,70
 58 328 58 328 47 333.5 c 128,-1,71
 36 339 36 339 26.5 349.5 c 128,-1,72
 17 360 17 360 17 387 c 0,0,1
EndSplineSet
EndChar
StartChar: bar
Encoding: 124 124 158
Width: 255
Flags: W
LayerCount: 2
Back
Fore
SplineSet
127 768 m 0,0,1
 159 768 159 768 182 755 c 128,-1,2
 205 742 205 742 205 721 c 2,3,-1
 205 27 l 2,4,5
 205 9 205 9 182 -6 c 128,-1,6
 159 -21 159 -21 127 -21 c 0,7,8
 93 -21 93 -21 71.5 -6 c 128,-1,9
 50 9 50 9 50 27 c 2,10,-1
 50 721 l 2,11,12
 50 742 50 742 71.5 755 c 128,-1,13
 93 768 93 768 127 768 c 0,0,1
EndSplineSet
EndChar
StartChar: braceright
Encoding: 125 125 160
Width: 380
Flags: W
LayerCount: 2
Back
Fore
SplineSet
363 387 m 0,0,1
 363 360 363 360 353.5 349.5 c 128,-1,2
 344 339 344 339 333 333.5 c 128,-1,3
 322 328 322 328 312.5 322.5 c 128,-1,4
 303 317 303 317 303 301 c 0,5,6
 303 293 303 293 305.5 272 c 128,-1,7
 308 251 308 251 310.5 227 c 128,-1,8
 313 203 313 203 315.5 180 c 128,-1,9
 318 157 318 157 318 144 c 0,10,11
 318 108 318 108 299 78 c 128,-1,12
 280 48 280 48 249 26 c 128,-1,13
 218 4 218 4 179 -8 c 128,-1,14
 140 -20 140 -20 101 -20 c 0,15,16
 12 -20 12 -20 12 46 c 0,17,18
 12 55 12 55 14 66.5 c 128,-1,19
 16 78 16 78 21.5 88 c 128,-1,20
 27 98 27 98 36 104.5 c 128,-1,21
 45 111 45 111 59 111 c 0,22,23
 72 111 72 111 90 113 c 128,-1,24
 108 115 108 115 124 121 c 128,-1,25
 140 127 140 127 151 137.5 c 128,-1,26
 162 148 162 148 162 164 c 0,27,28
 162 171 162 171 159.5 193 c 128,-1,29
 157 215 157 215 154.5 240 c 128,-1,30
 152 265 152 265 149.5 288 c 128,-1,31
 147 311 147 311 147 320 c 0,32,33
 147 343 147 343 159.5 362 c 128,-1,34
 172 381 172 381 183 384 c 1,35,36
 178 385 178 385 172 391.5 c 128,-1,37
 166 398 166 398 160.5 407 c 128,-1,38
 155 416 155 416 151 427 c 128,-1,39
 147 438 147 438 147 449 c 0,40,41
 147 458 147 458 149.5 475 c 128,-1,42
 152 492 152 492 154.5 510.5 c 128,-1,43
 157 529 157 529 159.5 546 c 128,-1,44
 162 563 162 563 162 572 c 0,45,46
 162 592 162 592 150 605 c 128,-1,47
 138 618 138 618 121.5 625 c 128,-1,48
 105 632 105 632 87.5 634.5 c 128,-1,49
 70 637 70 637 59 637 c 0,50,51
 35 637 35 637 23.5 657.5 c 128,-1,52
 12 678 12 678 12 700 c 0,53,54
 12 712 12 712 16 724 c 128,-1,55
 20 736 20 736 29.5 746 c 128,-1,56
 39 756 39 756 56 762 c 128,-1,57
 73 768 73 768 99 768 c 0,58,59
 139 768 139 768 178 753.5 c 128,-1,60
 217 739 217 739 248 714.5 c 128,-1,61
 279 690 279 690 298.5 658.5 c 128,-1,62
 318 627 318 627 318 593 c 0,63,64
 318 581 318 581 315.5 563 c 128,-1,65
 313 545 313 545 310.5 526.5 c 128,-1,66
 308 508 308 508 305.5 492.5 c 128,-1,67
 303 477 303 477 303 469 c 0,68,69
 303 454 303 454 312.5 449 c 128,-1,70
 322 444 322 444 333 439 c 128,-1,71
 344 434 344 434 353.5 423.5 c 128,-1,72
 363 413 363 413 363 387 c 0,0,1
EndSplineSet
EndChar
StartChar: asciitilde
Encoding: 126 126 151
Width: 411
Flags: W
LayerCount: 2
Back
Fore
SplineSet
152 219 m 0,0,1
 136 219 136 219 124 215.5 c 128,-1,2
 112 212 112 212 102 208.5 c 128,-1,3
 92 205 92 205 83.5 201.5 c 128,-1,4
 75 198 75 198 66 198 c 0,5,6
 54 198 54 198 47 204 c 128,-1,7
 40 210 40 210 35.5 218.5 c 128,-1,8
 31 227 31 227 29.5 235 c 128,-1,9
 28 243 28 243 28 247 c 0,10,11
 28 274 28 274 38.5 288.5 c 128,-1,12
 49 303 49 303 63.5 310 c 128,-1,13
 78 317 78 317 92 318.5 c 128,-1,14
 106 320 106 320 113 320 c 0,15,16
 136 320 136 320 154 316 c 128,-1,17
 172 312 172 312 188.5 306.5 c 128,-1,18
 205 301 205 301 221.5 297 c 128,-1,19
 238 293 238 293 259 293 c 0,20,21
 275 293 275 293 287 296.5 c 128,-1,22
 299 300 299 300 309 303.5 c 128,-1,23
 319 307 319 307 327.5 310.5 c 128,-1,24
 336 314 336 314 345 314 c 0,25,26
 357 314 357 314 364 307.5 c 128,-1,27
 371 301 371 301 375.5 293 c 128,-1,28
 380 285 380 285 381.5 277 c 128,-1,29
 383 269 383 269 383 265 c 0,30,31
 383 238 383 238 372.5 223.5 c 128,-1,32
 362 209 362 209 347.5 202 c 128,-1,33
 333 195 333 195 319 193.5 c 128,-1,34
 305 192 305 192 298 192 c 0,35,36
 271 192 271 192 252 196 c 128,-1,37
 233 200 233 200 216.5 205.5 c 128,-1,38
 200 211 200 211 185 215 c 128,-1,39
 170 219 170 219 152 219 c 0,0,1
EndSplineSet
EndChar
StartChar: exclamdown
Encoding: 161 161 215
Width: 229
Flags: W
LayerCount: 2
Back
Fore
SplineSet
42 55 m 0,0,1
 42 100 42 100 44 152.5 c 128,-1,2
 46 205 46 205 49 259.5 c 128,-1,3
 52 314 52 314 54 366.5 c 128,-1,4
 56 419 56 419 56 464 c 0,5,6
 56 487 56 487 76 497.5 c 128,-1,7
 96 508 96 508 114 508 c 0,8,9
 138 508 138 508 155.5 497.5 c 128,-1,10
 173 487 173 487 173 464 c 0,11,12
 173 419 173 419 175 366.5 c 128,-1,13
 177 314 177 314 180 259.5 c 128,-1,14
 183 205 183 205 185 152.5 c 128,-1,15
 187 100 187 100 187 55 c 0,16,17
 187 26 187 26 166 10 c 128,-1,18
 145 -6 145 -6 114 -6 c 0,19,20
 85 -6 85 -6 63.5 10 c 128,-1,21
 42 26 42 26 42 55 c 0,0,1
113 577 m 0,22,23
 82 577 82 577 59.5 599.5 c 128,-1,24
 37 622 37 622 37 654 c 0,25,26
 37 685 37 685 59.5 708 c 128,-1,27
 82 731 82 731 113 731 c 0,28,29
 146 731 146 731 168 708 c 128,-1,30
 190 685 190 685 190 654 c 0,31,32
 190 622 190 622 168 599.5 c 128,-1,33
 146 577 146 577 113 577 c 0,22,23
EndSplineSet
EndChar
StartChar: cent
Encoding: 162 162 175
Width: 448
Flags: W
LayerCount: 2
Back
Fore
SplineSet
260 695 m 0,0,1
 277 695 277 695 290.5 684 c 128,-1,2
 304 673 304 673 304 655 c 2,3,-1
 304 587 l 1,4,5
 355 579 355 579 386 557 c 128,-1,6
 417 535 417 535 417 509 c 0,7,8
 417 498 417 498 412.5 485.5 c 128,-1,9
 408 473 408 473 400.5 462.5 c 128,-1,10
 393 452 393 452 381.5 445 c 128,-1,11
 370 438 370 438 357 438 c 0,12,13
 345 438 345 438 333 445.5 c 128,-1,14
 321 453 321 453 304 460 c 1,15,-1
 304 283 l 1,16,17
 321 291 321 291 332 299.5 c 128,-1,18
 343 308 343 308 357 308 c 0,19,20
 373 308 373 308 385 301.5 c 128,-1,21
 397 295 397 295 405.5 284.5 c 128,-1,22
 414 274 414 274 418.5 261.5 c 128,-1,23
 423 249 423 249 423 238 c 0,24,25
 423 211 423 211 389.5 187.5 c 128,-1,26
 356 164 356 164 304 154 c 1,27,-1
 304 81 l 2,28,29
 304 65 304 65 290.5 52 c 128,-1,30
 277 39 277 39 260 39 c 0,31,32
 242 39 242 39 229.5 52 c 128,-1,33
 217 65 217 65 217 81 c 2,34,-1
 217 151 l 1,35,36
 166 155 166 155 129.5 173 c 128,-1,37
 93 191 93 191 69 219 c 128,-1,38
 45 247 45 247 34 283.5 c 128,-1,39
 23 320 23 320 23 362 c 2,40,-1
 23 380 l 2,41,42
 23 422 23 422 34.5 458.5 c 128,-1,43
 46 495 46 495 69.5 523 c 128,-1,44
 93 551 93 551 129.5 568.5 c 128,-1,45
 166 586 166 586 217 591 c 1,46,-1
 217 655 l 2,47,48
 217 673 217 673 229.5 684 c 128,-1,49
 242 695 242 695 260 695 c 0,0,1
158 362 m 2,50,51
 158 330 158 330 171.5 309 c 128,-1,52
 185 288 185 288 217 280 c 1,53,-1
 217 462 l 1,54,55
 185 454 185 454 171.5 433 c 128,-1,56
 158 412 158 412 158 380 c 2,57,-1
 158 362 l 2,50,51
EndSplineSet
EndChar
StartChar: sterling
Encoding: 163 163 365
Width: 565
Flags: W
LayerCount: 2
Back
Fore
SplineSet
489 136 m 2,0,1
 512 136 512 136 523 115 c 128,-1,2
 534 94 534 94 534 68 c 256,3,4
 534 42 534 42 523 21 c 128,-1,5
 512 0 512 0 489 0 c 2,6,-1
 65 0 l 2,7,8
 42 0 42 0 31 21 c 128,-1,9
 20 42 20 42 20 68 c 256,10,11
 20 94 20 94 31 115 c 128,-1,12
 42 136 42 136 65 136 c 2,13,-1
 115 136 l 1,14,-1
 147 366 l 1,15,-1
 100 366 l 2,16,17
 81 366 81 366 71.5 383 c 128,-1,18
 62 400 62 400 62 421 c 0,19,20
 62 441 62 441 71.5 458.5 c 128,-1,21
 81 476 81 476 100 476 c 2,22,-1
 163 476 l 1,23,-1
 173 545 l 2,24,25
 180 594 180 594 204.5 635.5 c 128,-1,26
 229 677 229 677 265.5 706 c 128,-1,27
 302 735 302 735 347.5 751.5 c 128,-1,28
 393 768 393 768 442 768 c 2,29,-1
 484 768 l 2,30,31
 508 768 508 768 521 747 c 128,-1,32
 534 726 534 726 534 701 c 256,33,34
 534 676 534 676 521 654.5 c 128,-1,35
 508 633 508 633 484 633 c 2,36,-1
 437 633 l 2,37,38
 383 633 383 633 358 608 c 128,-1,39
 333 583 333 583 328 545 c 2,40,-1
 318 476 l 1,41,-1
 425 476 l 2,42,43
 444 476 444 476 453.5 458.5 c 128,-1,44
 463 441 463 441 463 421 c 0,45,46
 463 400 463 400 453.5 383 c 128,-1,47
 444 366 444 366 425 366 c 2,48,-1
 302 366 l 1,49,-1
 269 136 l 1,50,-1
 489 136 l 2,0,1
EndSplineSet
EndChar
StartChar: currency
Encoding: 164 164 181
Width: 440
Flags: W
LayerCount: 2
Back
Fore
SplineSet
220 652 m 0,0,1
 250 652 250 652 278 641.5 c 128,-1,2
 306 631 306 631 329 613 c 1,3,-1
 353 635 l 2,4,5
 359 640 359 640 367 640 c 0,6,7
 379 640 379 640 388.5 630 c 128,-1,8
 398 620 398 620 398 609 c 0,9,10
 398 602 398 602 392 596 c 2,11,-1
 366 572 l 1,12,13
 381 551 381 551 389.5 525.5 c 128,-1,14
 398 500 398 500 398 473 c 0,15,16
 398 445 398 445 389.5 419.5 c 128,-1,17
 381 394 381 394 366 372 c 1,18,-1
 392 348 l 2,19,20
 398 342 398 342 398 335 c 0,21,22
 398 324 398 324 388.5 314 c 128,-1,23
 379 304 379 304 367 304 c 0,24,25
 359 304 359 304 353 309 c 2,26,-1
 329 331 l 1,27,28
 306 311 306 311 278 300.5 c 128,-1,29
 250 290 250 290 220 290 c 256,30,31
 190 290 190 290 162 300.5 c 128,-1,32
 134 311 134 311 111 330 c 1,33,-1
 87 309 l 2,34,35
 81 304 81 304 73 304 c 0,36,37
 61 304 61 304 51.5 314 c 128,-1,38
 42 324 42 324 42 335 c 0,39,40
 42 342 42 342 48 348 c 2,41,-1
 74 372 l 1,42,43
 43 417 43 417 43 472 c 256,44,45
 43 527 43 527 74 572 c 1,46,-1
 48 596 l 2,47,48
 42 602 42 602 42 609 c 0,49,50
 42 620 42 620 51.5 630 c 128,-1,51
 61 640 61 640 73 640 c 0,52,53
 81 640 81 640 87 635 c 2,54,-1
 111 613 l 1,55,56
 134 631 134 631 161.5 641.5 c 128,-1,57
 189 652 189 652 220 652 c 0,0,1
318 471 m 256,58,59
 318 490 318 490 310.5 508 c 128,-1,60
 303 526 303 526 289.5 540 c 128,-1,61
 276 554 276 554 258.5 562.5 c 128,-1,62
 241 571 241 571 220 571 c 0,63,64
 200 571 200 571 182 562.5 c 128,-1,65
 164 554 164 554 151 540.5 c 128,-1,66
 138 527 138 527 130.5 509 c 128,-1,67
 123 491 123 491 123 472 c 0,68,69
 123 452 123 452 130.5 434 c 128,-1,70
 138 416 138 416 151 402 c 128,-1,71
 164 388 164 388 182 379.5 c 128,-1,72
 200 371 200 371 220 371 c 256,73,74
 240 371 240 371 258 379.5 c 128,-1,75
 276 388 276 388 289.5 402 c 128,-1,76
 303 416 303 416 310.5 434 c 128,-1,77
 318 452 318 452 318 471 c 256,58,59
EndSplineSet
EndChar
StartChar: yen
Encoding: 165 165 409
Width: 587
Flags: W
LayerCount: 2
Back
Fore
SplineSet
88 362 m 256,0,1
 88 385 88 385 101 401 c 128,-1,2
 114 417 114 417 135 417 c 2,3,-1
 181 417 l 1,4,-1
 25 656 l 2,5,6
 22 660 22 660 21 665.5 c 128,-1,7
 20 671 20 671 20 674 c 0,8,9
 20 686 20 686 29 697.5 c 128,-1,10
 38 709 38 709 52 718 c 128,-1,11
 66 727 66 727 82.5 732.5 c 128,-1,12
 99 738 99 738 114 738 c 0,13,14
 131 738 131 738 139.5 727.5 c 128,-1,15
 148 717 148 717 156 702 c 2,16,-1
 294 451 l 1,17,-1
 431 702 l 2,18,19
 439 717 439 717 447.5 727.5 c 128,-1,20
 456 738 456 738 473 738 c 0,21,22
 488 738 488 738 504.5 732 c 128,-1,23
 521 726 521 726 535 717 c 128,-1,24
 549 708 549 708 558 696.5 c 128,-1,25
 567 685 567 685 567 675 c 0,26,27
 567 664 567 664 562 656 c 2,28,-1
 406 417 l 1,29,-1
 455 417 l 2,30,31
 473 417 473 417 488 401.5 c 128,-1,32
 503 386 503 386 503 363 c 256,33,34
 503 340 503 340 488 325 c 128,-1,35
 473 310 473 310 455 310 c 2,36,-1
 372 310 l 1,37,-1
 372 250 l 1,38,-1
 455 250 l 2,39,40
 473 250 473 250 488 234.5 c 128,-1,41
 503 219 503 219 503 196 c 256,42,43
 503 173 503 173 488 158 c 128,-1,44
 473 143 473 143 455 143 c 2,45,-1
 372 143 l 1,46,-1
 372 48 l 2,47,48
 372 24 372 24 347.5 12 c 128,-1,49
 323 0 323 0 294 0 c 256,50,51
 265 0 265 0 240.5 12 c 128,-1,52
 216 24 216 24 216 48 c 2,53,-1
 216 143 l 1,54,-1
 135 143 l 2,55,56
 114 143 114 143 101 157.5 c 128,-1,57
 88 172 88 172 88 195 c 256,58,59
 88 218 88 218 101 234 c 128,-1,60
 114 250 114 250 135 250 c 2,61,-1
 216 250 l 1,62,-1
 216 310 l 1,63,-1
 135 310 l 2,64,65
 114 310 114 310 101 324.5 c 128,-1,66
 88 339 88 339 88 362 c 256,0,1
EndSplineSet
EndChar
StartChar: brokenbar
Encoding: 166 166 164
Width: 255
Flags: W
LayerCount: 2
Back
Fore
SplineSet
127 768 m 0,0,1
 159 768 159 768 182 755 c 128,-1,2
 205 742 205 742 205 721 c 2,3,-1
 205 480 l 2,4,5
 205 462 205 462 182 447 c 128,-1,6
 159 432 159 432 127 432 c 0,7,8
 93 432 93 432 71.5 447 c 128,-1,9
 50 462 50 462 50 480 c 2,10,-1
 50 721 l 2,11,12
 50 742 50 742 71.5 755 c 128,-1,13
 93 768 93 768 127 768 c 0,0,1
127 315 m 0,14,15
 159 315 159 315 182 302 c 128,-1,16
 205 289 205 289 205 268 c 2,17,-1
 205 27 l 2,18,19
 205 9 205 9 182 -6 c 128,-1,20
 159 -21 159 -21 127 -21 c 0,21,22
 93 -21 93 -21 71.5 -6 c 128,-1,23
 50 9 50 9 50 27 c 2,24,-1
 50 268 l 2,25,26
 50 289 50 289 71.5 302 c 128,-1,27
 93 315 93 315 127 315 c 0,14,15
EndSplineSet
EndChar
StartChar: section
Encoding: 167 167 354
Width: 485
Flags: W
LayerCount: 2
Back
Fore
SplineSet
38 517 m 2,0,1
 38 582 38 582 57.5 623.5 c 128,-1,2
 77 665 77 665 107 689 c 128,-1,3
 137 713 137 713 173 722 c 128,-1,4
 209 731 209 731 242 731 c 0,5,6
 290 731 290 731 325.5 715.5 c 128,-1,7
 361 700 361 700 384.5 676 c 128,-1,8
 408 652 408 652 419.5 622 c 128,-1,9
 431 592 431 592 431 562 c 0,10,11
 431 526 431 526 415.5 514.5 c 128,-1,12
 400 503 400 503 374 503 c 0,13,14
 336 503 336 503 322.5 517.5 c 128,-1,15
 309 532 309 532 309 550 c 0,16,17
 309 560 309 560 306.5 570 c 128,-1,18
 304 580 304 580 297 588 c 128,-1,19
 290 596 290 596 278 601.5 c 128,-1,20
 266 607 266 607 247 607 c 0,21,22
 210 607 210 607 195 589.5 c 128,-1,23
 180 572 180 572 180 552 c 0,24,25
 180 526 180 526 200 510 c 128,-1,26
 220 494 220 494 250 480 c 128,-1,27
 280 466 280 466 315.5 450 c 128,-1,28
 351 434 351 434 381 408.5 c 128,-1,29
 411 383 411 383 431 344 c 128,-1,30
 451 305 451 305 451 245 c 2,31,-1
 451 145 l 2,32,33
 451 80 451 80 430.5 38.5 c 128,-1,34
 410 -3 410 -3 378.5 -27 c 128,-1,35
 347 -51 347 -51 309 -60 c 128,-1,36
 271 -69 271 -69 237 -69 c 0,37,38
 186 -69 186 -69 149 -53.5 c 128,-1,39
 112 -38 112 -38 87 -14 c 128,-1,40
 62 10 62 10 50 40 c 128,-1,41
 38 70 38 70 38 99 c 0,42,43
 38 134 38 134 55 146.5 c 128,-1,44
 72 159 72 159 103 159 c 0,45,46
 141 159 141 159 155 147 c 128,-1,47
 169 135 169 135 169 118 c 0,48,49
 169 108 169 108 170.5 97.5 c 128,-1,50
 172 87 172 87 178 78 c 128,-1,51
 184 69 184 69 196 63.5 c 128,-1,52
 208 58 208 58 229 58 c 0,53,54
 266 58 266 58 280.5 74 c 128,-1,55
 295 90 295 90 295 110 c 0,56,57
 295 136 295 136 276 152 c 128,-1,58
 257 168 257 168 228.5 182 c 128,-1,59
 200 196 200 196 166.5 212 c 128,-1,60
 133 228 133 228 104.5 253.5 c 128,-1,61
 76 279 76 279 57 318 c 128,-1,62
 38 357 38 357 38 417 c 2,63,-1
 38 517 l 2,0,1
326 266 m 2,64,65
 326 300 326 300 307.5 320.5 c 128,-1,66
 289 341 289 341 263.5 354 c 128,-1,67
 238 367 238 367 210.5 377 c 128,-1,68
 183 387 183 387 165 402 c 1,69,-1
 165 384 l 2,70,71
 165 349 165 349 183.5 329 c 128,-1,72
 202 309 202 309 227.5 296 c 128,-1,73
 253 283 253 283 280.5 273 c 128,-1,74
 308 263 308 263 326 248 c 1,75,-1
 326 266 l 2,64,65
EndSplineSet
EndChar
StartChar: dieresis
Encoding: 168 168 188
Width: 273
Flags: W
LayerCount: 2
Back
Fore
SplineSet
57 688 m 256,0,1
 80 688 80 688 96.5 670.5 c 128,-1,2
 113 653 113 653 113 630 c 256,3,4
 113 607 113 607 96.5 589 c 128,-1,5
 80 571 80 571 57 571 c 256,6,7
 34 571 34 571 17 589 c 128,-1,8
 0 607 0 607 0 630 c 256,9,10
 0 653 0 653 17 670.5 c 128,-1,11
 34 688 34 688 57 688 c 256,0,1
217 688 m 256,12,13
 240 688 240 688 256.5 670.5 c 128,-1,14
 273 653 273 653 273 630 c 256,15,16
 273 607 273 607 256.5 589 c 128,-1,17
 240 571 240 571 217 571 c 256,18,19
 194 571 194 571 177 589 c 128,-1,20
 160 607 160 607 160 630 c 256,21,22
 160 653 160 653 177 670.5 c 128,-1,23
 194 688 194 688 217 688 c 256,12,13
EndSplineSet
EndChar
StartChar: copyright
Encoding: 169 169 180
Width: 680
Flags: W
LayerCount: 2
Back
Fore
SplineSet
33 358 m 0,0,1
 33 442 33 442 62 503.5 c 128,-1,2
 91 565 91 565 136 605.5 c 128,-1,3
 181 646 181 646 236 665.5 c 128,-1,4
 291 685 291 685 343 685 c 0,5,6
 396 685 396 685 450 665 c 128,-1,7
 504 645 504 645 548 605 c 128,-1,8
 592 565 592 565 619.5 504 c 128,-1,9
 647 443 647 443 647 362 c 0,10,11
 647 278 647 278 618 216.5 c 128,-1,12
 589 155 589 155 544 114.5 c 128,-1,13
 499 74 499 74 444 54.5 c 128,-1,14
 389 35 389 35 337 35 c 0,15,16
 284 35 284 35 230 55 c 128,-1,17
 176 75 176 75 132 115 c 128,-1,18
 88 155 88 155 60.5 216 c 128,-1,19
 33 277 33 277 33 358 c 0,0,1
577 362 m 0,20,21
 577 417 577 417 560.5 463.5 c 128,-1,22
 544 510 544 510 513.5 543.5 c 128,-1,23
 483 577 483 577 440 596 c 128,-1,24
 397 615 397 615 343 615 c 256,25,26
 289 615 289 615 245 596.5 c 128,-1,27
 201 578 201 578 169.5 544 c 128,-1,28
 138 510 138 510 120.5 462.5 c 128,-1,29
 103 415 103 415 103 358 c 0,30,31
 103 303 103 303 119.5 256.5 c 128,-1,32
 136 210 136 210 166 176.5 c 128,-1,33
 196 143 196 143 239.5 124 c 128,-1,34
 283 105 283 105 337 105 c 256,35,36
 391 105 391 105 435 123.5 c 128,-1,37
 479 142 479 142 510.5 176 c 128,-1,38
 542 210 542 210 559.5 257.5 c 128,-1,39
 577 305 577 305 577 362 c 0,20,21
390 439 m 0,40,41
 390 445 390 445 389 453.5 c 128,-1,42
 388 462 388 462 383.5 470 c 128,-1,43
 379 478 379 478 369.5 484 c 128,-1,44
 360 490 360 490 344 490 c 0,45,46
 297 490 297 490 297 432 c 2,47,-1
 297 302 l 2,48,49
 297 244 297 244 344 244 c 0,50,51
 360 244 360 244 368.5 250 c 128,-1,52
 377 256 377 256 381.5 264.5 c 128,-1,53
 386 273 386 273 387.5 283 c 128,-1,54
 389 293 389 293 390 301 c 0,55,56
 391 316 391 316 402.5 321 c 128,-1,57
 414 326 414 326 430 326 c 0,58,59
 451 326 451 326 461 318 c 128,-1,60
 471 310 471 310 471 286 c 0,61,62
 471 231 471 231 434 201 c 128,-1,63
 397 171 397 171 341 171 c 0,64,65
 315 171 315 171 292.5 178 c 128,-1,66
 270 185 270 185 253 200.5 c 128,-1,67
 236 216 236 216 226 241 c 128,-1,68
 216 266 216 266 216 302 c 2,69,-1
 216 432 l 2,70,71
 216 468 216 468 226 493 c 128,-1,72
 236 518 236 518 253 533.5 c 128,-1,73
 270 549 270 549 292.5 556 c 128,-1,74
 315 563 315 563 341 563 c 0,75,76
 397 563 397 563 434 534.5 c 128,-1,77
 471 506 471 506 471 453 c 0,78,79
 471 429 471 429 461 421 c 128,-1,80
 451 413 451 413 431 413 c 0,81,82
 414 413 414 413 402.5 419 c 128,-1,83
 391 425 391 425 390 439 c 0,40,41
EndSplineSet
EndChar
StartChar: ordfeminine
Encoding: 170 170 309
Width: 338
Flags: W
LayerCount: 2
Back
Fore
SplineSet
153 768 m 0,0,1
 194 768 194 768 223 757 c 128,-1,2
 252 746 252 746 270 727 c 128,-1,3
 288 708 288 708 296.5 684 c 128,-1,4
 305 660 305 660 305 634 c 2,5,-1
 305 471 l 2,6,7
 305 458 305 458 291.5 449 c 128,-1,8
 278 440 278 440 256 440 c 0,9,10
 237 440 237 440 224.5 449 c 128,-1,11
 212 458 212 458 212 471 c 2,12,-1
 212 488 l 1,13,14
 198 471 198 471 180 457.5 c 128,-1,15
 162 444 162 444 139 438 c 0,16,17
 126 434 126 434 107 434 c 0,18,19
 72 435 72 435 46.5 456.5 c 128,-1,20
 21 478 21 478 21 524 c 0,21,22
 21 554 21 554 32.5 573.5 c 128,-1,23
 44 593 44 593 65 604.5 c 128,-1,24
 86 616 86 616 115.5 621 c 128,-1,25
 145 626 145 626 180 626 c 2,26,-1
 205 626 l 1,27,-1
 205 633 l 2,28,29
 205 652 205 652 193.5 669.5 c 128,-1,30
 182 687 182 687 152 687 c 0,31,32
 131 687 131 687 119 683.5 c 128,-1,33
 107 680 107 680 99 676 c 128,-1,34
 91 672 91 672 85.5 668.5 c 128,-1,35
 80 665 80 665 73 665 c 0,36,37
 56 665 56 665 47.5 681.5 c 128,-1,38
 39 698 39 698 39 715 c 0,39,40
 39 727 39 727 50 736.5 c 128,-1,41
 61 746 61 746 77.5 753 c 128,-1,42
 94 760 94 760 114.5 764 c 128,-1,43
 135 768 135 768 153 768 c 0,0,1
205 576 m 1,44,-1
 187 576 l 2,45,46
 161 576 161 576 141.5 568 c 128,-1,47
 122 560 122 560 122 538 c 0,48,49
 122 521 122 521 130 514 c 128,-1,50
 138 507 138 507 151 507 c 0,51,52
 169 507 169 507 187 525.5 c 128,-1,53
 205 544 205 544 205 570 c 2,54,-1
 205 576 l 1,44,-1
EndSplineSet
EndChar
StartChar: guillemotleft
Encoding: 171 171 238
Width: 537
Flags: W
LayerCount: 2
Back
Fore
SplineSet
253 166 m 2,0,1
 256 160 256 160 256 152 c 0,2,3
 256 140 256 140 248 126.5 c 128,-1,4
 240 113 240 113 226.5 101.5 c 128,-1,5
 213 90 213 90 195 82 c 128,-1,6
 177 74 177 74 158 74 c 0,7,8
 143 74 143 74 132 79 c 128,-1,9
 121 84 121 84 116 93 c 2,10,-1
 49 218 l 2,11,12
 37 241 37 241 29 251.5 c 128,-1,13
 21 262 21 262 21 276 c 256,14,15
 21 290 21 290 29 301.5 c 128,-1,16
 37 313 37 313 49 336 c 2,17,-1
 116 461 l 2,18,19
 121 470 121 470 132 475 c 128,-1,20
 143 480 143 480 158 480 c 0,21,22
 177 480 177 480 195 472 c 128,-1,23
 213 464 213 464 226.5 452.5 c 128,-1,24
 240 441 240 441 248 427.5 c 128,-1,25
 256 414 256 414 256 402 c 0,26,27
 256 394 256 394 253 388 c 2,28,-1
 194 277 l 1,29,-1
 253 166 l 2,0,1
503 166 m 2,30,31
 506 160 506 160 506 152 c 0,32,33
 506 140 506 140 498 126.5 c 128,-1,34
 490 113 490 113 476.5 101.5 c 128,-1,35
 463 90 463 90 445 82 c 128,-1,36
 427 74 427 74 408 74 c 0,37,38
 393 74 393 74 382 79 c 128,-1,39
 371 84 371 84 366 93 c 2,40,-1
 299 218 l 2,41,42
 287 241 287 241 279 251.5 c 128,-1,43
 271 262 271 262 271 276 c 256,44,45
 271 290 271 290 279 301.5 c 128,-1,46
 287 313 287 313 299 336 c 2,47,-1
 366 461 l 2,48,49
 371 470 371 470 382 475 c 128,-1,50
 393 480 393 480 408 480 c 0,51,52
 427 480 427 480 445 472 c 128,-1,53
 463 464 463 464 476.5 452.5 c 128,-1,54
 490 441 490 441 498 427.5 c 128,-1,55
 506 414 506 414 506 402 c 0,56,57
 506 394 506 394 503 388 c 2,58,-1
 444 277 l 1,59,-1
 503 166 l 2,30,31
EndSplineSet
EndChar
StartChar: logicalnot
Encoding: 172 172 271
Width: 504
Flags: W
LayerCount: 2
Back
Fore
SplineSet
26 240 m 0,0,1
 26 267 26 267 39 285.5 c 128,-1,2
 52 304 52 304 73 304 c 2,3,-1
 414 304 l 2,4,5
 432 304 432 304 447 285.5 c 128,-1,6
 462 267 462 267 462 240 c 2,7,-1
 462 111 l 2,8,9
 462 93 462 93 439 78 c 128,-1,10
 416 63 416 63 384 63 c 0,11,12
 350 63 350 63 328.5 78 c 128,-1,13
 307 93 307 93 307 111 c 2,14,-1
 307 177 l 1,15,-1
 73 177 l 2,16,17
 52 177 52 177 39 194 c 128,-1,18
 26 211 26 211 26 240 c 0,0,1
EndSplineSet
EndChar
StartChar: registered
Encoding: 174 174 345
Width: 680
Flags: W
LayerCount: 2
Back
Fore
SplineSet
33 358 m 0,0,1
 33 442 33 442 62 503.5 c 128,-1,2
 91 565 91 565 136 605.5 c 128,-1,3
 181 646 181 646 236 665.5 c 128,-1,4
 291 685 291 685 343 685 c 0,5,6
 396 685 396 685 450 665 c 128,-1,7
 504 645 504 645 548 605 c 128,-1,8
 592 565 592 565 619.5 504 c 128,-1,9
 647 443 647 443 647 362 c 0,10,11
 647 278 647 278 618 216.5 c 128,-1,12
 589 155 589 155 544 114.5 c 128,-1,13
 499 74 499 74 444 54.5 c 128,-1,14
 389 35 389 35 337 35 c 0,15,16
 284 35 284 35 230 55 c 128,-1,17
 176 75 176 75 132 115 c 128,-1,18
 88 155 88 155 60.5 216 c 128,-1,19
 33 277 33 277 33 358 c 0,0,1
228 522 m 2,20,21
 228 532 228 532 235 539.5 c 128,-1,22
 242 547 242 547 253 547 c 2,23,-1
 354 547 l 2,24,25
 378 547 378 547 400.5 541.5 c 128,-1,26
 423 536 423 536 439.5 523.5 c 128,-1,27
 456 511 456 511 466 490 c 128,-1,28
 476 469 476 469 476 439 c 0,29,30
 476 398 476 398 458 373 c 128,-1,31
 440 348 440 348 413 337 c 1,32,-1
 472 229 l 2,33,34
 473 227 473 227 473 222 c 0,35,36
 473 206 473 206 459.5 193.5 c 128,-1,37
 446 181 446 181 432 181 c 0,38,39
 417 181 417 181 409 198 c 2,40,-1
 346 324 l 1,41,-1
 304 324 l 1,42,-1
 304 208 l 2,43,44
 304 196 304 196 293.5 189 c 128,-1,45
 283 182 283 182 268 182 c 256,46,47
 253 182 253 182 240.5 188.5 c 128,-1,48
 228 195 228 195 228 208 c 2,49,-1
 228 522 l 2,20,21
304 480 m 1,50,-1
 304 388 l 1,51,-1
 354 388 l 2,52,53
 401 388 401 388 401 431 c 0,54,55
 401 459 401 459 389 469.5 c 128,-1,56
 377 480 377 480 354 480 c 2,57,-1
 304 480 l 1,50,-1
577 362 m 0,58,59
 577 417 577 417 560.5 463.5 c 128,-1,60
 544 510 544 510 513.5 543.5 c 128,-1,61
 483 577 483 577 440 596 c 128,-1,62
 397 615 397 615 343 615 c 256,63,64
 289 615 289 615 245 596.5 c 128,-1,65
 201 578 201 578 169.5 544 c 128,-1,66
 138 510 138 510 120.5 462.5 c 128,-1,67
 103 415 103 415 103 358 c 0,68,69
 103 303 103 303 119.5 256.5 c 128,-1,70
 136 210 136 210 166 176.5 c 128,-1,71
 196 143 196 143 239.5 124 c 128,-1,72
 283 105 283 105 337 105 c 256,73,74
 391 105 391 105 435 123.5 c 128,-1,75
 479 142 479 142 510.5 176 c 128,-1,76
 542 210 542 210 559.5 257.5 c 128,-1,77
 577 305 577 305 577 362 c 0,58,59
EndSplineSet
EndChar
StartChar: macron
Encoding: 175 175 276
Width: 295
Flags: W
LayerCount: 2
Back
Fore
SplineSet
0 649 m 0,0,1
 0 670 0 670 13 684.5 c 128,-1,2
 26 699 26 699 47 699 c 2,3,-1
 247 699 l 2,4,5
 265 699 265 699 280 684.5 c 128,-1,6
 295 670 295 670 295 649 c 0,7,8
 295 627 295 627 280 613.5 c 128,-1,9
 265 600 265 600 247 600 c 2,10,-1
 47 600 l 2,11,12
 26 600 26 600 13 613.5 c 128,-1,13
 0 627 0 627 0 649 c 0,0,1
EndSplineSet
EndChar
StartChar: degree
Encoding: 176 176 187
Width: 389
Flags: W
LayerCount: 2
Back
Fore
SplineSet
194 768 m 256,0,1
 230 768 230 768 262 753.5 c 128,-1,2
 294 739 294 739 318.5 714.5 c 128,-1,3
 343 690 343 690 357.5 657.5 c 128,-1,4
 372 625 372 625 372 589 c 256,5,6
 372 553 372 553 357.5 519.5 c 128,-1,7
 343 486 343 486 318.5 461 c 128,-1,8
 294 436 294 436 262 421 c 128,-1,9
 230 406 230 406 194 406 c 256,10,11
 158 406 158 406 126 421 c 128,-1,12
 94 436 94 436 70 461 c 128,-1,13
 46 486 46 486 31.5 519 c 128,-1,14
 17 552 17 552 17 588 c 256,15,16
 17 624 17 624 31 656.5 c 128,-1,17
 45 689 45 689 69 714 c 128,-1,18
 93 739 93 739 125.5 753.5 c 128,-1,19
 158 768 158 768 194 768 c 256,0,1
292 587 m 256,20,21
 292 606 292 606 284.5 624 c 128,-1,22
 277 642 277 642 263.5 656 c 128,-1,23
 250 670 250 670 232.5 678.5 c 128,-1,24
 215 687 215 687 194 687 c 0,25,26
 174 687 174 687 156 678.5 c 128,-1,27
 138 670 138 670 125 656.5 c 128,-1,28
 112 643 112 643 104.5 625 c 128,-1,29
 97 607 97 607 97 588 c 0,30,31
 97 568 97 568 104.5 550 c 128,-1,32
 112 532 112 532 125 518 c 128,-1,33
 138 504 138 504 156 495.5 c 128,-1,34
 174 487 174 487 194 487 c 256,35,36
 214 487 214 487 232 495.5 c 128,-1,37
 250 504 250 504 263.5 518 c 128,-1,38
 277 532 277 532 284.5 550 c 128,-1,39
 292 568 292 568 292 587 c 256,20,21
EndSplineSet
EndChar
StartChar: plusminus
Encoding: 177 177 325
Width: 473
Flags: W
LayerCount: 2
Back
Fore
SplineSet
237 178 m 0,0,1
 210 178 210 178 191.5 191 c 128,-1,2
 173 204 173 204 173 225 c 2,3,-1
 173 312 l 1,4,-1
 76 312 l 2,5,6
 55 312 55 312 42 329 c 128,-1,7
 29 346 29 346 29 375 c 0,8,9
 29 402 29 402 42 420.5 c 128,-1,10
 55 439 55 439 76 439 c 2,11,-1
 173 439 l 1,12,-1
 173 525 l 2,13,14
 173 543 173 543 191.5 558 c 128,-1,15
 210 573 210 573 237 573 c 0,16,17
 266 573 266 573 283 558 c 128,-1,18
 300 543 300 543 300 525 c 2,19,-1
 300 439 l 1,20,-1
 396 439 l 2,21,22
 414 439 414 439 429 420.5 c 128,-1,23
 444 402 444 402 444 375 c 0,24,25
 444 346 444 346 429 329 c 128,-1,26
 414 312 414 312 396 312 c 2,27,-1
 300 312 l 1,28,-1
 300 225 l 2,29,30
 300 204 300 204 283 191 c 128,-1,31
 266 178 266 178 237 178 c 0,0,1
29 85 m 0,32,33
 29 112 29 112 42 130.5 c 128,-1,34
 55 149 55 149 76 149 c 2,35,-1
 396 149 l 2,36,37
 414 149 414 149 429 130.5 c 128,-1,38
 444 112 444 112 444 85 c 0,39,40
 444 56 444 56 429 39 c 128,-1,41
 414 22 414 22 396 22 c 2,42,-1
 76 22 l 2,43,44
 55 22 55 22 42 39 c 128,-1,45
 29 56 29 56 29 85 c 0,32,33
EndSplineSet
EndChar
StartChar: twosuperior
Encoding: 178 178 381
Width: 326
Flags: W
LayerCount: 2
Back
Fore
SplineSet
26 620 m 0,0,1
 26 647 26 647 38 667.5 c 128,-1,2
 50 688 50 688 69.5 702.5 c 128,-1,3
 89 717 89 717 113.5 724 c 128,-1,4
 138 731 138 731 164 731 c 256,5,6
 190 731 190 731 215.5 723.5 c 128,-1,7
 241 716 241 716 261.5 701.5 c 128,-1,8
 282 687 282 687 294.5 665 c 128,-1,9
 307 643 307 643 307 613 c 0,10,11
 307 584 307 584 293.5 560.5 c 128,-1,12
 280 537 280 537 259.5 518.5 c 128,-1,13
 239 500 239 500 215.5 485 c 128,-1,14
 192 470 192 470 171.5 457.5 c 128,-1,15
 151 445 151 445 137.5 434 c 128,-1,16
 124 423 124 423 124 413 c 2,17,-1
 124 409 l 1,18,-1
 276 409 l 2,19,20
 288 409 288 409 297 396 c 128,-1,21
 306 383 306 383 306 366 c 256,22,23
 306 349 306 349 297 335.5 c 128,-1,24
 288 322 288 322 276 322 c 2,25,-1
 63 322 l 2,26,27
 49 322 49 322 34 330 c 128,-1,28
 19 338 19 338 19 352 c 2,29,-1
 19 407 l 2,30,31
 19 428 19 428 33 447 c 128,-1,32
 47 466 47 466 67.5 483.5 c 128,-1,33
 88 501 88 501 112.5 517 c 128,-1,34
 137 533 137 533 157.5 548 c 128,-1,35
 178 563 178 563 192 578.5 c 128,-1,36
 206 594 206 594 206 610 c 0,37,38
 206 620 206 620 197 630.5 c 128,-1,39
 188 641 188 641 165 641 c 0,40,41
 148 641 148 641 136 633 c 128,-1,42
 124 625 124 625 124 605 c 0,43,44
 124 591 124 591 110 580 c 128,-1,45
 96 569 96 569 71 569 c 0,46,47
 51 569 51 569 38.5 579.5 c 128,-1,48
 26 590 26 590 26 620 c 0,0,1
EndSplineSet
EndChar
StartChar: threesuperior
Encoding: 179 179 376
Width: 336
Flags: W
LayerCount: 2
Back
Fore
SplineSet
164 406 m 0,0,1
 193 406 193 406 204 415 c 128,-1,2
 215 424 215 424 215 447 c 2,3,-1
 215 458 l 2,4,5
 215 483 215 483 199 489 c 128,-1,6
 183 495 183 495 161 495 c 0,7,8
 144 495 144 495 138 507 c 128,-1,9
 132 519 132 519 132 533 c 256,10,11
 132 547 132 547 138 559 c 128,-1,12
 144 571 144 571 161 572 c 0,13,14
 168 572 168 572 175.5 573 c 128,-1,15
 183 574 183 574 189.5 578 c 128,-1,16
 196 582 196 582 200 590 c 128,-1,17
 204 598 204 598 204 613 c 0,18,19
 204 635 204 635 192 640.5 c 128,-1,20
 180 646 180 646 163 646 c 0,21,22
 144 646 144 646 133.5 643.5 c 128,-1,23
 123 641 123 641 123 625 c 256,24,25
 123 609 123 609 114 599.5 c 128,-1,26
 105 590 105 590 76 590 c 0,27,28
 41 590 41 590 32.5 598 c 128,-1,29
 24 606 24 606 24 628 c 0,30,31
 24 646 24 646 31 664.5 c 128,-1,32
 38 683 38 683 54.5 697.5 c 128,-1,33
 71 712 71 712 97.5 721.5 c 128,-1,34
 124 731 124 731 163 731 c 0,35,36
 192 731 192 731 217 726 c 128,-1,37
 242 721 242 721 260.5 709 c 128,-1,38
 279 697 279 697 289.5 677.5 c 128,-1,39
 300 658 300 658 300 629 c 256,40,41
 300 600 300 600 288.5 574 c 128,-1,42
 277 548 277 548 254 538 c 1,43,44
 281 529 281 529 298 510 c 128,-1,45
 315 491 315 491 315 458 c 2,46,-1
 315 447 l 2,47,48
 315 412 315 412 303 387.5 c 128,-1,49
 291 363 291 363 270 348 c 128,-1,50
 249 333 249 333 220.5 326 c 128,-1,51
 192 319 192 319 160 319 c 0,52,53
 121 319 121 319 93 329.5 c 128,-1,54
 65 340 65 340 48 355.5 c 128,-1,55
 31 371 31 371 23 390.5 c 128,-1,56
 15 410 15 410 15 428 c 0,57,58
 15 449 15 449 25.5 456 c 128,-1,59
 36 463 36 463 63 463 c 0,60,61
 94 463 94 463 104 456 c 128,-1,62
 114 449 114 449 114 431 c 0,63,64
 114 422 114 422 118.5 416.5 c 128,-1,65
 123 411 123 411 130.5 409 c 128,-1,66
 138 407 138 407 147 406.5 c 128,-1,67
 156 406 156 406 164 406 c 0,0,1
EndSplineSet
EndChar
StartChar: acute
Encoding: 180 180 136
Width: 221
Flags: W
LayerCount: 2
Back
Fore
SplineSet
61 563 m 2,0,1
 51 559 51 559 46 559 c 0,2,3
 26 559 26 559 13 578 c 128,-1,4
 0 597 0 597 0 617 c 0,5,6
 0 642 0 642 20 652 c 2,7,-1
 160 717 l 2,8,9
 167 720 167 720 174 720 c 0,10,11
 184 720 184 720 192.5 714.5 c 128,-1,12
 201 709 201 709 207.5 700.5 c 128,-1,13
 214 692 214 692 217.5 682 c 128,-1,14
 221 672 221 672 221 662 c 0,15,16
 221 651 221 651 216.5 642 c 128,-1,17
 212 633 212 633 201 628 c 2,18,-1
 61 563 l 2,0,1
EndSplineSet
EndChar
StartChar: mu
Encoding: 181 181 278
Width: 529
Flags: W
LayerCount: 2
Back
Fore
SplineSet
279 -10 m 0,0,1
 254 -10 254 -10 230.5 -2.5 c 128,-1,2
 207 5 207 5 186 19 c 1,3,-1
 186 -169 l 2,4,5
 186 -187 186 -187 168.5 -202 c 128,-1,6
 151 -217 151 -217 127 -217 c 0,7,8
 94 -217 94 -217 72.5 -202 c 128,-1,9
 51 -187 51 -187 51 -169 c 2,10,-1
 51 428 l 2,11,12
 51 446 51 446 74 461 c 128,-1,13
 97 476 97 476 129 476 c 0,14,15
 160 476 160 476 183 461 c 128,-1,16
 206 446 206 446 206 428 c 2,17,-1
 206 200 l 2,18,19
 206 186 206 186 212 172.5 c 128,-1,20
 218 159 218 159 227.5 148.5 c 128,-1,21
 237 138 237 138 250.5 131.5 c 128,-1,22
 264 125 264 125 279 125 c 256,23,24
 294 125 294 125 307 131.5 c 128,-1,25
 320 138 320 138 330 148.5 c 128,-1,26
 340 159 340 159 345.5 172.5 c 128,-1,27
 351 186 351 186 351 200 c 2,28,-1
 351 429 l 2,29,30
 351 448 351 448 374 462 c 128,-1,31
 397 476 397 476 429 476 c 0,32,33
 463 476 463 476 484.5 462 c 128,-1,34
 506 448 506 448 506 429 c 2,35,-1
 506 200 l 2,36,37
 506 158 506 158 488 120 c 128,-1,38
 470 82 470 82 439 53 c 128,-1,39
 408 24 408 24 366.5 7 c 128,-1,40
 325 -10 325 -10 279 -10 c 0,0,1
EndSplineSet
EndChar
StartChar: paragraph
Encoding: 182 182 315
Width: 572
Flags: W
LayerCount: 2
Back
Fore
SplineSet
465 731 m 2,0,1
 483 731 483 731 498 719 c 128,-1,2
 513 707 513 707 513 683 c 2,3,-1
 513 47 l 2,4,5
 513 22 513 22 498 11 c 128,-1,6
 483 0 483 0 465 0 c 256,7,8
 447 0 447 0 432 11 c 128,-1,9
 417 22 417 22 417 47 c 2,10,-1
 417 665 l 1,11,-1
 332 665 l 1,12,-1
 332 48 l 2,13,14
 332 24 332 24 317 12 c 128,-1,15
 302 0 302 0 284 0 c 256,16,17
 266 0 266 0 251 12 c 128,-1,18
 236 24 236 24 236 48 c 2,19,-1
 236 306 l 1,20,-1
 218 306 l 2,21,22
 177 306 177 306 141 317 c 128,-1,23
 105 328 105 328 78.5 353 c 128,-1,24
 52 378 52 378 37 417.5 c 128,-1,25
 22 457 22 457 22 513 c 2,26,-1
 22 525 l 2,27,28
 22 581 22 581 37 620.5 c 128,-1,29
 52 660 52 660 78.5 684.5 c 128,-1,30
 105 709 105 709 141 720 c 128,-1,31
 177 731 177 731 218 731 c 2,32,-1
 465 731 l 2,0,1
EndSplineSet
EndChar
StartChar: periodcentered
Encoding: 183 183 321
Width: 213
Flags: W
LayerCount: 2
Back
Fore
SplineSet
107 371 m 0,0,1
 141 371 141 371 164.5 350 c 128,-1,2
 188 329 188 329 188 300 c 256,3,4
 188 271 188 271 164.5 249.5 c 128,-1,5
 141 228 141 228 107 228 c 0,6,7
 72 228 72 228 48.5 249.5 c 128,-1,8
 25 271 25 271 25 300 c 256,9,10
 25 329 25 329 48.5 350 c 128,-1,11
 72 371 72 371 107 371 c 0,0,1
EndSplineSet
EndChar
StartChar: cedilla
Encoding: 184 184 174
Width: 199
Flags: W
LayerCount: 2
Back
Fore
SplineSet
99 -47 m 1,0,1
 150 -49 150 -49 174.5 -71.5 c 128,-1,2
 199 -94 199 -94 199 -126 c 0,3,4
 199 -139 199 -139 194 -155 c 128,-1,5
 189 -171 189 -171 176.5 -185.5 c 128,-1,6
 164 -200 164 -200 142.5 -209.5 c 128,-1,7
 121 -219 121 -219 88 -219 c 0,8,9
 74 -219 74 -219 58.5 -217 c 128,-1,10
 43 -215 43 -215 30 -211.5 c 128,-1,11
 17 -208 17 -208 8.5 -202 c 128,-1,12
 0 -196 0 -196 0 -188 c 0,13,14
 0 -185 0 -185 1.5 -178 c 128,-1,15
 3 -171 3 -171 6 -164 c 128,-1,16
 9 -157 9 -157 14 -151.5 c 128,-1,17
 19 -146 19 -146 26 -146 c 0,18,19
 35 -146 35 -146 47.5 -153 c 128,-1,20
 60 -160 60 -160 84 -160 c 0,21,22
 104 -160 104 -160 117 -152.5 c 128,-1,23
 130 -145 130 -145 130 -129 c 0,24,25
 130 -116 130 -116 120 -106.5 c 128,-1,26
 110 -97 110 -97 87 -95 c 2,27,-1
 25 -89 l 1,28,-1
 54 9 l 1,29,-1
 118 9 l 1,30,-1
 99 -47 l 1,0,1
EndSplineSet
EndChar
StartChar: onesuperior
Encoding: 185 185 307
Width: 201
Flags: W
LayerCount: 2
Back
Fore
SplineSet
64 625 m 1,0,-1
 48 621 l 2,1,2
 39 618 39 618 32 618 c 0,3,4
 18 618 18 618 9.5 630.5 c 128,-1,5
 1 643 1 643 1 657 c 0,6,7
 1 680 1 680 19 690 c 2,8,-1
 103 730 l 2,9,10
 110 733 110 733 120 733 c 0,11,12
 136 733 136 733 150.5 724.5 c 128,-1,13
 165 716 165 716 165 702 c 2,14,-1
 165 352 l 2,15,16
 165 337 165 337 149.5 329.5 c 128,-1,17
 134 322 134 322 115 322 c 0,18,19
 95 322 95 322 79.5 329.5 c 128,-1,20
 64 337 64 337 64 352 c 2,21,-1
 64 625 l 1,0,-1
EndSplineSet
EndChar
StartChar: ordmasculine
Encoding: 186 186 310
Width: 349
Flags: W
LayerCount: 2
Back
Fore
SplineSet
174 768 m 0,0,1
 205 768 205 768 232.5 757 c 128,-1,2
 260 746 260 746 281 726.5 c 128,-1,3
 302 707 302 707 314.5 681 c 128,-1,4
 327 655 327 655 327 626 c 2,5,-1
 327 576 l 2,6,7
 327 548 327 548 314.5 522 c 128,-1,8
 302 496 302 496 281 476.5 c 128,-1,9
 260 457 260 457 232.5 445 c 128,-1,10
 205 433 205 433 174 433 c 256,11,12
 143 433 143 433 115.5 445 c 128,-1,13
 88 457 88 457 67 476.5 c 128,-1,14
 46 496 46 496 34 522 c 128,-1,15
 22 548 22 548 22 576 c 2,16,-1
 22 626 l 2,17,18
 22 654 22 654 34 680 c 128,-1,19
 46 706 46 706 66.5 725.5 c 128,-1,20
 87 745 87 745 114.5 756.5 c 128,-1,21
 142 768 142 768 174 768 c 0,0,1
227 626 m 2,22,23
 227 647 227 647 211.5 663.5 c 128,-1,24
 196 680 196 680 174 680 c 256,25,26
 152 680 152 680 137 663.5 c 128,-1,27
 122 647 122 647 122 626 c 2,28,-1
 122 576 l 2,29,30
 122 554 122 554 137 537.5 c 128,-1,31
 152 521 152 521 174 521 c 256,32,33
 196 521 196 521 211.5 537.5 c 128,-1,34
 227 554 227 554 227 576 c 2,35,-1
 227 626 l 2,22,23
EndSplineSet
EndChar
StartChar: guillemotright
Encoding: 187 187 239
Width: 537
Flags: W
LayerCount: 2
Back
Fore
SplineSet
343 277 m 1,0,-1
 284 388 l 2,1,2
 281 394 281 394 281 402 c 0,3,4
 281 414 281 414 289 427.5 c 128,-1,5
 297 441 297 441 310.5 452.5 c 128,-1,6
 324 464 324 464 341.5 472 c 128,-1,7
 359 480 359 480 379 480 c 0,8,9
 411 480 411 480 421 461 c 2,10,-1
 488 336 l 2,11,12
 500 313 500 313 508 301.5 c 128,-1,13
 516 290 516 290 516 276 c 256,14,15
 516 262 516 262 508 251.5 c 128,-1,16
 500 241 500 241 488 218 c 2,17,-1
 421 93 l 2,18,19
 411 74 411 74 379 74 c 0,20,21
 359 74 359 74 341.5 82 c 128,-1,22
 324 90 324 90 310.5 101.5 c 128,-1,23
 297 113 297 113 289 126.5 c 128,-1,24
 281 140 281 140 281 152 c 0,25,26
 281 160 281 160 284 166 c 2,27,-1
 343 277 l 1,0,-1
93 277 m 1,28,-1
 34 388 l 2,29,30
 31 394 31 394 31 402 c 0,31,32
 31 414 31 414 39 427.5 c 128,-1,33
 47 441 47 441 60.5 452.5 c 128,-1,34
 74 464 74 464 91.5 472 c 128,-1,35
 109 480 109 480 129 480 c 0,36,37
 161 480 161 480 171 461 c 2,38,-1
 238 336 l 2,39,40
 250 313 250 313 258 301.5 c 128,-1,41
 266 290 266 290 266 276 c 256,42,43
 266 262 266 262 258 251.5 c 128,-1,44
 250 241 250 241 238 218 c 2,45,-1
 171 93 l 2,46,47
 161 74 161 74 129 74 c 0,48,49
 109 74 109 74 91.5 82 c 128,-1,50
 74 90 74 90 60.5 101.5 c 128,-1,51
 47 113 47 113 39 126.5 c 128,-1,52
 31 140 31 140 31 152 c 0,53,54
 31 160 31 160 34 166 c 2,55,-1
 93 277 l 1,28,-1
EndSplineSet
EndChar
StartChar: onequarter
Encoding: 188 188 306
Width: 691
Flags: W
LayerCount: 2
Back
Fore
SplineSet
86 625 m 1,0,-1
 70 621 l 2,1,2
 61 618 61 618 54 618 c 0,3,4
 40 618 40 618 31.5 630.5 c 128,-1,5
 23 643 23 643 23 657 c 0,6,7
 23 680 23 680 41 690 c 2,8,-1
 125 730 l 2,9,10
 132 733 132 733 142 733 c 0,11,12
 158 733 158 733 172.5 724.5 c 128,-1,13
 187 716 187 716 187 702 c 2,14,-1
 187 352 l 2,15,16
 187 337 187 337 171.5 329.5 c 128,-1,17
 156 322 156 322 137 322 c 0,18,19
 117 322 117 322 101.5 329.5 c 128,-1,20
 86 337 86 337 86 352 c 2,21,-1
 86 625 l 1,0,-1
479 772 m 0,22,23
 500 772 500 772 519 757.5 c 128,-1,24
 538 743 538 743 538 719 c 0,25,26
 538 708 538 708 534 700 c 2,27,-1
 182 -21 l 2,28,29
 177 -32 177 -32 164 -39 c 128,-1,30
 151 -46 151 -46 137 -46 c 0,31,32
 111 -46 111 -46 96 -29 c 128,-1,33
 81 -12 81 -12 81 7 c 0,34,35
 81 16 81 16 86 26 c 2,36,-1
 437 747 l 2,37,38
 443 760 443 760 454 766 c 128,-1,39
 465 772 465 772 479 772 c 0,22,23
517 84 m 1,40,-1
 378 84 l 2,41,42
 364 84 364 84 354.5 92.5 c 128,-1,43
 345 101 345 101 345 118 c 0,44,45
 345 127 345 127 350 136 c 2,46,-1
 487 384 l 2,47,48
 495 398 495 398 506 403.5 c 128,-1,49
 517 409 517 409 529 409 c 0,50,51
 535 409 535 409 544 406.5 c 128,-1,52
 553 404 553 404 560.5 399 c 128,-1,53
 568 394 568 394 573.5 387.5 c 128,-1,54
 579 381 579 381 579 372 c 0,55,56
 579 366 579 366 576 360 c 2,57,-1
 474 176 l 1,58,-1
 517 176 l 1,59,-1
 517 197 l 2,60,61
 517 213 517 213 532.5 220 c 128,-1,62
 548 227 548 227 567 227 c 0,63,64
 587 227 587 227 602.5 220 c 128,-1,65
 618 213 618 213 618 197 c 2,66,-1
 618 176 l 1,67,-1
 643 176 l 2,68,69
 658 176 658 176 665.5 161.5 c 128,-1,70
 673 147 673 147 673 130 c 256,71,72
 673 113 673 113 663.5 98.5 c 128,-1,73
 654 84 654 84 643 84 c 2,74,-1
 618 84 l 1,75,-1
 618 30 l 2,76,77
 618 15 618 15 602.5 7.5 c 128,-1,78
 587 0 587 0 567 0 c 0,79,80
 548 0 548 0 532.5 7.5 c 128,-1,81
 517 15 517 15 517 30 c 2,82,-1
 517 84 l 1,40,-1
EndSplineSet
Ligature2: "'frac' Diagonal Fractions in Latin lookup 9 subtable" one slash four
EndChar
StartChar: onehalf
Encoding: 189 189 304
Width: 674
Flags: W
LayerCount: 2
Back
Fore
SplineSet
84 625 m 1,0,-1
 68 621 l 2,1,2
 59 618 59 618 52 618 c 0,3,4
 38 618 38 618 29.5 630.5 c 128,-1,5
 21 643 21 643 21 657 c 0,6,7
 21 680 21 680 39 690 c 2,8,-1
 123 730 l 2,9,10
 130 733 130 733 140 733 c 0,11,12
 156 733 156 733 170.5 724.5 c 128,-1,13
 185 716 185 716 185 702 c 2,14,-1
 185 352 l 2,15,16
 185 337 185 337 169.5 329.5 c 128,-1,17
 154 322 154 322 135 322 c 0,18,19
 115 322 115 322 99.5 329.5 c 128,-1,20
 84 337 84 337 84 352 c 2,21,-1
 84 625 l 1,0,-1
367 298 m 0,22,23
 367 325 367 325 379 345.5 c 128,-1,24
 391 366 391 366 410.5 380.5 c 128,-1,25
 430 395 430 395 454.5 402 c 128,-1,26
 479 409 479 409 505 409 c 256,27,28
 531 409 531 409 556.5 401.5 c 128,-1,29
 582 394 582 394 602.5 379.5 c 128,-1,30
 623 365 623 365 635.5 343 c 128,-1,31
 648 321 648 321 648 291 c 0,32,33
 648 262 648 262 634.5 238.5 c 128,-1,34
 621 215 621 215 600.5 196.5 c 128,-1,35
 580 178 580 178 556.5 163 c 128,-1,36
 533 148 533 148 512.5 135.5 c 128,-1,37
 492 123 492 123 478.5 112 c 128,-1,38
 465 101 465 101 465 91 c 2,39,-1
 465 87 l 1,40,-1
 617 87 l 2,41,42
 629 87 629 87 638 74 c 128,-1,43
 647 61 647 61 647 44 c 256,44,45
 647 27 647 27 638 13.5 c 128,-1,46
 629 0 629 0 617 0 c 2,47,-1
 404 0 l 2,48,49
 390 0 390 0 375 8 c 128,-1,50
 360 16 360 16 360 30 c 2,51,-1
 360 85 l 2,52,53
 360 107 360 107 374 125.5 c 128,-1,54
 388 144 388 144 408.5 161.5 c 128,-1,55
 429 179 429 179 453.5 195 c 128,-1,56
 478 211 478 211 498.5 226 c 128,-1,57
 519 241 519 241 533 256.5 c 128,-1,58
 547 272 547 272 547 288 c 0,59,60
 547 298 547 298 538 308.5 c 128,-1,61
 529 319 529 319 506 319 c 0,62,63
 489 319 489 319 477 311 c 128,-1,64
 465 303 465 303 465 283 c 0,65,66
 465 269 465 269 451 258 c 128,-1,67
 437 247 437 247 412 247 c 0,68,69
 392 247 392 247 379.5 257.5 c 128,-1,70
 367 268 367 268 367 298 c 0,22,23
461 772 m 0,71,72
 482 772 482 772 501 757.5 c 128,-1,73
 520 743 520 743 520 719 c 0,74,75
 520 708 520 708 516 700 c 2,76,-1
 164 -21 l 2,77,78
 159 -32 159 -32 146 -39 c 128,-1,79
 133 -46 133 -46 119 -46 c 0,80,81
 93 -46 93 -46 78 -29 c 128,-1,82
 63 -12 63 -12 63 7 c 0,83,84
 63 16 63 16 68 26 c 2,85,-1
 419 747 l 2,86,87
 425 760 425 760 436 766 c 128,-1,88
 447 772 447 772 461 772 c 0,71,72
EndSplineSet
Ligature2: "'frac' Diagonal Fractions in Latin lookup 9 subtable" one slash two
EndChar
StartChar: threequarters
Encoding: 190 190 375
Width: 826
Flags: W
LayerCount: 2
Back
Fore
SplineSet
176 406 m 0,0,1
 205 406 205 406 216 415 c 128,-1,2
 227 424 227 424 227 447 c 2,3,-1
 227 458 l 2,4,5
 227 483 227 483 211 489 c 128,-1,6
 195 495 195 495 173 495 c 0,7,8
 156 495 156 495 150 507 c 128,-1,9
 144 519 144 519 144 533 c 256,10,11
 144 547 144 547 150 559 c 128,-1,12
 156 571 156 571 173 572 c 0,13,14
 180 572 180 572 187.5 573 c 128,-1,15
 195 574 195 574 201.5 578 c 128,-1,16
 208 582 208 582 212 590 c 128,-1,17
 216 598 216 598 216 613 c 0,18,19
 216 635 216 635 204 640.5 c 128,-1,20
 192 646 192 646 175 646 c 0,21,22
 156 646 156 646 145.5 643.5 c 128,-1,23
 135 641 135 641 135 625 c 256,24,25
 135 609 135 609 126 599.5 c 128,-1,26
 117 590 117 590 88 590 c 0,27,28
 53 590 53 590 44.5 598 c 128,-1,29
 36 606 36 606 36 628 c 0,30,31
 36 646 36 646 43 664.5 c 128,-1,32
 50 683 50 683 66.5 697.5 c 128,-1,33
 83 712 83 712 109.5 721.5 c 128,-1,34
 136 731 136 731 175 731 c 0,35,36
 204 731 204 731 229 726 c 128,-1,37
 254 721 254 721 272.5 709 c 128,-1,38
 291 697 291 697 301.5 677.5 c 128,-1,39
 312 658 312 658 312 629 c 256,40,41
 312 600 312 600 300.5 574 c 128,-1,42
 289 548 289 548 266 538 c 1,43,44
 293 529 293 529 310 510 c 128,-1,45
 327 491 327 491 327 458 c 2,46,-1
 327 447 l 2,47,48
 327 412 327 412 315 387.5 c 128,-1,49
 303 363 303 363 282 348 c 128,-1,50
 261 333 261 333 232.5 326 c 128,-1,51
 204 319 204 319 172 319 c 0,52,53
 133 319 133 319 105 329.5 c 128,-1,54
 77 340 77 340 60 355.5 c 128,-1,55
 43 371 43 371 35 390.5 c 128,-1,56
 27 410 27 410 27 428 c 0,57,58
 27 449 27 449 37.5 456 c 128,-1,59
 48 463 48 463 75 463 c 0,60,61
 106 463 106 463 116 456 c 128,-1,62
 126 449 126 449 126 431 c 0,63,64
 126 422 126 422 130.5 416.5 c 128,-1,65
 135 411 135 411 142.5 409 c 128,-1,66
 150 407 150 407 159 406.5 c 128,-1,67
 168 406 168 406 176 406 c 0,0,1
652 84 m 1,68,-1
 513 84 l 2,69,70
 499 84 499 84 489.5 92.5 c 128,-1,71
 480 101 480 101 480 118 c 0,72,73
 480 127 480 127 485 136 c 2,74,-1
 622 384 l 2,75,76
 630 398 630 398 641 403.5 c 128,-1,77
 652 409 652 409 664 409 c 0,78,79
 670 409 670 409 679 406.5 c 128,-1,80
 688 404 688 404 695.5 399 c 128,-1,81
 703 394 703 394 708.5 387.5 c 128,-1,82
 714 381 714 381 714 372 c 0,83,84
 714 366 714 366 711 360 c 2,85,-1
 609 176 l 1,86,-1
 652 176 l 1,87,-1
 652 197 l 2,88,89
 652 213 652 213 667.5 220 c 128,-1,90
 683 227 683 227 702 227 c 0,91,92
 722 227 722 227 737.5 220 c 128,-1,93
 753 213 753 213 753 197 c 2,94,-1
 753 176 l 1,95,-1
 778 176 l 2,96,97
 793 176 793 176 800.5 161.5 c 128,-1,98
 808 147 808 147 808 130 c 256,99,100
 808 113 808 113 798.5 98.5 c 128,-1,101
 789 84 789 84 778 84 c 2,102,-1
 753 84 l 1,103,-1
 753 30 l 2,104,105
 753 15 753 15 737.5 7.5 c 128,-1,106
 722 0 722 0 702 0 c 0,107,108
 683 0 683 0 667.5 7.5 c 128,-1,109
 652 15 652 15 652 30 c 2,110,-1
 652 84 l 1,68,-1
608 772 m 0,111,112
 629 772 629 772 648 757.5 c 128,-1,113
 667 743 667 743 667 719 c 0,114,115
 667 708 667 708 663 700 c 2,116,-1
 311 -21 l 2,117,118
 306 -32 306 -32 293 -39 c 128,-1,119
 280 -46 280 -46 266 -46 c 0,120,121
 240 -46 240 -46 225 -29 c 128,-1,122
 210 -12 210 -12 210 7 c 0,123,124
 210 16 210 16 215 26 c 2,125,-1
 566 747 l 2,126,127
 572 760 572 760 583 766 c 128,-1,128
 594 772 594 772 608 772 c 0,111,112
EndSplineSet
Ligature2: "'frac' Diagonal Fractions in Latin lookup 9 subtable" three slash four
EndChar
StartChar: questiondown
Encoding: 191 191 330
Width: 452
Flags: W
LayerCount: 2
Back
Fore
SplineSet
22 159 m 256,0,1
 22 194 22 194 35.5 224 c 128,-1,2
 49 254 49 254 67.5 277.5 c 128,-1,3
 86 301 86 301 105 317.5 c 128,-1,4
 124 334 124 334 134 342 c 0,5,6
 155 358 155 358 166 372.5 c 128,-1,7
 177 387 177 387 182.5 401.5 c 128,-1,8
 188 416 188 416 189 431.5 c 128,-1,9
 190 447 190 447 190 467 c 0,10,11
 190 481 190 481 201 494.5 c 128,-1,12
 212 508 212 508 249 508 c 0,13,14
 280 508 280 508 292 494 c 128,-1,15
 304 480 304 480 304 441 c 0,16,17
 304 409 304 409 297.5 384.5 c 128,-1,18
 291 360 291 360 281.5 342 c 128,-1,19
 272 324 272 324 260 311 c 128,-1,20
 248 298 248 298 237 289 c 0,21,22
 225 278 225 278 209.5 267 c 128,-1,23
 194 256 194 256 180.5 242.5 c 128,-1,24
 167 229 167 229 157.5 212.5 c 128,-1,25
 148 196 148 196 148 176 c 0,26,27
 148 141 148 141 174 124.5 c 128,-1,28
 200 108 200 108 238 108 c 256,29,30
 276 108 276 108 294 120 c 128,-1,31
 312 132 312 132 322.5 146.5 c 128,-1,32
 333 161 333 161 342.5 173 c 128,-1,33
 352 185 352 185 372 185 c 0,34,35
 382 185 382 185 392.5 181.5 c 128,-1,36
 403 178 403 178 412 171 c 128,-1,37
 421 164 421 164 426.5 153.5 c 128,-1,38
 432 143 432 143 432 128 c 0,39,40
 432 108 432 108 420 84.5 c 128,-1,41
 408 61 408 61 384 41 c 128,-1,42
 360 21 360 21 323 7.5 c 128,-1,43
 286 -6 286 -6 235 -6 c 0,44,45
 187 -6 187 -6 147.5 6.5 c 128,-1,46
 108 19 108 19 80.5 41 c 128,-1,47
 53 63 53 63 37.5 93.5 c 128,-1,48
 22 124 22 124 22 159 c 256,0,1
248 577 m 256,49,50
 216 577 216 577 193.5 599.5 c 128,-1,51
 171 622 171 622 171 654 c 0,52,53
 171 669 171 669 177 683 c 128,-1,54
 183 697 183 697 193.5 707.5 c 128,-1,55
 204 718 204 718 218 724.5 c 128,-1,56
 232 731 232 731 248 731 c 0,57,58
 280 731 280 731 302 708 c 128,-1,59
 324 685 324 685 324 654 c 0,60,61
 324 622 324 622 302 599.5 c 128,-1,62
 280 577 280 577 248 577 c 256,49,50
EndSplineSet
EndChar
StartChar: Agrave
Encoding: 192 192 8
Width: 589
Flags: W
LayerCount: 2
Back
Fore
SplineSet
104 0 m 0,0,1
 88 0 88 0 70.5 5 c 128,-1,2
 53 10 53 10 38 18.5 c 128,-1,3
 23 27 23 27 13.5 38.5 c 128,-1,4
 4 50 4 50 4 64 c 0,5,6
 4 67 4 67 6 75 c 2,7,-1
 192 685 l 2,8,9
 200 711 200 711 229.5 724 c 128,-1,10
 259 737 259 737 294 737 c 256,11,12
 329 737 329 737 358.5 724 c 128,-1,13
 388 711 388 711 396 685 c 2,14,-1
 583 75 l 2,15,16
 585 67 585 67 585 64 c 0,17,18
 585 50 585 50 575.5 38.5 c 128,-1,19
 566 27 566 27 551 18.5 c 128,-1,20
 536 10 536 10 518.5 5 c 128,-1,21
 501 0 501 0 485 0 c 0,22,23
 466 0 466 0 452.5 6.5 c 128,-1,24
 439 13 439 13 434 29 c 2,25,-1
 400 154 l 1,26,-1
 189 154 l 1,27,-1
 155 29 l 2,28,29
 150 13 150 13 136.5 6.5 c 128,-1,30
 123 0 123 0 104 0 c 0,0,1
367 274 m 1,31,-1
 294 542 l 1,32,-1
 221 274 l 1,33,-1
 367 274 l 1,31,-1
186 867 m 2,34,35
 175 872 175 872 170.5 881 c 128,-1,36
 166 890 166 890 166 901 c 0,37,38
 166 911 166 911 169.5 921 c 128,-1,39
 173 931 173 931 179.5 939.5 c 128,-1,40
 186 948 186 948 194.5 953.5 c 128,-1,41
 203 959 203 959 213 959 c 0,42,43
 219 959 219 959 227 956 c 2,44,-1
 367 891 l 2,45,46
 387 881 387 881 387 856 c 0,47,48
 387 836 387 836 374 817 c 128,-1,49
 361 798 361 798 341 798 c 0,50,51
 336 798 336 798 326 802 c 2,52,-1
 186 867 l 2,34,35
EndSplineSet
EndChar
StartChar: Aacute
Encoding: 193 193 4
Width: 589
Flags: W
LayerCount: 2
Back
Fore
SplineSet
104 0 m 0,0,1
 88 0 88 0 70.5 5 c 128,-1,2
 53 10 53 10 38 18.5 c 128,-1,3
 23 27 23 27 13.5 38.5 c 128,-1,4
 4 50 4 50 4 64 c 0,5,6
 4 67 4 67 6 75 c 2,7,-1
 192 685 l 2,8,9
 200 711 200 711 229.5 724 c 128,-1,10
 259 737 259 737 294 737 c 256,11,12
 329 737 329 737 358.5 724 c 128,-1,13
 388 711 388 711 396 685 c 2,14,-1
 583 75 l 2,15,16
 585 67 585 67 585 64 c 0,17,18
 585 50 585 50 575.5 38.5 c 128,-1,19
 566 27 566 27 551 18.5 c 128,-1,20
 536 10 536 10 518.5 5 c 128,-1,21
 501 0 501 0 485 0 c 0,22,23
 466 0 466 0 452.5 6.5 c 128,-1,24
 439 13 439 13 434 29 c 2,25,-1
 400 154 l 1,26,-1
 189 154 l 1,27,-1
 155 29 l 2,28,29
 150 13 150 13 136.5 6.5 c 128,-1,30
 123 0 123 0 104 0 c 0,0,1
367 274 m 1,31,-1
 294 542 l 1,32,-1
 221 274 l 1,33,-1
 367 274 l 1,31,-1
282 802 m 2,34,35
 272 798 272 798 267 798 c 0,36,37
 247 798 247 798 234 817 c 128,-1,38
 221 836 221 836 221 856 c 0,39,40
 221 881 221 881 241 891 c 2,41,-1
 381 956 l 2,42,43
 388 959 388 959 395 959 c 0,44,45
 405 959 405 959 413.5 953.5 c 128,-1,46
 422 948 422 948 428.5 939.5 c 128,-1,47
 435 931 435 931 438.5 921 c 128,-1,48
 442 911 442 911 442 901 c 0,49,50
 442 890 442 890 437.5 881 c 128,-1,51
 433 872 433 872 422 867 c 2,52,-1
 282 802 l 2,34,35
EndSplineSet
EndChar
StartChar: Atilde
Encoding: 195 195 12
Width: 589
Flags: W
LayerCount: 2
Back
Fore
SplineSet
104 0 m 0,0,1
 88 0 88 0 70.5 5 c 128,-1,2
 53 10 53 10 38 18.5 c 128,-1,3
 23 27 23 27 13.5 38.5 c 128,-1,4
 4 50 4 50 4 64 c 0,5,6
 4 67 4 67 6 75 c 2,7,-1
 192 685 l 2,8,9
 200 711 200 711 229.5 724 c 128,-1,10
 259 737 259 737 294 737 c 256,11,12
 329 737 329 737 358.5 724 c 128,-1,13
 388 711 388 711 396 685 c 2,14,-1
 583 75 l 2,15,16
 585 67 585 67 585 64 c 0,17,18
 585 50 585 50 575.5 38.5 c 128,-1,19
 566 27 566 27 551 18.5 c 128,-1,20
 536 10 536 10 518.5 5 c 128,-1,21
 501 0 501 0 485 0 c 0,22,23
 466 0 466 0 452.5 6.5 c 128,-1,24
 439 13 439 13 434 29 c 2,25,-1
 400 154 l 1,26,-1
 189 154 l 1,27,-1
 155 29 l 2,28,29
 150 13 150 13 136.5 6.5 c 128,-1,30
 123 0 123 0 104 0 c 0,0,1
367 274 m 1,31,-1
 294 542 l 1,32,-1
 221 274 l 1,33,-1
 367 274 l 1,31,-1
241 845 m 0,34,35
 225 845 225 845 213 841.5 c 128,-1,36
 201 838 201 838 191 834.5 c 128,-1,37
 181 831 181 831 172.5 827.5 c 128,-1,38
 164 824 164 824 155 824 c 0,39,40
 143 824 143 824 136 830 c 128,-1,41
 129 836 129 836 124.5 844.5 c 128,-1,42
 120 853 120 853 118.5 861 c 128,-1,43
 117 869 117 869 117 873 c 0,44,45
 117 900 117 900 127.5 914.5 c 128,-1,46
 138 929 138 929 152.5 936 c 128,-1,47
 167 943 167 943 181 944.5 c 128,-1,48
 195 946 195 946 202 946 c 0,49,50
 225 946 225 946 243 942 c 128,-1,51
 261 938 261 938 277.5 932.5 c 128,-1,52
 294 927 294 927 310.5 923 c 128,-1,53
 327 919 327 919 348 919 c 0,54,55
 364 919 364 919 376 922.5 c 128,-1,56
 388 926 388 926 398 929.5 c 128,-1,57
 408 933 408 933 416.5 936.5 c 128,-1,58
 425 940 425 940 434 940 c 0,59,60
 446 940 446 940 453 933.5 c 128,-1,61
 460 927 460 927 464.5 919 c 128,-1,62
 469 911 469 911 470.5 903 c 128,-1,63
 472 895 472 895 472 891 c 0,64,65
 472 864 472 864 461.5 849.5 c 128,-1,66
 451 835 451 835 436.5 828 c 128,-1,67
 422 821 422 821 408 819.5 c 128,-1,68
 394 818 394 818 387 818 c 0,69,70
 360 818 360 818 341 822 c 128,-1,71
 322 826 322 826 305.5 831.5 c 128,-1,72
 289 837 289 837 274 841 c 128,-1,73
 259 845 259 845 241 845 c 0,34,35
EndSplineSet
EndChar
StartChar: Adieresis
Encoding: 196 196 7
Width: 589
Flags: W
LayerCount: 2
Back
Fore
SplineSet
104 0 m 0,0,1
 88 0 88 0 70.5 5 c 128,-1,2
 53 10 53 10 38 18.5 c 128,-1,3
 23 27 23 27 13.5 38.5 c 128,-1,4
 4 50 4 50 4 64 c 0,5,6
 4 67 4 67 6 75 c 2,7,-1
 192 685 l 2,8,9
 200 711 200 711 229.5 724 c 128,-1,10
 259 737 259 737 294 737 c 256,11,12
 329 737 329 737 358.5 724 c 128,-1,13
 388 711 388 711 396 685 c 2,14,-1
 583 75 l 2,15,16
 585 67 585 67 585 64 c 0,17,18
 585 50 585 50 575.5 38.5 c 128,-1,19
 566 27 566 27 551 18.5 c 128,-1,20
 536 10 536 10 518.5 5 c 128,-1,21
 501 0 501 0 485 0 c 0,22,23
 466 0 466 0 452.5 6.5 c 128,-1,24
 439 13 439 13 434 29 c 2,25,-1
 400 154 l 1,26,-1
 189 154 l 1,27,-1
 155 29 l 2,28,29
 150 13 150 13 136.5 6.5 c 128,-1,30
 123 0 123 0 104 0 c 0,0,1
367 274 m 1,31,-1
 294 542 l 1,32,-1
 221 274 l 1,33,-1
 367 274 l 1,31,-1
216 927 m 256,34,35
 239 927 239 927 255.5 909.5 c 128,-1,36
 272 892 272 892 272 869 c 256,37,38
 272 846 272 846 255.5 828 c 128,-1,39
 239 810 239 810 216 810 c 256,40,41
 193 810 193 810 176 828 c 128,-1,42
 159 846 159 846 159 869 c 256,43,44
 159 892 159 892 176 909.5 c 128,-1,45
 193 927 193 927 216 927 c 256,34,35
376 927 m 256,46,47
 399 927 399 927 415.5 909.5 c 128,-1,48
 432 892 432 892 432 869 c 256,49,50
 432 846 432 846 415.5 828 c 128,-1,51
 399 810 399 810 376 810 c 256,52,53
 353 810 353 810 336 828 c 128,-1,54
 319 846 319 846 319 869 c 256,55,56
 319 892 319 892 336 909.5 c 128,-1,57
 353 927 353 927 376 927 c 256,46,47
EndSplineSet
EndChar
StartChar: Aring
Encoding: 197 197 11
Width: 589
Flags: W
LayerCount: 2
Back
Fore
SplineSet
104 0 m 0,0,1
 88 0 88 0 70.5 5 c 128,-1,2
 53 10 53 10 38 18.5 c 128,-1,3
 23 27 23 27 13.5 38.5 c 128,-1,4
 4 50 4 50 4 64 c 0,5,6
 4 67 4 67 6 75 c 2,7,-1
 192 685 l 2,8,9
 200 711 200 711 229.5 724 c 128,-1,10
 259 737 259 737 294 737 c 256,11,12
 329 737 329 737 358.5 724 c 128,-1,13
 388 711 388 711 396 685 c 2,14,-1
 583 75 l 2,15,16
 585 67 585 67 585 64 c 0,17,18
 585 50 585 50 575.5 38.5 c 128,-1,19
 566 27 566 27 551 18.5 c 128,-1,20
 536 10 536 10 518.5 5 c 128,-1,21
 501 0 501 0 485 0 c 0,22,23
 466 0 466 0 452.5 6.5 c 128,-1,24
 439 13 439 13 434 29 c 2,25,-1
 400 154 l 1,26,-1
 189 154 l 1,27,-1
 155 29 l 2,28,29
 150 13 150 13 136.5 6.5 c 128,-1,30
 123 0 123 0 104 0 c 0,0,1
367 274 m 1,31,-1
 294 542 l 1,32,-1
 221 274 l 1,33,-1
 367 274 l 1,31,-1
293 1008 m 0,34,35
 313 1008 313 1008 331.5 999.5 c 128,-1,36
 350 991 350 991 364 977 c 128,-1,37
 378 963 378 963 386 945 c 128,-1,38
 394 927 394 927 394 907 c 256,39,40
 394 887 394 887 385.5 868 c 128,-1,41
 377 849 377 849 363 835 c 128,-1,42
 349 821 349 821 331 812.5 c 128,-1,43
 313 804 313 804 293 804 c 256,44,45
 273 804 273 804 255 812.5 c 128,-1,46
 237 821 237 821 223.5 835 c 128,-1,47
 210 849 210 849 202 868 c 128,-1,48
 194 887 194 887 194 907 c 0,49,50
 194 926 194 926 201.5 944.5 c 128,-1,51
 209 963 209 963 222.5 977 c 128,-1,52
 236 991 236 991 254 999.5 c 128,-1,53
 272 1008 272 1008 293 1008 c 0,34,35
333 906 m 0,54,55
 333 921 333 921 322 933 c 128,-1,56
 311 945 311 945 294 945 c 256,57,58
 277 945 277 945 265 932.5 c 128,-1,59
 253 920 253 920 253 906 c 0,60,61
 253 891 253 891 265 877.5 c 128,-1,62
 277 864 277 864 294 864 c 256,63,64
 311 864 311 864 322 877 c 128,-1,65
 333 890 333 890 333 906 c 0,54,55
EndSplineSet
EndChar
StartChar: AE
Encoding: 198 198 2
Width: 817
Flags: W
LayerCount: 2
Back
Fore
SplineSet
530 426 m 1,0,-1
 638 426 l 2,1,2
 661 426 661 426 673 407.5 c 128,-1,3
 685 389 685 389 685 365 c 0,4,5
 685 345 685 345 674 325.5 c 128,-1,6
 663 306 663 306 638 306 c 2,7,-1
 530 306 l 1,8,-1
 530 136 l 1,9,-1
 756 136 l 2,10,11
 779 136 779 136 791 115.5 c 128,-1,12
 803 95 803 95 803 67 c 0,13,14
 803 43 803 43 792 21.5 c 128,-1,15
 781 0 781 0 756 0 c 2,16,-1
 442 0 l 2,17,18
 416 0 416 0 395 12 c 128,-1,19
 374 24 374 24 374 48 c 2,20,-1
 374 306 l 1,21,-1
 197 306 l 1,22,-1
 197 53 l 2,23,24
 197 42 197 42 194.5 32 c 128,-1,25
 192 22 192 22 184 15 c 128,-1,26
 176 8 176 8 160.5 4 c 128,-1,27
 145 0 145 0 119 0 c 0,28,29
 82 0 82 0 66.5 15 c 128,-1,30
 51 30 51 30 51 53 c 2,31,-1
 51 495 l 2,32,33
 51 559 51 559 69.5 604 c 128,-1,34
 88 649 88 649 119.5 677.5 c 128,-1,35
 151 706 151 706 194 718.5 c 128,-1,36
 237 731 237 731 287 731 c 2,37,-1
 756 731 l 2,38,39
 781 731 781 731 792 709.5 c 128,-1,40
 803 688 803 688 803 664 c 0,41,42
 803 636 803 636 791 615.5 c 128,-1,43
 779 595 779 595 756 595 c 2,44,-1
 530 595 l 1,45,-1
 530 426 l 1,0,-1
197 426 m 1,46,-1
 374 426 l 1,47,-1
 374 595 l 1,48,-1
 287 595 l 2,49,50
 245 595 245 595 221 570.5 c 128,-1,51
 197 546 197 546 197 495 c 2,52,-1
 197 426 l 1,46,-1
EndSplineSet
EndChar
StartChar: Ccedilla
Encoding: 199 199 18
Width: 562
Flags: W
LayerCount: 2
Back
Fore
SplineSet
381 505 m 0,0,1
 381 515 381 515 379 530 c 128,-1,2
 377 545 377 545 368 559.5 c 128,-1,3
 359 574 359 574 341.5 584.5 c 128,-1,4
 324 595 324 595 292 595 c 0,5,6
 249 595 249 595 225.5 570.5 c 128,-1,7
 202 546 202 546 202 495 c 2,8,-1
 202 230 l 2,9,10
 202 179 202 179 225.5 154.5 c 128,-1,11
 249 130 249 130 293 130 c 0,12,13
 323 130 323 130 340 140 c 128,-1,14
 357 150 357 150 366 165 c 128,-1,15
 375 180 375 180 377.5 197.5 c 128,-1,16
 380 215 380 215 381 230 c 0,17,18
 383 258 383 258 405.5 267.5 c 128,-1,19
 428 277 428 277 458 277 c 0,20,21
 499 277 499 277 518 262.5 c 128,-1,22
 537 248 537 248 537 203 c 0,23,24
 537 157 537 157 521 120.5 c 128,-1,25
 505 84 505 84 476.5 58 c 128,-1,26
 448 32 448 32 408.5 16 c 128,-1,27
 369 0 369 0 322 -4 c 1,28,-1
 308 -47 l 1,29,30
 359 -49 359 -49 383.5 -71.5 c 128,-1,31
 408 -94 408 -94 408 -126 c 0,32,33
 408 -139 408 -139 403 -155 c 128,-1,34
 398 -171 398 -171 385.5 -185.5 c 128,-1,35
 373 -200 373 -200 351.5 -209.5 c 128,-1,36
 330 -219 330 -219 297 -219 c 0,37,38
 283 -219 283 -219 267.5 -217 c 128,-1,39
 252 -215 252 -215 239 -211.5 c 128,-1,40
 226 -208 226 -208 217.5 -202 c 128,-1,41
 209 -196 209 -196 209 -188 c 0,42,43
 209 -185 209 -185 210.5 -178 c 128,-1,44
 212 -171 212 -171 215 -164 c 128,-1,45
 218 -157 218 -157 223 -151.5 c 128,-1,46
 228 -146 228 -146 235 -146 c 0,47,48
 244 -146 244 -146 256.5 -153 c 128,-1,49
 269 -160 269 -160 293 -160 c 0,50,51
 313 -160 313 -160 326 -152.5 c 128,-1,52
 339 -145 339 -145 339 -129 c 0,53,54
 339 -116 339 -116 329 -106.5 c 128,-1,55
 319 -97 319 -97 296 -95 c 2,56,-1
 234 -89 l 1,57,-1
 259 -5 l 1,58,59
 214 -2 214 -2 175.5 12.5 c 128,-1,60
 137 27 137 27 108 55.5 c 128,-1,61
 79 84 79 84 62.5 127 c 128,-1,62
 46 170 46 170 46 230 c 2,63,-1
 46 495 l 2,64,65
 46 559 46 559 65 604 c 128,-1,66
 84 649 84 649 117 677.5 c 128,-1,67
 150 706 150 706 193.5 718.5 c 128,-1,68
 237 731 237 731 286 731 c 0,69,70
 340 731 340 731 385.5 718 c 128,-1,71
 431 705 431 705 465 679.5 c 128,-1,72
 499 654 499 654 518 617 c 128,-1,73
 537 580 537 580 537 532 c 0,74,75
 537 487 537 487 518 472.5 c 128,-1,76
 499 458 499 458 459 458 c 0,77,78
 427 458 427 458 405 468 c 128,-1,79
 383 478 383 478 381 505 c 0,0,1
EndSplineSet
EndChar
StartChar: Egrave
Encoding: 200 200 32
Width: 539
Flags: W
LayerCount: 2
Back
Fore
SplineSet
210 426 m 1,0,-1
 360 426 l 2,1,2
 383 426 383 426 395 407.5 c 128,-1,3
 407 389 407 389 407 365 c 0,4,5
 407 345 407 345 396 325.5 c 128,-1,6
 385 306 385 306 360 306 c 2,7,-1
 210 306 l 1,8,-1
 210 136 l 1,9,-1
 478 136 l 2,10,11
 501 136 501 136 513 115.5 c 128,-1,12
 525 95 525 95 525 67 c 0,13,14
 525 43 525 43 514 21.5 c 128,-1,15
 503 0 503 0 478 0 c 2,16,-1
 122 0 l 2,17,18
 96 0 96 0 75 12 c 128,-1,19
 54 24 54 24 54 48 c 2,20,-1
 54 683 l 2,21,22
 54 707 54 707 75 719 c 128,-1,23
 96 731 96 731 122 731 c 2,24,-1
 478 731 l 2,25,26
 503 731 503 731 514 709.5 c 128,-1,27
 525 688 525 688 525 664 c 0,28,29
 525 636 525 636 513 615.5 c 128,-1,30
 501 595 501 595 478 595 c 2,31,-1
 210 595 l 1,32,-1
 210 426 l 1,0,-1
193 867 m 2,33,34
 182 872 182 872 177.5 881 c 128,-1,35
 173 890 173 890 173 901 c 0,36,37
 173 911 173 911 176.5 921 c 128,-1,38
 180 931 180 931 186.5 939.5 c 128,-1,39
 193 948 193 948 201.5 953.5 c 128,-1,40
 210 959 210 959 220 959 c 0,41,42
 226 959 226 959 234 956 c 2,43,-1
 374 891 l 2,44,45
 394 881 394 881 394 856 c 0,46,47
 394 836 394 836 381 817 c 128,-1,48
 368 798 368 798 348 798 c 0,49,50
 343 798 343 798 333 802 c 2,51,-1
 193 867 l 2,33,34
EndSplineSet
EndChar
StartChar: Eacute
Encoding: 201 201 26
Width: 539
Flags: W
LayerCount: 2
Back
Fore
SplineSet
210 426 m 1,0,-1
 360 426 l 2,1,2
 383 426 383 426 395 407.5 c 128,-1,3
 407 389 407 389 407 365 c 0,4,5
 407 345 407 345 396 325.5 c 128,-1,6
 385 306 385 306 360 306 c 2,7,-1
 210 306 l 1,8,-1
 210 136 l 1,9,-1
 478 136 l 2,10,11
 501 136 501 136 513 115.5 c 128,-1,12
 525 95 525 95 525 67 c 0,13,14
 525 43 525 43 514 21.5 c 128,-1,15
 503 0 503 0 478 0 c 2,16,-1
 122 0 l 2,17,18
 96 0 96 0 75 12 c 128,-1,19
 54 24 54 24 54 48 c 2,20,-1
 54 683 l 2,21,22
 54 707 54 707 75 719 c 128,-1,23
 96 731 96 731 122 731 c 2,24,-1
 478 731 l 2,25,26
 503 731 503 731 514 709.5 c 128,-1,27
 525 688 525 688 525 664 c 0,28,29
 525 636 525 636 513 615.5 c 128,-1,30
 501 595 501 595 478 595 c 2,31,-1
 210 595 l 1,32,-1
 210 426 l 1,0,-1
264 802 m 2,33,34
 254 798 254 798 249 798 c 0,35,36
 229 798 229 798 216 817 c 128,-1,37
 203 836 203 836 203 856 c 0,38,39
 203 881 203 881 223 891 c 2,40,-1
 363 956 l 2,41,42
 370 959 370 959 377 959 c 0,43,44
 387 959 387 959 395.5 953.5 c 128,-1,45
 404 948 404 948 410.5 939.5 c 128,-1,46
 417 931 417 931 420.5 921 c 128,-1,47
 424 911 424 911 424 901 c 0,48,49
 424 890 424 890 419.5 881 c 128,-1,50
 415 872 415 872 404 867 c 2,51,-1
 264 802 l 2,33,34
EndSplineSet
EndChar
StartChar: Ecircumflex
Encoding: 202 202 29
Width: 539
Flags: W
LayerCount: 2
Back
Fore
SplineSet
210 426 m 1,0,-1
 360 426 l 2,1,2
 383 426 383 426 395 407.5 c 128,-1,3
 407 389 407 389 407 365 c 0,4,5
 407 345 407 345 396 325.5 c 128,-1,6
 385 306 385 306 360 306 c 2,7,-1
 210 306 l 1,8,-1
 210 136 l 1,9,-1
 478 136 l 2,10,11
 501 136 501 136 513 115.5 c 128,-1,12
 525 95 525 95 525 67 c 0,13,14
 525 43 525 43 514 21.5 c 128,-1,15
 503 0 503 0 478 0 c 2,16,-1
 122 0 l 2,17,18
 96 0 96 0 75 12 c 128,-1,19
 54 24 54 24 54 48 c 2,20,-1
 54 683 l 2,21,22
 54 707 54 707 75 719 c 128,-1,23
 96 731 96 731 122 731 c 2,24,-1
 478 731 l 2,25,26
 503 731 503 731 514 709.5 c 128,-1,27
 525 688 525 688 525 664 c 0,28,29
 525 636 525 636 513 615.5 c 128,-1,30
 501 595 501 595 478 595 c 2,31,-1
 210 595 l 1,32,-1
 210 426 l 1,0,-1
195 811 m 2,33,34
 189 808 189 808 184 808 c 0,35,36
 170 808 170 808 161.5 822.5 c 128,-1,37
 153 837 153 837 153 854 c 0,38,39
 153 867 153 867 158.5 878.5 c 128,-1,40
 164 890 164 890 178 898 c 2,41,-1
 282 954 l 2,42,43
 292 959 292 959 299 959 c 256,44,45
 306 959 306 959 316 954 c 2,46,-1
 420 898 l 2,47,48
 434 890 434 890 439.5 878.5 c 128,-1,49
 445 867 445 867 445 854 c 0,50,51
 445 837 445 837 436.5 822.5 c 128,-1,52
 428 808 428 808 414 808 c 0,53,54
 409 808 409 808 403 811 c 2,55,-1
 299 867 l 1,56,-1
 195 811 l 2,33,34
EndSplineSet
EndChar
StartChar: Edieresis
Encoding: 203 203 30
Width: 539
Flags: W
LayerCount: 2
Back
Fore
SplineSet
210 426 m 1,0,-1
 360 426 l 2,1,2
 383 426 383 426 395 407.5 c 128,-1,3
 407 389 407 389 407 365 c 0,4,5
 407 345 407 345 396 325.5 c 128,-1,6
 385 306 385 306 360 306 c 2,7,-1
 210 306 l 1,8,-1
 210 136 l 1,9,-1
 478 136 l 2,10,11
 501 136 501 136 513 115.5 c 128,-1,12
 525 95 525 95 525 67 c 0,13,14
 525 43 525 43 514 21.5 c 128,-1,15
 503 0 503 0 478 0 c 2,16,-1
 122 0 l 2,17,18
 96 0 96 0 75 12 c 128,-1,19
 54 24 54 24 54 48 c 2,20,-1
 54 683 l 2,21,22
 54 707 54 707 75 719 c 128,-1,23
 96 731 96 731 122 731 c 2,24,-1
 478 731 l 2,25,26
 503 731 503 731 514 709.5 c 128,-1,27
 525 688 525 688 525 664 c 0,28,29
 525 636 525 636 513 615.5 c 128,-1,30
 501 595 501 595 478 595 c 2,31,-1
 210 595 l 1,32,-1
 210 426 l 1,0,-1
213 927 m 256,33,34
 236 927 236 927 252.5 909.5 c 128,-1,35
 269 892 269 892 269 869 c 256,36,37
 269 846 269 846 252.5 828 c 128,-1,38
 236 810 236 810 213 810 c 256,39,40
 190 810 190 810 173 828 c 128,-1,41
 156 846 156 846 156 869 c 256,42,43
 156 892 156 892 173 909.5 c 128,-1,44
 190 927 190 927 213 927 c 256,33,34
373 927 m 256,45,46
 396 927 396 927 412.5 909.5 c 128,-1,47
 429 892 429 892 429 869 c 256,48,49
 429 846 429 846 412.5 828 c 128,-1,50
 396 810 396 810 373 810 c 256,51,52
 350 810 350 810 333 828 c 128,-1,53
 316 846 316 846 316 869 c 256,54,55
 316 892 316 892 333 909.5 c 128,-1,56
 350 927 350 927 373 927 c 256,45,46
EndSplineSet
EndChar
StartChar: Igrave
Encoding: 204 204 54
Width: 264
Flags: W
LayerCount: 2
Back
Fore
SplineSet
54 684 m 2,0,1
 54 709 54 709 78.5 720 c 128,-1,2
 103 731 103 731 132 731 c 256,3,4
 161 731 161 731 185.5 720 c 128,-1,5
 210 709 210 709 210 684 c 2,6,-1
 210 48 l 2,7,8
 210 24 210 24 185.5 12 c 128,-1,9
 161 0 161 0 132 0 c 256,10,11
 103 0 103 0 78.5 12 c 128,-1,12
 54 24 54 24 54 48 c 2,13,-1
 54 684 l 2,0,1
33 867 m 2,14,15
 22 872 22 872 17.5 881 c 128,-1,16
 13 890 13 890 13 901 c 0,17,18
 13 911 13 911 16.5 921 c 128,-1,19
 20 931 20 931 26.5 939.5 c 128,-1,20
 33 948 33 948 41.5 953.5 c 128,-1,21
 50 959 50 959 60 959 c 0,22,23
 66 959 66 959 74 956 c 2,24,-1
 214 891 l 2,25,26
 234 881 234 881 234 856 c 0,27,28
 234 836 234 836 221 817 c 128,-1,29
 208 798 208 798 188 798 c 0,30,31
 183 798 183 798 173 802 c 2,32,-1
 33 867 l 2,14,15
EndSplineSet
EndChar
StartChar: Iacute
Encoding: 205 205 49
Width: 264
Flags: W
LayerCount: 2
Back
Fore
SplineSet
54 684 m 2,0,1
 54 709 54 709 78.5 720 c 128,-1,2
 103 731 103 731 132 731 c 256,3,4
 161 731 161 731 185.5 720 c 128,-1,5
 210 709 210 709 210 684 c 2,6,-1
 210 48 l 2,7,8
 210 24 210 24 185.5 12 c 128,-1,9
 161 0 161 0 132 0 c 256,10,11
 103 0 103 0 78.5 12 c 128,-1,12
 54 24 54 24 54 48 c 2,13,-1
 54 684 l 2,0,1
92 802 m 2,14,15
 82 798 82 798 77 798 c 0,16,17
 57 798 57 798 44 817 c 128,-1,18
 31 836 31 836 31 856 c 0,19,20
 31 881 31 881 51 891 c 2,21,-1
 191 956 l 2,22,23
 198 959 198 959 205 959 c 0,24,25
 215 959 215 959 223.5 953.5 c 128,-1,26
 232 948 232 948 238.5 939.5 c 128,-1,27
 245 931 245 931 248.5 921 c 128,-1,28
 252 911 252 911 252 901 c 0,29,30
 252 890 252 890 247.5 881 c 128,-1,31
 243 872 243 872 232 867 c 2,32,-1
 92 802 l 2,14,15
EndSplineSet
EndChar
StartChar: Icircumflex
Encoding: 206 206 51
Width: 264
Flags: W
LayerCount: 2
Back
Fore
SplineSet
54 684 m 2,0,1
 54 709 54 709 78.5 720 c 128,-1,2
 103 731 103 731 132 731 c 256,3,4
 161 731 161 731 185.5 720 c 128,-1,5
 210 709 210 709 210 684 c 2,6,-1
 210 48 l 2,7,8
 210 24 210 24 185.5 12 c 128,-1,9
 161 0 161 0 132 0 c 256,10,11
 103 0 103 0 78.5 12 c 128,-1,12
 54 24 54 24 54 48 c 2,13,-1
 54 684 l 2,0,1
30 811 m 2,14,15
 24 808 24 808 19 808 c 0,16,17
 5 808 5 808 -3.5 822.5 c 128,-1,18
 -12 837 -12 837 -12 854 c 0,19,20
 -12 867 -12 867 -6.5 878.5 c 128,-1,21
 -1 890 -1 890 13 898 c 2,22,-1
 117 954 l 2,23,24
 127 959 127 959 134 959 c 256,25,26
 141 959 141 959 151 954 c 2,27,-1
 255 898 l 2,28,29
 269 890 269 890 274.5 878.5 c 128,-1,30
 280 867 280 867 280 854 c 0,31,32
 280 837 280 837 271.5 822.5 c 128,-1,33
 263 808 263 808 249 808 c 0,34,35
 244 808 244 808 238 811 c 2,36,-1
 134 867 l 1,37,-1
 30 811 l 2,14,15
EndSplineSet
EndChar
StartChar: Idieresis
Encoding: 207 207 52
Width: 264
Flags: W
LayerCount: 2
Back
Fore
SplineSet
54 684 m 2,0,1
 54 709 54 709 78.5 720 c 128,-1,2
 103 731 103 731 132 731 c 256,3,4
 161 731 161 731 185.5 720 c 128,-1,5
 210 709 210 709 210 684 c 2,6,-1
 210 48 l 2,7,8
 210 24 210 24 185.5 12 c 128,-1,9
 161 0 161 0 132 0 c 256,10,11
 103 0 103 0 78.5 12 c 128,-1,12
 54 24 54 24 54 48 c 2,13,-1
 54 684 l 2,0,1
54 927 m 256,14,15
 77 927 77 927 93.5 909.5 c 128,-1,16
 110 892 110 892 110 869 c 256,17,18
 110 846 110 846 93.5 828 c 128,-1,19
 77 810 77 810 54 810 c 256,20,21
 31 810 31 810 14 828 c 128,-1,22
 -3 846 -3 846 -3 869 c 256,23,24
 -3 892 -3 892 14 909.5 c 128,-1,25
 31 927 31 927 54 927 c 256,14,15
214 927 m 256,26,27
 237 927 237 927 253.5 909.5 c 128,-1,28
 270 892 270 892 270 869 c 256,29,30
 270 846 270 846 253.5 828 c 128,-1,31
 237 810 237 810 214 810 c 256,32,33
 191 810 191 810 174 828 c 128,-1,34
 157 846 157 846 157 869 c 256,35,36
 157 892 157 892 174 909.5 c 128,-1,37
 191 927 191 927 214 927 c 256,26,27
EndSplineSet
EndChar
StartChar: Ntilde
Encoding: 209 209 73
Width: 619
Flags: W
LayerCount: 2
Back
Fore
SplineSet
487 0 m 0,0,1
 460 0 460 0 437 8 c 128,-1,2
 414 16 414 16 400 42 c 2,3,-1
 210 388 l 1,4,-1
 210 48 l 2,5,6
 210 24 210 24 185.5 12 c 128,-1,7
 161 0 161 0 132 0 c 256,8,9
 103 0 103 0 78.5 12 c 128,-1,10
 54 24 54 24 54 48 c 2,11,-1
 54 683 l 2,12,13
 54 708 54 708 78.5 719.5 c 128,-1,14
 103 731 103 731 132 731 c 0,15,16
 153 731 153 731 168 729 c 128,-1,17
 183 727 183 727 196 719.5 c 128,-1,18
 209 712 209 712 221 696 c 128,-1,19
 233 680 233 680 247 653 c 2,20,-1
 409 344 l 1,21,-1
 409 684 l 2,22,23
 409 709 409 709 433.5 720 c 128,-1,24
 458 731 458 731 487 731 c 256,25,26
 516 731 516 731 540.5 720 c 128,-1,27
 565 709 565 709 565 684 c 2,28,-1
 565 48 l 2,29,30
 565 24 565 24 540.5 12 c 128,-1,31
 516 0 516 0 487 0 c 0,0,1
247 845 m 0,32,33
 231 845 231 845 219 841.5 c 128,-1,34
 207 838 207 838 197 834.5 c 128,-1,35
 187 831 187 831 178.5 827.5 c 128,-1,36
 170 824 170 824 161 824 c 0,37,38
 149 824 149 824 142 830 c 128,-1,39
 135 836 135 836 130.5 844.5 c 128,-1,40
 126 853 126 853 124.5 861 c 128,-1,41
 123 869 123 869 123 873 c 0,42,43
 123 900 123 900 133.5 914.5 c 128,-1,44
 144 929 144 929 158.5 936 c 128,-1,45
 173 943 173 943 187 944.5 c 128,-1,46
 201 946 201 946 208 946 c 0,47,48
 231 946 231 946 249 942 c 128,-1,49
 267 938 267 938 283.5 932.5 c 128,-1,50
 300 927 300 927 316.5 923 c 128,-1,51
 333 919 333 919 354 919 c 0,52,53
 370 919 370 919 382 922.5 c 128,-1,54
 394 926 394 926 404 929.5 c 128,-1,55
 414 933 414 933 422.5 936.5 c 128,-1,56
 431 940 431 940 440 940 c 0,57,58
 452 940 452 940 459 933.5 c 128,-1,59
 466 927 466 927 470.5 919 c 128,-1,60
 475 911 475 911 476.5 903 c 128,-1,61
 478 895 478 895 478 891 c 0,62,63
 478 864 478 864 467.5 849.5 c 128,-1,64
 457 835 457 835 442.5 828 c 128,-1,65
 428 821 428 821 414 819.5 c 128,-1,66
 400 818 400 818 393 818 c 0,67,68
 366 818 366 818 347 822 c 128,-1,69
 328 826 328 826 311.5 831.5 c 128,-1,70
 295 837 295 837 280 841 c 128,-1,71
 265 845 265 845 247 845 c 0,32,33
EndSplineSet
EndChar
StartChar: Ograve
Encoding: 210 210 80
Width: 583
Flags: W
LayerCount: 2
Back
Fore
SplineSet
291 -6 m 256,0,1
 239 -6 239 -6 194.5 6.5 c 128,-1,2
 150 19 150 19 117 47.5 c 128,-1,3
 84 76 84 76 65 120.5 c 128,-1,4
 46 165 46 165 46 230 c 2,5,-1
 46 495 l 2,6,7
 46 559 46 559 65 604 c 128,-1,8
 84 649 84 649 117 677.5 c 128,-1,9
 150 706 150 706 194.5 718.5 c 128,-1,10
 239 731 239 731 291 731 c 256,11,12
 343 731 343 731 388 718.5 c 128,-1,13
 433 706 433 706 466 677.5 c 128,-1,14
 499 649 499 649 518 604 c 128,-1,15
 537 559 537 559 537 495 c 2,16,-1
 537 230 l 2,17,18
 537 165 537 165 518 120.5 c 128,-1,19
 499 76 499 76 466 47.5 c 128,-1,20
 433 19 433 19 388 6.5 c 128,-1,21
 343 -6 343 -6 291 -6 c 256,0,1
381 495 m 2,22,23
 381 547 381 547 357 571 c 128,-1,24
 333 595 333 595 291 595 c 256,25,26
 249 595 249 595 225.5 571 c 128,-1,27
 202 547 202 547 202 495 c 2,28,-1
 202 230 l 2,29,30
 202 178 202 178 225.5 154 c 128,-1,31
 249 130 249 130 291 130 c 256,32,33
 333 130 333 130 357 154 c 128,-1,34
 381 178 381 178 381 230 c 2,35,-1
 381 495 l 2,22,23
185 867 m 2,36,37
 174 872 174 872 169.5 881 c 128,-1,38
 165 890 165 890 165 901 c 0,39,40
 165 911 165 911 168.5 921 c 128,-1,41
 172 931 172 931 178.5 939.5 c 128,-1,42
 185 948 185 948 193.5 953.5 c 128,-1,43
 202 959 202 959 212 959 c 0,44,45
 218 959 218 959 226 956 c 2,46,-1
 366 891 l 2,47,48
 386 881 386 881 386 856 c 0,49,50
 386 836 386 836 373 817 c 128,-1,51
 360 798 360 798 340 798 c 0,52,53
 335 798 335 798 325 802 c 2,54,-1
 185 867 l 2,36,37
EndSplineSet
EndChar
StartChar: Oacute
Encoding: 211 211 76
Width: 583
Flags: W
LayerCount: 2
Back
Fore
SplineSet
291 -6 m 256,0,1
 239 -6 239 -6 194.5 6.5 c 128,-1,2
 150 19 150 19 117 47.5 c 128,-1,3
 84 76 84 76 65 120.5 c 128,-1,4
 46 165 46 165 46 230 c 2,5,-1
 46 495 l 2,6,7
 46 559 46 559 65 604 c 128,-1,8
 84 649 84 649 117 677.5 c 128,-1,9
 150 706 150 706 194.5 718.5 c 128,-1,10
 239 731 239 731 291 731 c 256,11,12
 343 731 343 731 388 718.5 c 128,-1,13
 433 706 433 706 466 677.5 c 128,-1,14
 499 649 499 649 518 604 c 128,-1,15
 537 559 537 559 537 495 c 2,16,-1
 537 230 l 2,17,18
 537 165 537 165 518 120.5 c 128,-1,19
 499 76 499 76 466 47.5 c 128,-1,20
 433 19 433 19 388 6.5 c 128,-1,21
 343 -6 343 -6 291 -6 c 256,0,1
381 495 m 2,22,23
 381 547 381 547 357 571 c 128,-1,24
 333 595 333 595 291 595 c 256,25,26
 249 595 249 595 225.5 571 c 128,-1,27
 202 547 202 547 202 495 c 2,28,-1
 202 230 l 2,29,30
 202 178 202 178 225.5 154 c 128,-1,31
 249 130 249 130 291 130 c 256,32,33
 333 130 333 130 357 154 c 128,-1,34
 381 178 381 178 381 230 c 2,35,-1
 381 495 l 2,22,23
286 802 m 2,36,37
 276 798 276 798 271 798 c 0,38,39
 251 798 251 798 238 817 c 128,-1,40
 225 836 225 836 225 856 c 0,41,42
 225 881 225 881 245 891 c 2,43,-1
 385 956 l 2,44,45
 392 959 392 959 399 959 c 0,46,47
 409 959 409 959 417.5 953.5 c 128,-1,48
 426 948 426 948 432.5 939.5 c 128,-1,49
 439 931 439 931 442.5 921 c 128,-1,50
 446 911 446 911 446 901 c 0,51,52
 446 890 446 890 441.5 881 c 128,-1,53
 437 872 437 872 426 867 c 2,54,-1
 286 802 l 2,36,37
EndSplineSet
EndChar
StartChar: Ocircumflex
Encoding: 212 212 78
Width: 583
Flags: W
LayerCount: 2
Back
Fore
SplineSet
291 -6 m 256,0,1
 239 -6 239 -6 194.5 6.5 c 128,-1,2
 150 19 150 19 117 47.5 c 128,-1,3
 84 76 84 76 65 120.5 c 128,-1,4
 46 165 46 165 46 230 c 2,5,-1
 46 495 l 2,6,7
 46 559 46 559 65 604 c 128,-1,8
 84 649 84 649 117 677.5 c 128,-1,9
 150 706 150 706 194.5 718.5 c 128,-1,10
 239 731 239 731 291 731 c 256,11,12
 343 731 343 731 388 718.5 c 128,-1,13
 433 706 433 706 466 677.5 c 128,-1,14
 499 649 499 649 518 604 c 128,-1,15
 537 559 537 559 537 495 c 2,16,-1
 537 230 l 2,17,18
 537 165 537 165 518 120.5 c 128,-1,19
 499 76 499 76 466 47.5 c 128,-1,20
 433 19 433 19 388 6.5 c 128,-1,21
 343 -6 343 -6 291 -6 c 256,0,1
381 495 m 2,22,23
 381 547 381 547 357 571 c 128,-1,24
 333 595 333 595 291 595 c 256,25,26
 249 595 249 595 225.5 571 c 128,-1,27
 202 547 202 547 202 495 c 2,28,-1
 202 230 l 2,29,30
 202 178 202 178 225.5 154 c 128,-1,31
 249 130 249 130 291 130 c 256,32,33
 333 130 333 130 357 154 c 128,-1,34
 381 178 381 178 381 230 c 2,35,-1
 381 495 l 2,22,23
187 811 m 2,36,37
 181 808 181 808 176 808 c 0,38,39
 162 808 162 808 153.5 822.5 c 128,-1,40
 145 837 145 837 145 854 c 0,41,42
 145 867 145 867 150.5 878.5 c 128,-1,43
 156 890 156 890 170 898 c 2,44,-1
 274 954 l 2,45,46
 284 959 284 959 291 959 c 256,47,48
 298 959 298 959 308 954 c 2,49,-1
 412 898 l 2,50,51
 426 890 426 890 431.5 878.5 c 128,-1,52
 437 867 437 867 437 854 c 0,53,54
 437 837 437 837 428.5 822.5 c 128,-1,55
 420 808 420 808 406 808 c 0,56,57
 401 808 401 808 395 811 c 2,58,-1
 291 867 l 1,59,-1
 187 811 l 2,36,37
EndSplineSet
EndChar
StartChar: Otilde
Encoding: 213 213 86
Width: 583
Flags: W
LayerCount: 2
Back
Fore
SplineSet
291 -6 m 256,0,1
 239 -6 239 -6 194.5 6.5 c 128,-1,2
 150 19 150 19 117 47.5 c 128,-1,3
 84 76 84 76 65 120.5 c 128,-1,4
 46 165 46 165 46 230 c 2,5,-1
 46 495 l 2,6,7
 46 559 46 559 65 604 c 128,-1,8
 84 649 84 649 117 677.5 c 128,-1,9
 150 706 150 706 194.5 718.5 c 128,-1,10
 239 731 239 731 291 731 c 256,11,12
 343 731 343 731 388 718.5 c 128,-1,13
 433 706 433 706 466 677.5 c 128,-1,14
 499 649 499 649 518 604 c 128,-1,15
 537 559 537 559 537 495 c 2,16,-1
 537 230 l 2,17,18
 537 165 537 165 518 120.5 c 128,-1,19
 499 76 499 76 466 47.5 c 128,-1,20
 433 19 433 19 388 6.5 c 128,-1,21
 343 -6 343 -6 291 -6 c 256,0,1
381 495 m 2,22,23
 381 547 381 547 357 571 c 128,-1,24
 333 595 333 595 291 595 c 256,25,26
 249 595 249 595 225.5 571 c 128,-1,27
 202 547 202 547 202 495 c 2,28,-1
 202 230 l 2,29,30
 202 178 202 178 225.5 154 c 128,-1,31
 249 130 249 130 291 130 c 256,32,33
 333 130 333 130 357 154 c 128,-1,34
 381 178 381 178 381 230 c 2,35,-1
 381 495 l 2,22,23
238 845 m 0,36,37
 222 845 222 845 210 841.5 c 128,-1,38
 198 838 198 838 188 834.5 c 128,-1,39
 178 831 178 831 169.5 827.5 c 128,-1,40
 161 824 161 824 152 824 c 0,41,42
 140 824 140 824 133 830 c 128,-1,43
 126 836 126 836 121.5 844.5 c 128,-1,44
 117 853 117 853 115.5 861 c 128,-1,45
 114 869 114 869 114 873 c 0,46,47
 114 900 114 900 124.5 914.5 c 128,-1,48
 135 929 135 929 149.5 936 c 128,-1,49
 164 943 164 943 178 944.5 c 128,-1,50
 192 946 192 946 199 946 c 0,51,52
 222 946 222 946 240 942 c 128,-1,53
 258 938 258 938 274.5 932.5 c 128,-1,54
 291 927 291 927 307.5 923 c 128,-1,55
 324 919 324 919 345 919 c 0,56,57
 361 919 361 919 373 922.5 c 128,-1,58
 385 926 385 926 395 929.5 c 128,-1,59
 405 933 405 933 413.5 936.5 c 128,-1,60
 422 940 422 940 431 940 c 0,61,62
 443 940 443 940 450 933.5 c 128,-1,63
 457 927 457 927 461.5 919 c 128,-1,64
 466 911 466 911 467.5 903 c 128,-1,65
 469 895 469 895 469 891 c 0,66,67
 469 864 469 864 458.5 849.5 c 128,-1,68
 448 835 448 835 433.5 828 c 128,-1,69
 419 821 419 821 405 819.5 c 128,-1,70
 391 818 391 818 384 818 c 0,71,72
 357 818 357 818 338 822 c 128,-1,73
 319 826 319 826 302.5 831.5 c 128,-1,74
 286 837 286 837 271 841 c 128,-1,75
 256 845 256 845 238 845 c 0,36,37
EndSplineSet
EndChar
StartChar: Odieresis
Encoding: 214 214 79
Width: 583
Flags: W
LayerCount: 2
Back
Fore
SplineSet
291 -6 m 256,0,1
 239 -6 239 -6 194.5 6.5 c 128,-1,2
 150 19 150 19 117 47.5 c 128,-1,3
 84 76 84 76 65 120.5 c 128,-1,4
 46 165 46 165 46 230 c 2,5,-1
 46 495 l 2,6,7
 46 559 46 559 65 604 c 128,-1,8
 84 649 84 649 117 677.5 c 128,-1,9
 150 706 150 706 194.5 718.5 c 128,-1,10
 239 731 239 731 291 731 c 256,11,12
 343 731 343 731 388 718.5 c 128,-1,13
 433 706 433 706 466 677.5 c 128,-1,14
 499 649 499 649 518 604 c 128,-1,15
 537 559 537 559 537 495 c 2,16,-1
 537 230 l 2,17,18
 537 165 537 165 518 120.5 c 128,-1,19
 499 76 499 76 466 47.5 c 128,-1,20
 433 19 433 19 388 6.5 c 128,-1,21
 343 -6 343 -6 291 -6 c 256,0,1
381 495 m 2,22,23
 381 547 381 547 357 571 c 128,-1,24
 333 595 333 595 291 595 c 256,25,26
 249 595 249 595 225.5 571 c 128,-1,27
 202 547 202 547 202 495 c 2,28,-1
 202 230 l 2,29,30
 202 178 202 178 225.5 154 c 128,-1,31
 249 130 249 130 291 130 c 256,32,33
 333 130 333 130 357 154 c 128,-1,34
 381 178 381 178 381 230 c 2,35,-1
 381 495 l 2,22,23
213 927 m 256,36,37
 236 927 236 927 252.5 909.5 c 128,-1,38
 269 892 269 892 269 869 c 256,39,40
 269 846 269 846 252.5 828 c 128,-1,41
 236 810 236 810 213 810 c 256,42,43
 190 810 190 810 173 828 c 128,-1,44
 156 846 156 846 156 869 c 256,45,46
 156 892 156 892 173 909.5 c 128,-1,47
 190 927 190 927 213 927 c 256,36,37
373 927 m 256,48,49
 396 927 396 927 412.5 909.5 c 128,-1,50
 429 892 429 892 429 869 c 256,51,52
 429 846 429 846 412.5 828 c 128,-1,53
 396 810 396 810 373 810 c 256,54,55
 350 810 350 810 333 828 c 128,-1,56
 316 846 316 846 316 869 c 256,57,58
 316 892 316 892 333 909.5 c 128,-1,59
 350 927 350 927 373 927 c 256,48,49
EndSplineSet
EndChar
StartChar: multiply
Encoding: 215 215 279
Width: 410
Flags: W
LayerCount: 2
Back
Fore
SplineSet
375 176 m 0,0,1
 375 163 375 163 368.5 150.5 c 128,-1,2
 362 138 362 138 351.5 127.5 c 128,-1,3
 341 117 341 117 328 110.5 c 128,-1,4
 315 104 315 104 302 104 c 0,5,6
 285 104 285 104 273 116 c 2,7,-1
 204 185 l 1,8,-1
 136 116 l 2,9,10
 124 104 124 104 106 104 c 0,11,12
 94 104 94 104 81 110.5 c 128,-1,13
 68 117 68 117 57.5 127.5 c 128,-1,14
 47 138 47 138 40.5 151 c 128,-1,15
 34 164 34 164 34 177 c 0,16,17
 34 194 34 194 46 206 c 2,18,-1
 125 275 l 1,19,-1
 47 342 l 2,20,21
 36 353 36 353 36 371 c 0,22,23
 36 384 36 384 42 397 c 128,-1,24
 48 410 48 410 58 420.5 c 128,-1,25
 68 431 68 431 81 437 c 128,-1,26
 94 443 94 443 107 443 c 0,27,28
 124 443 124 443 137 432 c 2,29,-1
 204 364 l 1,30,-1
 272 432 l 2,31,32
 283 443 283 443 301 443 c 0,33,34
 314 443 314 443 327 437 c 128,-1,35
 340 431 340 431 350.5 421 c 128,-1,36
 361 411 361 411 367 398 c 128,-1,37
 373 385 373 385 373 372 c 0,38,39
 373 353 373 353 362 342 c 2,40,-1
 284 275 l 1,41,-1
 363 206 l 2,42,43
 375 194 375 194 375 176 c 0,0,1
EndSplineSet
EndChar
StartChar: Oslash
Encoding: 216 216 84
Width: 583
Flags: W
LayerCount: 2
Back
Fore
SplineSet
464 772 m 0,0,1
 485 772 485 772 504 757.5 c 128,-1,2
 523 743 523 743 523 719 c 0,3,4
 523 708 523 708 519 700 c 2,5,-1
 493 648 l 1,6,7
 514 620 514 620 525.5 582.5 c 128,-1,8
 537 545 537 545 537 495 c 2,9,-1
 537 230 l 2,10,11
 537 165 537 165 518 120.5 c 128,-1,12
 499 76 499 76 466 47.5 c 128,-1,13
 433 19 433 19 388 6.5 c 128,-1,14
 343 -6 343 -6 291 -6 c 0,15,16
 230 -6 230 -6 182 10 c 1,17,-1
 167 -21 l 2,18,19
 162 -32 162 -32 149 -39 c 128,-1,20
 136 -46 136 -46 122 -46 c 0,21,22
 96 -46 96 -46 81 -29 c 128,-1,23
 66 -12 66 -12 66 7 c 0,24,25
 66 16 66 16 71 26 c 2,26,-1
 93 71 l 1,27,28
 70 99 70 99 58 138 c 128,-1,29
 46 177 46 177 46 230 c 2,30,-1
 46 495 l 2,31,32
 46 559 46 559 65 604 c 128,-1,33
 84 649 84 649 117 677.5 c 128,-1,34
 150 706 150 706 194.5 718.5 c 128,-1,35
 239 731 239 731 291 731 c 0,36,37
 355 731 355 731 405 712 c 1,38,-1
 422 747 l 2,39,40
 428 760 428 760 439 766 c 128,-1,41
 450 772 450 772 464 772 c 0,0,1
202 295 m 1,42,-1
 342 583 l 1,43,44
 321 595 321 595 291 595 c 0,45,46
 249 595 249 595 225.5 571 c 128,-1,47
 202 547 202 547 202 495 c 2,48,-1
 202 295 l 1,42,-1
381 417 m 1,49,-1
 245 139 l 1,50,51
 264 130 264 130 291 130 c 0,52,53
 333 130 333 130 357 154 c 128,-1,54
 381 178 381 178 381 230 c 2,55,-1
 381 417 l 1,49,-1
EndSplineSet
EndChar
StartChar: Ugrave
Encoding: 217 217 109
Width: 606
Flags: W
LayerCount: 2
Back
Fore
SplineSet
399 684 m 2,0,1
 399 709 399 709 423 720 c 128,-1,2
 447 731 447 731 477 731 c 0,3,4
 491 731 491 731 505 728.5 c 128,-1,5
 519 726 519 726 530 720 c 128,-1,6
 541 714 541 714 548 705 c 128,-1,7
 555 696 555 696 555 684 c 2,8,-1
 555 230 l 2,9,10
 555 165 555 165 535.5 120.5 c 128,-1,11
 516 76 516 76 482 47.5 c 128,-1,12
 448 19 448 19 402 6.5 c 128,-1,13
 356 -6 356 -6 303 -6 c 256,14,15
 250 -6 250 -6 204 6.5 c 128,-1,16
 158 19 158 19 124 47.5 c 128,-1,17
 90 76 90 76 70.5 120.5 c 128,-1,18
 51 165 51 165 51 230 c 2,19,-1
 51 684 l 2,20,21
 51 709 51 709 75 720 c 128,-1,22
 99 731 99 731 129 731 c 0,23,24
 143 731 143 731 157 728.5 c 128,-1,25
 171 726 171 726 182 720 c 128,-1,26
 193 714 193 714 200 705 c 128,-1,27
 207 696 207 696 207 684 c 2,28,-1
 207 230 l 2,29,30
 207 179 207 179 232.5 154.5 c 128,-1,31
 258 130 258 130 303 130 c 256,32,33
 348 130 348 130 373.5 154.5 c 128,-1,34
 399 179 399 179 399 230 c 2,35,-1
 399 684 l 2,0,1
190 867 m 2,36,37
 179 872 179 872 174.5 881 c 128,-1,38
 170 890 170 890 170 901 c 0,39,40
 170 911 170 911 173.5 921 c 128,-1,41
 177 931 177 931 183.5 939.5 c 128,-1,42
 190 948 190 948 198.5 953.5 c 128,-1,43
 207 959 207 959 217 959 c 0,44,45
 223 959 223 959 231 956 c 2,46,-1
 371 891 l 2,47,48
 391 881 391 881 391 856 c 0,49,50
 391 836 391 836 378 817 c 128,-1,51
 365 798 365 798 345 798 c 0,52,53
 340 798 340 798 330 802 c 2,54,-1
 190 867 l 2,36,37
EndSplineSet
EndChar
StartChar: Uacute
Encoding: 218 218 105
Width: 606
Flags: W
LayerCount: 2
Back
Fore
SplineSet
399 684 m 2,0,1
 399 709 399 709 423 720 c 128,-1,2
 447 731 447 731 477 731 c 0,3,4
 491 731 491 731 505 728.5 c 128,-1,5
 519 726 519 726 530 720 c 128,-1,6
 541 714 541 714 548 705 c 128,-1,7
 555 696 555 696 555 684 c 2,8,-1
 555 230 l 2,9,10
 555 165 555 165 535.5 120.5 c 128,-1,11
 516 76 516 76 482 47.5 c 128,-1,12
 448 19 448 19 402 6.5 c 128,-1,13
 356 -6 356 -6 303 -6 c 256,14,15
 250 -6 250 -6 204 6.5 c 128,-1,16
 158 19 158 19 124 47.5 c 128,-1,17
 90 76 90 76 70.5 120.5 c 128,-1,18
 51 165 51 165 51 230 c 2,19,-1
 51 684 l 2,20,21
 51 709 51 709 75 720 c 128,-1,22
 99 731 99 731 129 731 c 0,23,24
 143 731 143 731 157 728.5 c 128,-1,25
 171 726 171 726 182 720 c 128,-1,26
 193 714 193 714 200 705 c 128,-1,27
 207 696 207 696 207 684 c 2,28,-1
 207 230 l 2,29,30
 207 179 207 179 232.5 154.5 c 128,-1,31
 258 130 258 130 303 130 c 256,32,33
 348 130 348 130 373.5 154.5 c 128,-1,34
 399 179 399 179 399 230 c 2,35,-1
 399 684 l 2,0,1
281 802 m 2,36,37
 271 798 271 798 266 798 c 0,38,39
 246 798 246 798 233 817 c 128,-1,40
 220 836 220 836 220 856 c 0,41,42
 220 881 220 881 240 891 c 2,43,-1
 380 956 l 2,44,45
 387 959 387 959 394 959 c 0,46,47
 404 959 404 959 412.5 953.5 c 128,-1,48
 421 948 421 948 427.5 939.5 c 128,-1,49
 434 931 434 931 437.5 921 c 128,-1,50
 441 911 441 911 441 901 c 0,51,52
 441 890 441 890 436.5 881 c 128,-1,53
 432 872 432 872 421 867 c 2,54,-1
 281 802 l 2,36,37
EndSplineSet
EndChar
StartChar: Ucircumflex
Encoding: 219 219 107
Width: 606
Flags: W
LayerCount: 2
Back
Fore
SplineSet
399 684 m 2,0,1
 399 709 399 709 423 720 c 128,-1,2
 447 731 447 731 477 731 c 0,3,4
 491 731 491 731 505 728.5 c 128,-1,5
 519 726 519 726 530 720 c 128,-1,6
 541 714 541 714 548 705 c 128,-1,7
 555 696 555 696 555 684 c 2,8,-1
 555 230 l 2,9,10
 555 165 555 165 535.5 120.5 c 128,-1,11
 516 76 516 76 482 47.5 c 128,-1,12
 448 19 448 19 402 6.5 c 128,-1,13
 356 -6 356 -6 303 -6 c 256,14,15
 250 -6 250 -6 204 6.5 c 128,-1,16
 158 19 158 19 124 47.5 c 128,-1,17
 90 76 90 76 70.5 120.5 c 128,-1,18
 51 165 51 165 51 230 c 2,19,-1
 51 684 l 2,20,21
 51 709 51 709 75 720 c 128,-1,22
 99 731 99 731 129 731 c 0,23,24
 143 731 143 731 157 728.5 c 128,-1,25
 171 726 171 726 182 720 c 128,-1,26
 193 714 193 714 200 705 c 128,-1,27
 207 696 207 696 207 684 c 2,28,-1
 207 230 l 2,29,30
 207 179 207 179 232.5 154.5 c 128,-1,31
 258 130 258 130 303 130 c 256,32,33
 348 130 348 130 373.5 154.5 c 128,-1,34
 399 179 399 179 399 230 c 2,35,-1
 399 684 l 2,0,1
192 811 m 2,36,37
 186 808 186 808 181 808 c 0,38,39
 167 808 167 808 158.5 822.5 c 128,-1,40
 150 837 150 837 150 854 c 0,41,42
 150 867 150 867 155.5 878.5 c 128,-1,43
 161 890 161 890 175 898 c 2,44,-1
 279 954 l 2,45,46
 289 959 289 959 296 959 c 256,47,48
 303 959 303 959 313 954 c 2,49,-1
 417 898 l 2,50,51
 431 890 431 890 436.5 878.5 c 128,-1,52
 442 867 442 867 442 854 c 0,53,54
 442 837 442 837 433.5 822.5 c 128,-1,55
 425 808 425 808 411 808 c 0,56,57
 406 808 406 808 400 811 c 2,58,-1
 296 867 l 1,59,-1
 192 811 l 2,36,37
EndSplineSet
EndChar
StartChar: Udieresis
Encoding: 220 220 108
Width: 606
Flags: W
LayerCount: 2
Back
Fore
SplineSet
399 684 m 2,0,1
 399 709 399 709 423 720 c 128,-1,2
 447 731 447 731 477 731 c 0,3,4
 491 731 491 731 505 728.5 c 128,-1,5
 519 726 519 726 530 720 c 128,-1,6
 541 714 541 714 548 705 c 128,-1,7
 555 696 555 696 555 684 c 2,8,-1
 555 230 l 2,9,10
 555 165 555 165 535.5 120.5 c 128,-1,11
 516 76 516 76 482 47.5 c 128,-1,12
 448 19 448 19 402 6.5 c 128,-1,13
 356 -6 356 -6 303 -6 c 256,14,15
 250 -6 250 -6 204 6.5 c 128,-1,16
 158 19 158 19 124 47.5 c 128,-1,17
 90 76 90 76 70.5 120.5 c 128,-1,18
 51 165 51 165 51 230 c 2,19,-1
 51 684 l 2,20,21
 51 709 51 709 75 720 c 128,-1,22
 99 731 99 731 129 731 c 0,23,24
 143 731 143 731 157 728.5 c 128,-1,25
 171 726 171 726 182 720 c 128,-1,26
 193 714 193 714 200 705 c 128,-1,27
 207 696 207 696 207 684 c 2,28,-1
 207 230 l 2,29,30
 207 179 207 179 232.5 154.5 c 128,-1,31
 258 130 258 130 303 130 c 256,32,33
 348 130 348 130 373.5 154.5 c 128,-1,34
 399 179 399 179 399 230 c 2,35,-1
 399 684 l 2,0,1
223 927 m 256,36,37
 246 927 246 927 262.5 909.5 c 128,-1,38
 279 892 279 892 279 869 c 256,39,40
 279 846 279 846 262.5 828 c 128,-1,41
 246 810 246 810 223 810 c 256,42,43
 200 810 200 810 183 828 c 128,-1,44
 166 846 166 846 166 869 c 256,45,46
 166 892 166 892 183 909.5 c 128,-1,47
 200 927 200 927 223 927 c 256,36,37
383 927 m 256,48,49
 406 927 406 927 422.5 909.5 c 128,-1,50
 439 892 439 892 439 869 c 256,51,52
 439 846 439 846 422.5 828 c 128,-1,53
 406 810 406 810 383 810 c 256,54,55
 360 810 360 810 343 828 c 128,-1,56
 326 846 326 846 326 869 c 256,57,58
 326 892 326 892 343 909.5 c 128,-1,59
 360 927 360 927 383 927 c 256,48,49
EndSplineSet
EndChar
StartChar: Yacute
Encoding: 221 221 123
Width: 590
Flags: W
LayerCount: 2
Back
Fore
SplineSet
217 299 m 2,0,1
 217 307 217 307 213 313 c 2,2,-1
 6 656 l 2,3,4
 4 660 4 660 4 667 c 0,5,6
 4 681 4 681 14.5 692.5 c 128,-1,7
 25 704 25 704 41 712.5 c 128,-1,8
 57 721 57 721 75.5 726 c 128,-1,9
 94 731 94 731 110 731 c 0,10,11
 129 731 129 731 138 723.5 c 128,-1,12
 147 716 147 716 155 702 c 2,13,-1
 295 445 l 1,14,-1
 434 702 l 2,15,16
 442 716 442 716 451 723.5 c 128,-1,17
 460 731 460 731 479 731 c 0,18,19
 495 731 495 731 513.5 726 c 128,-1,20
 532 721 532 721 548 712.5 c 128,-1,21
 564 704 564 704 574.5 692.5 c 128,-1,22
 585 681 585 681 585 667 c 0,23,24
 585 660 585 660 583 656 c 2,25,-1
 377 313 l 2,26,27
 373 307 373 307 373 299 c 2,28,-1
 373 48 l 2,29,30
 373 24 373 24 348.5 12 c 128,-1,31
 324 0 324 0 295 0 c 256,32,33
 266 0 266 0 241.5 12 c 128,-1,34
 217 24 217 24 217 48 c 2,35,-1
 217 299 l 2,0,1
266 802 m 2,36,37
 256 798 256 798 251 798 c 0,38,39
 231 798 231 798 218 817 c 128,-1,40
 205 836 205 836 205 856 c 0,41,42
 205 881 205 881 225 891 c 2,43,-1
 365 956 l 2,44,45
 372 959 372 959 379 959 c 0,46,47
 389 959 389 959 397.5 953.5 c 128,-1,48
 406 948 406 948 412.5 939.5 c 128,-1,49
 419 931 419 931 422.5 921 c 128,-1,50
 426 911 426 911 426 901 c 0,51,52
 426 890 426 890 421.5 881 c 128,-1,53
 417 872 417 872 406 867 c 2,54,-1
 266 802 l 2,36,37
EndSplineSet
EndChar
StartChar: Thorn
Encoding: 222 222 103
Width: 529
Flags: W
LayerCount: 2
Back
Fore
SplineSet
128 748 m 0,0,1
 163 748 163 748 186 735 c 128,-1,2
 209 722 209 722 209 701 c 2,3,-1
 209 547 l 1,4,5
 225 576 225 576 257.5 599.5 c 128,-1,6
 290 623 290 623 334 623 c 0,7,8
 372 623 372 623 404.5 606.5 c 128,-1,9
 437 590 437 590 461 561.5 c 128,-1,10
 485 533 485 533 499 494.5 c 128,-1,11
 513 456 513 456 513 413 c 2,12,-1
 513 343 l 2,13,14
 513 301 513 301 499 263 c 128,-1,15
 485 225 485 225 461 195.5 c 128,-1,16
 437 166 437 166 405.5 148.5 c 128,-1,17
 374 131 374 131 339 131 c 0,18,19
 317 131 317 131 296.5 137.5 c 128,-1,20
 276 144 276 144 259 155.5 c 128,-1,21
 242 167 242 167 229 181.5 c 128,-1,22
 216 196 216 196 209 211 c 1,23,-1
 209 48 l 2,24,25
 209 30 209 30 186 15 c 128,-1,26
 163 0 163 0 130 0 c 256,27,28
 97 0 97 0 75.5 15 c 128,-1,29
 54 30 54 30 54 48 c 2,30,-1
 54 701 l 2,31,32
 54 722 54 722 75.5 735 c 128,-1,33
 97 748 97 748 128 748 c 0,0,1
358 413 m 2,34,35
 358 442 358 442 336 465 c 128,-1,36
 314 488 314 488 282 488 c 0,37,38
 255 488 255 488 232 468 c 128,-1,39
 209 448 209 448 209 413 c 2,40,-1
 209 330 l 2,41,42
 209 324 209 324 214.5 313 c 128,-1,43
 220 302 220 302 230 291.5 c 128,-1,44
 240 281 240 281 253.5 273.5 c 128,-1,45
 267 266 267 266 284 266 c 0,46,47
 299 266 299 266 312 272.5 c 128,-1,48
 325 279 325 279 335.5 290 c 128,-1,49
 346 301 346 301 352 314.5 c 128,-1,50
 358 328 358 328 358 343 c 2,51,-1
 358 413 l 2,34,35
EndSplineSet
EndChar
StartChar: germandbls
Encoding: 223 223 234
Width: 617
Flags: W
LayerCount: 2
Back
Fore
SplineSet
359 -20 m 0,0,1
 340 -20 340 -20 322.5 -18.5 c 128,-1,2
 305 -17 305 -17 291.5 -10.5 c 128,-1,3
 278 -4 278 -4 270 9.5 c 128,-1,4
 262 23 262 23 262 47 c 0,5,6
 262 57 262 57 264 69.5 c 128,-1,7
 266 82 266 82 270.5 93.5 c 128,-1,8
 275 105 275 105 281.5 112.5 c 128,-1,9
 288 120 288 120 298 120 c 0,10,11
 309 120 309 120 324 115.5 c 128,-1,12
 339 111 339 111 360 111 c 0,13,14
 399 111 399 111 420.5 134.5 c 128,-1,15
 442 158 442 158 442 200 c 2,16,-1
 442 211 l 2,17,18
 442 248 442 248 432.5 272 c 128,-1,19
 423 296 423 296 408 311 c 128,-1,20
 393 326 393 326 373.5 334.5 c 128,-1,21
 354 343 354 343 334 350 c 0,22,23
 325 353 325 353 317 356.5 c 128,-1,24
 309 360 309 360 303.5 367 c 128,-1,25
 298 374 298 374 295 385 c 128,-1,26
 292 396 292 396 292 413 c 0,27,28
 292 445 292 445 303 454 c 128,-1,29
 314 463 314 463 335 469 c 0,30,31
 348 473 348 473 355.5 481.5 c 128,-1,32
 363 490 363 490 367 501 c 128,-1,33
 371 512 371 512 372.5 524 c 128,-1,34
 374 536 374 536 374 547 c 0,35,36
 374 583 374 583 359 608 c 128,-1,37
 344 633 344 633 305 633 c 0,38,39
 267 633 267 633 254 610.5 c 128,-1,40
 241 588 241 588 241 560 c 2,41,-1
 241 47 l 2,42,43
 241 26 241 26 217.5 13 c 128,-1,44
 194 0 194 0 162 0 c 256,45,46
 130 0 130 0 108 13 c 128,-1,47
 86 26 86 26 86 47 c 2,48,-1
 86 366 l 1,49,-1
 37 366 l 2,50,51
 18 366 18 366 8.5 383 c 128,-1,52
 -1 400 -1 400 -1 421 c 0,53,54
 -1 441 -1 441 8.5 458.5 c 128,-1,55
 18 476 18 476 37 476 c 2,56,-1
 86 476 l 1,57,-1
 86 560 l 2,58,59
 86 602 86 602 97 639.5 c 128,-1,60
 108 677 108 677 132.5 705.5 c 128,-1,61
 157 734 157 734 196.5 751 c 128,-1,62
 236 768 236 768 293 768 c 0,63,64
 336 768 336 768 373.5 757 c 128,-1,65
 411 746 411 746 439 723 c 128,-1,66
 467 700 467 700 483.5 665 c 128,-1,67
 500 630 500 630 500 582 c 0,68,69
 500 558 500 558 495.5 534.5 c 128,-1,70
 491 511 491 511 482.5 490.5 c 128,-1,71
 474 470 474 470 461.5 454.5 c 128,-1,72
 449 439 449 439 434 431 c 1,73,74
 461 426 461 426 489.5 409.5 c 128,-1,75
 518 393 518 393 541.5 366.5 c 128,-1,76
 565 340 565 340 579.5 304 c 128,-1,77
 594 268 594 268 594 225 c 2,78,-1
 594 214 l 2,79,80
 594 158 594 158 575 114.5 c 128,-1,81
 556 71 556 71 523.5 41 c 128,-1,82
 491 11 491 11 448.5 -4.5 c 128,-1,83
 406 -20 406 -20 359 -20 c 0,0,1
EndSplineSet
EndChar
StartChar: agrave
Encoding: 224 224 140
Width: 484
Flags: W
LayerCount: 2
Back
Fore
SplineSet
145 628 m 2,0,1
 134 633 134 633 129.5 642 c 128,-1,2
 125 651 125 651 125 662 c 0,3,4
 125 672 125 672 128.5 682 c 128,-1,5
 132 692 132 692 138.5 700.5 c 128,-1,6
 145 709 145 709 153.5 714.5 c 128,-1,7
 162 720 162 720 172 720 c 0,8,9
 178 720 178 720 186 717 c 2,10,-1
 326 652 l 2,11,12
 346 642 346 642 346 617 c 0,13,14
 346 597 346 597 333 578 c 128,-1,15
 320 559 320 559 300 559 c 0,16,17
 295 559 295 559 285 563 c 2,18,-1
 145 628 l 2,0,1
215 482 m 0,19,20
 276 482 276 482 319.5 465.5 c 128,-1,21
 363 449 363 449 390.5 422 c 128,-1,22
 418 395 418 395 430.5 359.5 c 128,-1,23
 443 324 443 324 443 286 c 2,24,-1
 443 48 l 2,25,26
 443 28 443 28 421.5 14 c 128,-1,27
 400 0 400 0 367 0 c 0,28,29
 338 0 338 0 318 14 c 128,-1,30
 298 28 298 28 298 48 c 2,31,-1
 298 70 l 1,32,33
 271 38 271 38 234.5 14 c 128,-1,34
 198 -10 198 -10 146 -10 c 0,35,36
 120 -10 120 -10 97 -2 c 128,-1,37
 74 6 74 6 56.5 22.5 c 128,-1,38
 39 39 39 39 28.5 64 c 128,-1,39
 18 89 18 89 18 123 c 0,40,41
 18 167 18 167 35 196 c 128,-1,42
 52 225 52 225 83 242.5 c 128,-1,43
 114 260 114 260 157 267 c 128,-1,44
 200 274 200 274 252 274 c 2,45,-1
 288 274 l 1,46,-1
 288 284 l 2,47,48
 288 297 288 297 284.5 310 c 128,-1,49
 281 323 281 323 272 333.5 c 128,-1,50
 263 344 263 344 248.5 351 c 128,-1,51
 234 358 234 358 213 358 c 0,52,53
 182 358 182 358 164 353 c 128,-1,54
 146 348 146 348 134 341.5 c 128,-1,55
 122 335 122 335 114 330 c 128,-1,56
 106 325 106 325 96 325 c 0,57,58
 83 325 83 325 73.5 332 c 128,-1,59
 64 339 64 339 57.5 350 c 128,-1,60
 51 361 51 361 47.5 374.5 c 128,-1,61
 44 388 44 388 44 402 c 0,62,63
 44 420 44 420 60.5 434.5 c 128,-1,64
 77 449 77 449 102 459.5 c 128,-1,65
 127 470 127 470 157 476 c 128,-1,66
 187 482 187 482 215 482 c 0,19,20
288 199 m 1,67,-1
 284 199 l 2,68,69
 263 199 263 199 243 197.5 c 128,-1,70
 223 196 223 196 207.5 190 c 128,-1,71
 192 184 192 184 183 173.5 c 128,-1,72
 174 163 174 163 174 145 c 0,73,74
 174 123 174 123 185 113 c 128,-1,75
 196 103 196 103 213 103 c 0,76,77
 225 103 225 103 238 110 c 128,-1,78
 251 117 251 117 262 129.5 c 128,-1,79
 273 142 273 142 280.5 159 c 128,-1,80
 288 176 288 176 288 195 c 2,81,-1
 288 199 l 1,67,-1
EndSplineSet
EndChar
StartChar: aacute
Encoding: 225 225 133
Width: 484
Flags: W
LayerCount: 2
Back
Fore
SplineSet
215 482 m 0,0,1
 276 482 276 482 319.5 465.5 c 128,-1,2
 363 449 363 449 390.5 422 c 128,-1,3
 418 395 418 395 430.5 359.5 c 128,-1,4
 443 324 443 324 443 286 c 2,5,-1
 443 48 l 2,6,7
 443 28 443 28 421.5 14 c 128,-1,8
 400 0 400 0 367 0 c 0,9,10
 338 0 338 0 318 14 c 128,-1,11
 298 28 298 28 298 48 c 2,12,-1
 298 70 l 1,13,14
 271 38 271 38 234.5 14 c 128,-1,15
 198 -10 198 -10 146 -10 c 0,16,17
 120 -10 120 -10 97 -2 c 128,-1,18
 74 6 74 6 56.5 22.5 c 128,-1,19
 39 39 39 39 28.5 64 c 128,-1,20
 18 89 18 89 18 123 c 0,21,22
 18 167 18 167 35 196 c 128,-1,23
 52 225 52 225 83 242.5 c 128,-1,24
 114 260 114 260 157 267 c 128,-1,25
 200 274 200 274 252 274 c 2,26,-1
 288 274 l 1,27,-1
 288 284 l 2,28,29
 288 297 288 297 284.5 310 c 128,-1,30
 281 323 281 323 272 333.5 c 128,-1,31
 263 344 263 344 248.5 351 c 128,-1,32
 234 358 234 358 213 358 c 0,33,34
 182 358 182 358 164 353 c 128,-1,35
 146 348 146 348 134 341.5 c 128,-1,36
 122 335 122 335 114 330 c 128,-1,37
 106 325 106 325 96 325 c 0,38,39
 83 325 83 325 73.5 332 c 128,-1,40
 64 339 64 339 57.5 350 c 128,-1,41
 51 361 51 361 47.5 374.5 c 128,-1,42
 44 388 44 388 44 402 c 0,43,44
 44 420 44 420 60.5 434.5 c 128,-1,45
 77 449 77 449 102 459.5 c 128,-1,46
 127 470 127 470 157 476 c 128,-1,47
 187 482 187 482 215 482 c 0,0,1
288 199 m 1,48,-1
 284 199 l 2,49,50
 263 199 263 199 243 197.5 c 128,-1,51
 223 196 223 196 207.5 190 c 128,-1,52
 192 184 192 184 183 173.5 c 128,-1,53
 174 163 174 163 174 145 c 0,54,55
 174 123 174 123 185 113 c 128,-1,56
 196 103 196 103 213 103 c 0,57,58
 225 103 225 103 238 110 c 128,-1,59
 251 117 251 117 262 129.5 c 128,-1,60
 273 142 273 142 280.5 159 c 128,-1,61
 288 176 288 176 288 195 c 2,62,-1
 288 199 l 1,48,-1
206 563 m 2,63,64
 196 559 196 559 191 559 c 0,65,66
 171 559 171 559 158 578 c 128,-1,67
 145 597 145 597 145 617 c 0,68,69
 145 642 145 642 165 652 c 2,70,-1
 305 717 l 2,71,72
 312 720 312 720 319 720 c 0,73,74
 329 720 329 720 337.5 714.5 c 128,-1,75
 346 709 346 709 352.5 700.5 c 128,-1,76
 359 692 359 692 362.5 682 c 128,-1,77
 366 672 366 672 366 662 c 0,78,79
 366 651 366 651 361.5 642 c 128,-1,80
 357 633 357 633 346 628 c 2,81,-1
 206 563 l 2,63,64
EndSplineSet
EndChar
StartChar: acircumflex
Encoding: 226 226 135
Width: 484
Flags: W
LayerCount: 2
Back
Fore
SplineSet
122 572 m 2,0,1
 116 569 116 569 111 569 c 0,2,3
 97 569 97 569 88.5 583.5 c 128,-1,4
 80 598 80 598 80 615 c 0,5,6
 80 628 80 628 85.5 639.5 c 128,-1,7
 91 651 91 651 105 659 c 2,8,-1
 209 715 l 2,9,10
 219 720 219 720 226 720 c 256,11,12
 233 720 233 720 243 715 c 2,13,-1
 347 659 l 2,14,15
 361 651 361 651 366.5 639.5 c 128,-1,16
 372 628 372 628 372 615 c 0,17,18
 372 598 372 598 363.5 583.5 c 128,-1,19
 355 569 355 569 341 569 c 0,20,21
 336 569 336 569 330 572 c 2,22,-1
 226 628 l 1,23,-1
 122 572 l 2,0,1
215 482 m 0,24,25
 276 482 276 482 319.5 465.5 c 128,-1,26
 363 449 363 449 390.5 422 c 128,-1,27
 418 395 418 395 430.5 359.5 c 128,-1,28
 443 324 443 324 443 286 c 2,29,-1
 443 48 l 2,30,31
 443 28 443 28 421.5 14 c 128,-1,32
 400 0 400 0 367 0 c 0,33,34
 338 0 338 0 318 14 c 128,-1,35
 298 28 298 28 298 48 c 2,36,-1
 298 70 l 1,37,38
 271 38 271 38 234.5 14 c 128,-1,39
 198 -10 198 -10 146 -10 c 0,40,41
 120 -10 120 -10 97 -2 c 128,-1,42
 74 6 74 6 56.5 22.5 c 128,-1,43
 39 39 39 39 28.5 64 c 128,-1,44
 18 89 18 89 18 123 c 0,45,46
 18 167 18 167 35 196 c 128,-1,47
 52 225 52 225 83 242.5 c 128,-1,48
 114 260 114 260 157 267 c 128,-1,49
 200 274 200 274 252 274 c 2,50,-1
 288 274 l 1,51,-1
 288 284 l 2,52,53
 288 297 288 297 284.5 310 c 128,-1,54
 281 323 281 323 272 333.5 c 128,-1,55
 263 344 263 344 248.5 351 c 128,-1,56
 234 358 234 358 213 358 c 0,57,58
 182 358 182 358 164 353 c 128,-1,59
 146 348 146 348 134 341.5 c 128,-1,60
 122 335 122 335 114 330 c 128,-1,61
 106 325 106 325 96 325 c 0,62,63
 83 325 83 325 73.5 332 c 128,-1,64
 64 339 64 339 57.5 350 c 128,-1,65
 51 361 51 361 47.5 374.5 c 128,-1,66
 44 388 44 388 44 402 c 0,67,68
 44 420 44 420 60.5 434.5 c 128,-1,69
 77 449 77 449 102 459.5 c 128,-1,70
 127 470 127 470 157 476 c 128,-1,71
 187 482 187 482 215 482 c 0,24,25
288 199 m 1,72,-1
 284 199 l 2,73,74
 263 199 263 199 243 197.5 c 128,-1,75
 223 196 223 196 207.5 190 c 128,-1,76
 192 184 192 184 183 173.5 c 128,-1,77
 174 163 174 163 174 145 c 0,78,79
 174 123 174 123 185 113 c 128,-1,80
 196 103 196 103 213 103 c 0,81,82
 225 103 225 103 238 110 c 128,-1,83
 251 117 251 117 262 129.5 c 128,-1,84
 273 142 273 142 280.5 159 c 128,-1,85
 288 176 288 176 288 195 c 2,86,-1
 288 199 l 1,72,-1
EndSplineSet
EndChar
StartChar: atilde
Encoding: 227 227 154
Width: 484
Flags: W
LayerCount: 2
Back
Fore
SplineSet
182 606 m 0,0,1
 166 606 166 606 154 602.5 c 128,-1,2
 142 599 142 599 132 595.5 c 128,-1,3
 122 592 122 592 113.5 588.5 c 128,-1,4
 105 585 105 585 96 585 c 0,5,6
 84 585 84 585 77 591 c 128,-1,7
 70 597 70 597 65.5 605.5 c 128,-1,8
 61 614 61 614 59.5 622 c 128,-1,9
 58 630 58 630 58 634 c 0,10,11
 58 661 58 661 68.5 675.5 c 128,-1,12
 79 690 79 690 93.5 697 c 128,-1,13
 108 704 108 704 122 705.5 c 128,-1,14
 136 707 136 707 143 707 c 0,15,16
 166 707 166 707 184 703 c 128,-1,17
 202 699 202 699 218.5 693.5 c 128,-1,18
 235 688 235 688 251.5 684 c 128,-1,19
 268 680 268 680 289 680 c 0,20,21
 305 680 305 680 317 683.5 c 128,-1,22
 329 687 329 687 339 690.5 c 128,-1,23
 349 694 349 694 357.5 697.5 c 128,-1,24
 366 701 366 701 375 701 c 0,25,26
 387 701 387 701 394 694.5 c 128,-1,27
 401 688 401 688 405.5 680 c 128,-1,28
 410 672 410 672 411.5 664 c 128,-1,29
 413 656 413 656 413 652 c 0,30,31
 413 625 413 625 402.5 610.5 c 128,-1,32
 392 596 392 596 377.5 589 c 128,-1,33
 363 582 363 582 349 580.5 c 128,-1,34
 335 579 335 579 328 579 c 0,35,36
 301 579 301 579 282 583 c 128,-1,37
 263 587 263 587 246.5 592.5 c 128,-1,38
 230 598 230 598 215 602 c 128,-1,39
 200 606 200 606 182 606 c 0,0,1
215 482 m 0,40,41
 276 482 276 482 319.5 465.5 c 128,-1,42
 363 449 363 449 390.5 422 c 128,-1,43
 418 395 418 395 430.5 359.5 c 128,-1,44
 443 324 443 324 443 286 c 2,45,-1
 443 48 l 2,46,47
 443 28 443 28 421.5 14 c 128,-1,48
 400 0 400 0 367 0 c 0,49,50
 338 0 338 0 318 14 c 128,-1,51
 298 28 298 28 298 48 c 2,52,-1
 298 70 l 1,53,54
 271 38 271 38 234.5 14 c 128,-1,55
 198 -10 198 -10 146 -10 c 0,56,57
 120 -10 120 -10 97 -2 c 128,-1,58
 74 6 74 6 56.5 22.5 c 128,-1,59
 39 39 39 39 28.5 64 c 128,-1,60
 18 89 18 89 18 123 c 0,61,62
 18 167 18 167 35 196 c 128,-1,63
 52 225 52 225 83 242.5 c 128,-1,64
 114 260 114 260 157 267 c 128,-1,65
 200 274 200 274 252 274 c 2,66,-1
 288 274 l 1,67,-1
 288 284 l 2,68,69
 288 297 288 297 284.5 310 c 128,-1,70
 281 323 281 323 272 333.5 c 128,-1,71
 263 344 263 344 248.5 351 c 128,-1,72
 234 358 234 358 213 358 c 0,73,74
 182 358 182 358 164 353 c 128,-1,75
 146 348 146 348 134 341.5 c 128,-1,76
 122 335 122 335 114 330 c 128,-1,77
 106 325 106 325 96 325 c 0,78,79
 83 325 83 325 73.5 332 c 128,-1,80
 64 339 64 339 57.5 350 c 128,-1,81
 51 361 51 361 47.5 374.5 c 128,-1,82
 44 388 44 388 44 402 c 0,83,84
 44 420 44 420 60.5 434.5 c 128,-1,85
 77 449 77 449 102 459.5 c 128,-1,86
 127 470 127 470 157 476 c 128,-1,87
 187 482 187 482 215 482 c 0,40,41
288 199 m 1,88,-1
 284 199 l 2,89,90
 263 199 263 199 243 197.5 c 128,-1,91
 223 196 223 196 207.5 190 c 128,-1,92
 192 184 192 184 183 173.5 c 128,-1,93
 174 163 174 163 174 145 c 0,94,95
 174 123 174 123 185 113 c 128,-1,96
 196 103 196 103 213 103 c 0,97,98
 225 103 225 103 238 110 c 128,-1,99
 251 117 251 117 262 129.5 c 128,-1,100
 273 142 273 142 280.5 159 c 128,-1,101
 288 176 288 176 288 195 c 2,102,-1
 288 199 l 1,88,-1
EndSplineSet
EndChar
StartChar: adieresis
Encoding: 228 228 137
Width: 484
Flags: W
LayerCount: 2
Back
Fore
SplineSet
154 688 m 256,0,1
 177 688 177 688 193.5 670.5 c 128,-1,2
 210 653 210 653 210 630 c 256,3,4
 210 607 210 607 193.5 589 c 128,-1,5
 177 571 177 571 154 571 c 256,6,7
 131 571 131 571 114 589 c 128,-1,8
 97 607 97 607 97 630 c 256,9,10
 97 653 97 653 114 670.5 c 128,-1,11
 131 688 131 688 154 688 c 256,0,1
314 688 m 256,12,13
 337 688 337 688 353.5 670.5 c 128,-1,14
 370 653 370 653 370 630 c 256,15,16
 370 607 370 607 353.5 589 c 128,-1,17
 337 571 337 571 314 571 c 256,18,19
 291 571 291 571 274 589 c 128,-1,20
 257 607 257 607 257 630 c 256,21,22
 257 653 257 653 274 670.5 c 128,-1,23
 291 688 291 688 314 688 c 256,12,13
215 482 m 0,24,25
 276 482 276 482 319.5 465.5 c 128,-1,26
 363 449 363 449 390.5 422 c 128,-1,27
 418 395 418 395 430.5 359.5 c 128,-1,28
 443 324 443 324 443 286 c 2,29,-1
 443 48 l 2,30,31
 443 28 443 28 421.5 14 c 128,-1,32
 400 0 400 0 367 0 c 0,33,34
 338 0 338 0 318 14 c 128,-1,35
 298 28 298 28 298 48 c 2,36,-1
 298 70 l 1,37,38
 271 38 271 38 234.5 14 c 128,-1,39
 198 -10 198 -10 146 -10 c 0,40,41
 120 -10 120 -10 97 -2 c 128,-1,42
 74 6 74 6 56.5 22.5 c 128,-1,43
 39 39 39 39 28.5 64 c 128,-1,44
 18 89 18 89 18 123 c 0,45,46
 18 167 18 167 35 196 c 128,-1,47
 52 225 52 225 83 242.5 c 128,-1,48
 114 260 114 260 157 267 c 128,-1,49
 200 274 200 274 252 274 c 2,50,-1
 288 274 l 1,51,-1
 288 284 l 2,52,53
 288 297 288 297 284.5 310 c 128,-1,54
 281 323 281 323 272 333.5 c 128,-1,55
 263 344 263 344 248.5 351 c 128,-1,56
 234 358 234 358 213 358 c 0,57,58
 182 358 182 358 164 353 c 128,-1,59
 146 348 146 348 134 341.5 c 128,-1,60
 122 335 122 335 114 330 c 128,-1,61
 106 325 106 325 96 325 c 0,62,63
 83 325 83 325 73.5 332 c 128,-1,64
 64 339 64 339 57.5 350 c 128,-1,65
 51 361 51 361 47.5 374.5 c 128,-1,66
 44 388 44 388 44 402 c 0,67,68
 44 420 44 420 60.5 434.5 c 128,-1,69
 77 449 77 449 102 459.5 c 128,-1,70
 127 470 127 470 157 476 c 128,-1,71
 187 482 187 482 215 482 c 0,24,25
288 199 m 1,72,-1
 284 199 l 2,73,74
 263 199 263 199 243 197.5 c 128,-1,75
 223 196 223 196 207.5 190 c 128,-1,76
 192 184 192 184 183 173.5 c 128,-1,77
 174 163 174 163 174 145 c 0,78,79
 174 123 174 123 185 113 c 128,-1,80
 196 103 196 103 213 103 c 0,81,82
 225 103 225 103 238 110 c 128,-1,83
 251 117 251 117 262 129.5 c 128,-1,84
 273 142 273 142 280.5 159 c 128,-1,85
 288 176 288 176 288 195 c 2,86,-1
 288 199 l 1,72,-1
EndSplineSet
EndChar
